<?xml version="1.0" encoding="utf-8"?>
<!-- Generator: Adobe Illustrator 24.0.3, SVG Export Plug-In . SVG Version: 6.00 Build 0)  -->
<svg version="1.1" id="Layer_1" xmlns="http://www.w3.org/2000/svg" xmlns:xlink="http://www.w3.org/1999/xlink" x="0px" y="0px"
	 viewBox="0 0 1920 3000" style="enable-background:new 0 0 1920 3000;" xml:space="preserve">
<style type="text/css">
	.st0{clip-path:url(#SVGID_2_);fill:#A9A9A9;}
	.st1{opacity:0.19;clip-path:url(#SVGID_2_);}
	.st2{fill:#FFFFFF;}
</style>
<g>
	<defs>
		<rect id="SVGID_1_" x="-0.62" width="1920.62" height="3000"/>
	</defs>
	<clipPath id="SVGID_2_">
		<use xlink:href="#SVGID_1_"  style="overflow:visible;"/>
	</clipPath>
	<rect x="-1" class="st0" width="1921" height="3000"/>
	<g class="st1">
		
			<rect x="-160.17" y="625.76" transform="matrix(0.9174 -0.3979 0.3979 0.9174 -277.3669 11.0039)" class="st2" width="96" height="96"/>
		
			<rect x="-34.19" y="674.66" transform="matrix(0.9174 -0.3979 0.3979 0.9174 -286.4251 65.1735)" class="st2" width="96" height="96"/>
		
			<rect x="16.18" y="549.26" transform="matrix(0.9174 -0.3979 0.3979 0.9174 -232.3644 74.8624)" class="st2" width="96" height="96"/>
		
			<rect x="142.16" y="598.17" transform="matrix(0.9174 -0.3979 0.3979 0.9174 -241.4229 129.032)" class="st2" width="96" height="96"/>
		
			<rect x="192.54" y="472.77" transform="matrix(0.9174 -0.3979 0.3979 0.9174 -187.3629 138.7215)" class="st2" width="96" height="96"/>
		
			<rect x="318.52" y="521.68" transform="matrix(0.9174 -0.3979 0.3979 0.9174 -196.4211 192.891)" class="st2" width="96" height="96"/>
		
			<rect x="368.89" y="396.28" transform="matrix(0.9174 -0.3979 0.3979 0.9174 -142.3608 202.58)" class="st2" width="96" height="96"/>
		
			<rect x="-84.17" y="800.98" transform="matrix(0.9174 -0.3979 0.3979 0.9174 -340.8176 55.7183)" class="st2" width="96" height="96"/>
		
			<rect x="41.81" y="849.89" transform="matrix(0.9174 -0.3979 0.3979 0.9174 -349.8755 109.8877)" class="st2" width="96" height="96"/>
		
			<rect x="92.19" y="724.49" transform="matrix(0.9174 -0.3979 0.3979 0.9174 -295.8156 119.5771)" class="st2" width="96" height="96"/>
		
			<rect x="218.17" y="773.4" transform="matrix(0.9174 -0.3979 0.3979 0.9174 -304.8737 173.7466)" class="st2" width="96" height="96"/>
		
			<rect x="268.54" y="648" transform="matrix(0.9174 -0.3979 0.3979 0.9174 -250.8134 183.4356)" class="st2" width="96" height="96"/>
		
			<rect x="394.52" y="696.91" transform="matrix(0.9174 -0.3979 0.3979 0.9174 -259.8717 237.6054)" class="st2" width="96" height="96"/>
		
			<rect x="444.9" y="571.51" transform="matrix(0.9174 -0.3979 0.3979 0.9174 -205.8116 247.2946)" class="st2" width="96" height="96"/>
		
			<rect x="-8.16" y="976.21" transform="matrix(0.9174 -0.3979 0.3979 0.9174 -404.2682 100.4327)" class="st2" width="96" height="96"/>
		
			<rect x="117.82" y="1025.12" transform="matrix(0.9174 -0.3979 0.3979 0.9174 -413.3264 154.6022)" class="st2" width="96" height="96"/>
		
			<rect x="168.19" y="899.72" transform="matrix(0.9174 -0.3979 0.3979 0.9174 -359.2658 164.2912)" class="st2" width="96" height="96"/>
		
			<rect x="294.17" y="948.63" transform="matrix(0.9174 -0.3979 0.3979 0.9174 -368.3244 218.461)" class="st2" width="96" height="96"/>
		
			<rect x="344.55" y="823.22" transform="matrix(0.9174 -0.3979 0.3979 0.9174 -314.2642 228.1502)" class="st2" width="96" height="96"/>
		
			<rect x="470.53" y="872.13" transform="matrix(0.9174 -0.3979 0.3979 0.9174 -323.3224 282.3198)" class="st2" width="96" height="96"/>
		
			<rect x="520.9" y="746.73" transform="matrix(0.9174 -0.3979 0.3979 0.9174 -269.2621 292.009)" class="st2" width="96" height="96"/>
	</g>
	<g class="st1">
		
			<rect x="495.06" y="445.28" transform="matrix(0.9174 -0.3979 0.3979 0.9174 -151.4411 256.8304)" class="st2" width="96" height="96"/>
		
			<rect x="545.43" y="319.88" transform="matrix(0.9174 -0.3979 0.3979 0.9174 -97.3808 266.519)" class="st2" width="96" height="96"/>
		
			<rect x="671.41" y="368.79" transform="matrix(0.9174 -0.3979 0.3979 0.9174 -106.4391 320.6888)" class="st2" width="96" height="96"/>
		
			<rect x="721.78" y="243.39" transform="matrix(0.9174 -0.3979 0.3979 0.9174 -52.3789 330.3785)" class="st2" width="96" height="96"/>
		
			<rect x="847.76" y="292.29" transform="matrix(0.9174 -0.3979 0.3979 0.9174 -61.4371 384.548)" class="st2" width="96" height="96"/>
		
			<rect x="898.14" y="166.89" transform="matrix(0.9174 -0.3979 0.3979 0.9174 -7.377 394.2368)" class="st2" width="96" height="96"/>
		
			<rect x="571.06" y="620.51" transform="matrix(0.9174 -0.3979 0.3979 0.9174 -214.8916 301.5445)" class="st2" width="96" height="96"/>
		
			<rect x="621.43" y="495.11" transform="matrix(0.9174 -0.3979 0.3979 0.9174 -160.8315 311.2341)" class="st2" width="96" height="96"/>
		
			<rect x="747.41" y="544.01" transform="matrix(0.9174 -0.3979 0.3979 0.9174 -169.8897 365.4036)" class="st2" width="96" height="96"/>
		
			<rect x="797.79" y="418.61" transform="matrix(0.9174 -0.3979 0.3979 0.9174 -115.8295 375.0925)" class="st2" width="96" height="96"/>
		
			<rect x="923.77" y="467.52" transform="matrix(0.9174 -0.3979 0.3979 0.9174 -124.8877 429.2624)" class="st2" width="96" height="96"/>
		
			<rect x="974.14" y="342.12" transform="matrix(0.9174 -0.3979 0.3979 0.9174 -70.8275 438.9517)" class="st2" width="96" height="96"/>
		
			<rect x="647.06" y="795.73" transform="matrix(0.9174 -0.3979 0.3979 0.9174 -278.3423 346.2592)" class="st2" width="96" height="96"/>
		
			<rect x="697.44" y="670.33" transform="matrix(0.9174 -0.3979 0.3979 0.9174 -224.282 355.9481)" class="st2" width="96" height="96"/>
		
			<rect x="823.42" y="719.24" transform="matrix(0.9174 -0.3979 0.3979 0.9174 -233.3403 410.118)" class="st2" width="96" height="96"/>
		
			<rect x="873.79" y="593.84" transform="matrix(0.9174 -0.3979 0.3979 0.9174 -179.2801 419.8072)" class="st2" width="96" height="96"/>
		
			<rect x="999.77" y="642.75" transform="matrix(0.9174 -0.3979 0.3979 0.9174 -188.3383 473.9767)" class="st2" width="96" height="96"/>
		
			<rect x="1050.15" y="517.35" transform="matrix(0.9174 -0.3979 0.3979 0.9174 -134.2781 483.666)" class="st2" width="96" height="96"/>
	</g>
	<g class="st1">
		
			<rect x="1023.89" y="216.26" transform="matrix(0.9174 -0.3979 0.3979 0.9174 -16.6367 448.3529)" class="st2" width="96" height="96"/>
		
			<rect x="1074.26" y="90.86" transform="matrix(0.9174 -0.3979 0.3979 0.9174 37.4232 458.0412)" class="st2" width="96" height="96"/>
		
			<rect x="1200.24" y="139.77" transform="matrix(0.9174 -0.3979 0.3979 0.9174 28.3652 512.2112)" class="st2" width="96" height="96"/>
		
			<rect x="1250.62" y="14.37" transform="matrix(0.9174 -0.3979 0.3979 0.9174 82.4255 521.901)" class="st2" width="96" height="96"/>
		
			<rect x="1376.6" y="63.28" transform="matrix(0.9174 -0.3979 0.3979 0.9174 73.3673 576.0705)" class="st2" width="96" height="96"/>
		
			<rect x="1426.97" y="-62.13" transform="matrix(0.9174 -0.3979 0.3979 0.9174 127.4273 585.7592)" class="st2" width="96" height="96"/>
		
			<rect x="1099.89" y="391.49" transform="matrix(0.9174 -0.3979 0.3979 0.9174 -80.0873 493.0668)" class="st2" width="96" height="96"/>
		
			<rect x="1150.27" y="266.09" transform="matrix(0.9174 -0.3979 0.3979 0.9174 -26.0271 502.7566)" class="st2" width="96" height="96"/>
		
			<rect x="1276.24" y="315" transform="matrix(0.9174 -0.3979 0.3979 0.9174 -35.0853 556.9261)" class="st2" width="96" height="96"/>
		
			<rect x="1326.62" y="189.59" transform="matrix(0.9174 -0.3979 0.3979 0.9174 18.9748 566.6149)" class="st2" width="96" height="96"/>
		
			<rect x="1452.6" y="238.5" transform="matrix(0.9174 -0.3979 0.3979 0.9174 9.9167 620.7849)" class="st2" width="96" height="96"/>
		
			<rect x="1502.97" y="113.1" transform="matrix(0.9174 -0.3979 0.3979 0.9174 63.977 630.4742)" class="st2" width="96" height="96"/>
		
			<rect x="1175.89" y="566.71" transform="matrix(0.9174 -0.3979 0.3979 0.9174 -143.5379 537.7817)" class="st2" width="96" height="96"/>
		
			<rect x="1226.27" y="441.31" transform="matrix(0.9174 -0.3979 0.3979 0.9174 -89.4777 547.4704)" class="st2" width="96" height="96"/>
		
			<rect x="1352.25" y="490.22" transform="matrix(0.9174 -0.3979 0.3979 0.9174 -98.5359 601.6405)" class="st2" width="96" height="96"/>
		
			<rect x="1402.62" y="364.82" transform="matrix(0.9174 -0.3979 0.3979 0.9174 -44.4757 611.3297)" class="st2" width="96" height="96"/>
		
			<rect x="1528.6" y="413.73" transform="matrix(0.9174 -0.3979 0.3979 0.9174 -53.5339 665.4993)" class="st2" width="96" height="96"/>
		
			<rect x="1578.98" y="288.33" transform="matrix(0.9174 -0.3979 0.3979 0.9174 0.5263 675.1885)" class="st2" width="96" height="96"/>
	</g>
	<g class="st1">
		
			<rect x="-108.37" y="1228.31" transform="matrix(0.9174 -0.3979 0.3979 0.9174 -512.8593 81.3766)" class="st2" width="96" height="96"/>
		
			<rect x="17.61" y="1277.22" transform="matrix(0.9174 -0.3979 0.3979 0.9174 -521.9174 135.5461)" class="st2" width="96" height="96"/>
		
			<rect x="67.98" y="1151.81" transform="matrix(0.9174 -0.3979 0.3979 0.9174 -467.8562 145.2348)" class="st2" width="96" height="96"/>
		
			<rect x="193.96" y="1200.72" transform="matrix(0.9174 -0.3979 0.3979 0.9174 -476.9149 199.4046)" class="st2" width="96" height="96"/>
		
			<rect x="244.34" y="1075.32" transform="matrix(0.9174 -0.3979 0.3979 0.9174 -422.8552 209.0942)" class="st2" width="96" height="96"/>
		
			<rect x="370.32" y="1124.23" transform="matrix(0.9174 -0.3979 0.3979 0.9174 -431.9135 263.2637)" class="st2" width="96" height="96"/>
		
			<rect x="420.69" y="998.83" transform="matrix(0.9174 -0.3979 0.3979 0.9174 -377.8529 272.9526)" class="st2" width="96" height="96"/>
		
			<rect x="-32.37" y="1403.53" transform="matrix(0.9174 -0.3979 0.3979 0.9174 -576.3099 126.091)" class="st2" width="96" height="96"/>
		
			<rect x="93.61" y="1452.44" transform="matrix(0.9174 -0.3979 0.3979 0.9174 -585.3676 180.2602)" class="st2" width="96" height="96"/>
		
			<rect x="143.99" y="1327.04" transform="matrix(0.9174 -0.3979 0.3979 0.9174 -531.3079 189.9498)" class="st2" width="96" height="96"/>
		
			<rect x="269.97" y="1375.95" transform="matrix(0.9174 -0.3979 0.3979 0.9174 -540.3661 244.1193)" class="st2" width="96" height="96"/>
		
			<rect x="320.34" y="1250.55" transform="matrix(0.9174 -0.3979 0.3979 0.9174 -486.3055 253.8082)" class="st2" width="96" height="96"/>
		
			<rect x="446.32" y="1299.46" transform="matrix(0.9174 -0.3979 0.3979 0.9174 -495.364 307.9781)" class="st2" width="96" height="96"/>
		
			<rect x="496.7" y="1174.06" transform="matrix(0.9174 -0.3979 0.3979 0.9174 -441.3039 317.6674)" class="st2" width="96" height="96"/>
		
			<rect x="43.64" y="1578.76" transform="matrix(0.9174 -0.3979 0.3979 0.9174 -639.7605 170.8054)" class="st2" width="96" height="96"/>
		
			<rect x="169.62" y="1627.67" transform="matrix(0.9174 -0.3979 0.3979 0.9174 -648.8187 224.9749)" class="st2" width="96" height="96"/>
		
			<rect x="219.99" y="1502.27" transform="matrix(0.9174 -0.3979 0.3979 0.9174 -594.7579 234.6638)" class="st2" width="96" height="96"/>
		
			<rect x="345.97" y="1551.18" transform="matrix(0.9174 -0.3979 0.3979 0.9174 -603.8167 288.8336)" class="st2" width="96" height="96"/>
		
			<rect x="396.35" y="1425.78" transform="matrix(0.9174 -0.3979 0.3979 0.9174 -549.7565 298.5229)" class="st2" width="96" height="96"/>
		
			<rect x="522.33" y="1474.68" transform="matrix(0.9174 -0.3979 0.3979 0.9174 -558.8146 352.6924)" class="st2" width="96" height="96"/>
		
			<rect x="572.7" y="1349.28" transform="matrix(0.9174 -0.3979 0.3979 0.9174 -504.7545 362.3817)" class="st2" width="96" height="96"/>
	</g>
	<g class="st1">
		
			<rect x="546.86" y="1047.83" transform="matrix(0.9174 -0.3979 0.3979 0.9174 -386.9334 327.2031)" class="st2" width="96" height="96"/>
		
			<rect x="597.23" y="922.43" transform="matrix(0.9174 -0.3979 0.3979 0.9174 -332.8726 336.8914)" class="st2" width="96" height="96"/>
		
			<rect x="723.21" y="971.34" transform="matrix(0.9174 -0.3979 0.3979 0.9174 -341.9311 391.0614)" class="st2" width="96" height="96"/>
		
			<rect x="773.58" y="845.94" transform="matrix(0.9174 -0.3979 0.3979 0.9174 -287.8712 400.7512)" class="st2" width="96" height="96"/>
		
			<rect x="899.56" y="894.85" transform="matrix(0.9174 -0.3979 0.3979 0.9174 -296.9294 454.9207)" class="st2" width="96" height="96"/>
		
			<rect x="949.94" y="769.44" transform="matrix(0.9174 -0.3979 0.3979 0.9174 -242.869 464.6094)" class="st2" width="96" height="96"/>
		
			<rect x="622.86" y="1223.06" transform="matrix(0.9174 -0.3979 0.3979 0.9174 -450.3837 371.9171)" class="st2" width="96" height="96"/>
		
			<rect x="673.23" y="1097.66" transform="matrix(0.9174 -0.3979 0.3979 0.9174 -396.3238 381.6068)" class="st2" width="96" height="96"/>
		
			<rect x="799.21" y="1146.57" transform="matrix(0.9174 -0.3979 0.3979 0.9174 -405.382 435.7763)" class="st2" width="96" height="96"/>
		
			<rect x="849.59" y="1021.16" transform="matrix(0.9174 -0.3979 0.3979 0.9174 -351.3216 445.4651)" class="st2" width="96" height="96"/>
		
			<rect x="975.57" y="1070.07" transform="matrix(0.9174 -0.3979 0.3979 0.9174 -360.38 499.635)" class="st2" width="96" height="96"/>
		
			<rect x="1025.94" y="944.67" transform="matrix(0.9174 -0.3979 0.3979 0.9174 -306.3198 509.3244)" class="st2" width="96" height="96"/>
		
			<rect x="698.86" y="1398.28" transform="matrix(0.9174 -0.3979 0.3979 0.9174 -513.8347 416.6319)" class="st2" width="96" height="96"/>
		
			<rect x="749.24" y="1272.88" transform="matrix(0.9174 -0.3979 0.3979 0.9174 -459.7741 426.3206)" class="st2" width="96" height="96"/>
		
			<rect x="875.22" y="1321.79" transform="matrix(0.9174 -0.3979 0.3979 0.9174 -468.8326 480.4907)" class="st2" width="96" height="96"/>
		
			<rect x="925.59" y="1196.39" transform="matrix(0.9174 -0.3979 0.3979 0.9174 -414.7724 490.1799)" class="st2" width="96" height="96"/>
		
			<rect x="1051.57" y="1245.3" transform="matrix(0.9174 -0.3979 0.3979 0.9174 -423.8306 544.3494)" class="st2" width="96" height="96"/>
		
			<rect x="1101.95" y="1119.9" transform="matrix(0.9174 -0.3979 0.3979 0.9174 -369.7704 554.0387)" class="st2" width="96" height="96"/>
	</g>
	<g class="st1">
		
			<rect x="1075.69" y="818.81" transform="matrix(0.9174 -0.3979 0.3979 0.9174 -252.129 518.7256)" class="st2" width="96" height="96"/>
		
			<rect x="1126.06" y="693.41" transform="matrix(0.9174 -0.3979 0.3979 0.9174 -198.0686 528.4136)" class="st2" width="96" height="96"/>
		
			<rect x="1252.04" y="742.32" transform="matrix(0.9174 -0.3979 0.3979 0.9174 -207.1269 582.5837)" class="st2" width="96" height="96"/>
		
			<rect x="1302.42" y="616.92" transform="matrix(0.9174 -0.3979 0.3979 0.9174 -153.0668 592.2737)" class="st2" width="96" height="96"/>
		
			<rect x="1428.4" y="665.83" transform="matrix(0.9174 -0.3979 0.3979 0.9174 -162.125 646.4432)" class="st2" width="96" height="96"/>
		
			<rect x="1478.77" y="540.43" transform="matrix(0.9174 -0.3979 0.3979 0.9174 -108.0648 656.1318)" class="st2" width="96" height="96"/>
		
			<rect x="1151.69" y="994.04" transform="matrix(0.9174 -0.3979 0.3979 0.9174 -315.5794 563.4394)" class="st2" width="96" height="96"/>
		
			<rect x="1202.07" y="868.64" transform="matrix(0.9174 -0.3979 0.3979 0.9174 -261.5194 573.1293)" class="st2" width="96" height="96"/>
		
			<rect x="1328.05" y="917.55" transform="matrix(0.9174 -0.3979 0.3979 0.9174 -270.5776 627.2988)" class="st2" width="96" height="96"/>
		
			<rect x="1378.42" y="792.15" transform="matrix(0.9174 -0.3979 0.3979 0.9174 -216.5173 636.9874)" class="st2" width="96" height="96"/>
		
			<rect x="1504.4" y="841.05" transform="matrix(0.9174 -0.3979 0.3979 0.9174 -225.5756 691.1575)" class="st2" width="96" height="96"/>
		
			<rect x="1554.77" y="715.65" transform="matrix(0.9174 -0.3979 0.3979 0.9174 -171.5154 700.8469)" class="st2" width="96" height="96"/>
		
			<rect x="1227.7" y="1169.27" transform="matrix(0.9174 -0.3979 0.3979 0.9174 -379.0302 608.1544)" class="st2" width="96" height="96"/>
		
			<rect x="1278.07" y="1043.86" transform="matrix(0.9174 -0.3979 0.3979 0.9174 -324.9698 617.843)" class="st2" width="96" height="96"/>
		
			<rect x="1404.05" y="1092.77" transform="matrix(0.9174 -0.3979 0.3979 0.9174 -334.0282 672.0132)" class="st2" width="96" height="96"/>
		
			<rect x="1454.42" y="967.37" transform="matrix(0.9174 -0.3979 0.3979 0.9174 -279.968 681.7024)" class="st2" width="96" height="96"/>
		
			<rect x="1580.4" y="1016.28" transform="matrix(0.9174 -0.3979 0.3979 0.9174 -289.0262 735.8719)" class="st2" width="96" height="96"/>
		
			<rect x="1630.78" y="890.88" transform="matrix(0.9174 -0.3979 0.3979 0.9174 -234.966 745.5612)" class="st2" width="96" height="96"/>
	</g>
	<g class="st1">
		
			<rect x="-56.01" y="1831.09" transform="matrix(0.9174 -0.3979 0.3979 0.9174 -748.3976 151.9892)" class="st2" width="96" height="96"/>
		
			<rect x="69.97" y="1880" transform="matrix(0.9174 -0.3979 0.3979 0.9174 -757.4558 206.1587)" class="st2" width="96" height="96"/>
		
			<rect x="120.34" y="1754.6" transform="matrix(0.9174 -0.3979 0.3979 0.9174 -703.3941 215.8471)" class="st2" width="96" height="96"/>
		
			<rect x="246.32" y="1803.5" transform="matrix(0.9174 -0.3979 0.3979 0.9174 -712.4531 270.017)" class="st2" width="96" height="96"/>
		
			<rect x="296.69" y="1678.1" transform="matrix(0.9174 -0.3979 0.3979 0.9174 -658.3936 279.7067)" class="st2" width="96" height="96"/>
		
			<rect x="422.67" y="1727.01" transform="matrix(0.9174 -0.3979 0.3979 0.9174 -667.4518 333.8762)" class="st2" width="96" height="96"/>
		
			<rect x="473.05" y="1601.61" transform="matrix(0.9174 -0.3979 0.3979 0.9174 -613.3911 343.565)" class="st2" width="96" height="96"/>
		
			<rect x="19.99" y="2006.32" transform="matrix(0.9174 -0.3979 0.3979 0.9174 -811.8483 196.7036)" class="st2" width="96" height="96"/>
		
			<rect x="145.97" y="2055.22" transform="matrix(0.9174 -0.3979 0.3979 0.9174 -820.9057 250.8727)" class="st2" width="96" height="96"/>
		
			<rect x="196.34" y="1929.82" transform="matrix(0.9174 -0.3979 0.3979 0.9174 -766.8463 260.5623)" class="st2" width="96" height="96"/>
		
			<rect x="322.32" y="1978.73" transform="matrix(0.9174 -0.3979 0.3979 0.9174 -775.9045 314.7318)" class="st2" width="96" height="96"/>
		
			<rect x="372.7" y="1853.33" transform="matrix(0.9174 -0.3979 0.3979 0.9174 -721.8437 324.4207)" class="st2" width="96" height="96"/>
		
			<rect x="498.68" y="1902.24" transform="matrix(0.9174 -0.3979 0.3979 0.9174 -730.9025 378.5906)" class="st2" width="96" height="96"/>
		
			<rect x="549.05" y="1776.84" transform="matrix(0.9174 -0.3979 0.3979 0.9174 -676.8423 388.2799)" class="st2" width="96" height="96"/>
		
			<rect x="95.99" y="2181.54" transform="matrix(0.9174 -0.3979 0.3979 0.9174 -875.2989 241.418)" class="st2" width="96" height="96"/>
		
			<rect x="221.97" y="2230.45" transform="matrix(0.9174 -0.3979 0.3979 0.9174 -884.3571 295.5875)" class="st2" width="96" height="96"/>
		
			<rect x="272.35" y="2105.05" transform="matrix(0.9174 -0.3979 0.3979 0.9174 -830.2961 305.2762)" class="st2" width="96" height="96"/>
		
			<rect x="398.33" y="2153.96" transform="matrix(0.9174 -0.3979 0.3979 0.9174 -839.3551 359.4462)" class="st2" width="96" height="96"/>
		
			<rect x="448.7" y="2028.56" transform="matrix(0.9174 -0.3979 0.3979 0.9174 -785.2949 369.1355)" class="st2" width="96" height="96"/>
		
			<rect x="574.68" y="2077.47" transform="matrix(0.9174 -0.3979 0.3979 0.9174 -794.353 423.305)" class="st2" width="96" height="96"/>
		
			<rect x="625.06" y="1952.06" transform="matrix(0.9174 -0.3979 0.3979 0.9174 -740.2928 432.9942)" class="st2" width="96" height="96"/>
	</g>
	<g class="st1">
		
			<rect x="599.21" y="1650.61" transform="matrix(0.9174 -0.3979 0.3979 0.9174 -622.4717 397.8157)" class="st2" width="96" height="96"/>
		
			<rect x="649.59" y="1525.21" transform="matrix(0.9174 -0.3979 0.3979 0.9174 -568.4105 407.5038)" class="st2" width="96" height="96"/>
		
			<rect x="775.57" y="1574.12" transform="matrix(0.9174 -0.3979 0.3979 0.9174 -577.4693 461.6738)" class="st2" width="96" height="96"/>
		
			<rect x="825.94" y="1448.72" transform="matrix(0.9174 -0.3979 0.3979 0.9174 -523.4096 471.3637)" class="st2" width="96" height="96"/>
		
			<rect x="951.92" y="1497.63" transform="matrix(0.9174 -0.3979 0.3979 0.9174 -532.4678 525.5332)" class="st2" width="96" height="96"/>
		
			<rect x="1002.29" y="1372.23" transform="matrix(0.9174 -0.3979 0.3979 0.9174 -478.4072 535.2219)" class="st2" width="96" height="96"/>
		
			<rect x="675.22" y="1825.84" transform="matrix(0.9174 -0.3979 0.3979 0.9174 -685.9219 442.5295)" class="st2" width="96" height="96"/>
		
			<rect x="725.59" y="1700.44" transform="matrix(0.9174 -0.3979 0.3979 0.9174 -631.8622 452.2194)" class="st2" width="96" height="96"/>
		
			<rect x="851.57" y="1749.35" transform="matrix(0.9174 -0.3979 0.3979 0.9174 -640.9204 506.3889)" class="st2" width="96" height="96"/>
		
			<rect x="901.94" y="1623.95" transform="matrix(0.9174 -0.3979 0.3979 0.9174 -586.8598 516.0775)" class="st2" width="96" height="96"/>
		
			<rect x="1027.92" y="1672.85" transform="matrix(0.9174 -0.3979 0.3979 0.9174 -595.9184 570.2476)" class="st2" width="96" height="96"/>
		
			<rect x="1078.3" y="1547.45" transform="matrix(0.9174 -0.3979 0.3979 0.9174 -541.8583 579.937)" class="st2" width="96" height="96"/>
		
			<rect x="751.22" y="2001.07" transform="matrix(0.9174 -0.3979 0.3979 0.9174 -749.373 487.2444)" class="st2" width="96" height="96"/>
		
			<rect x="801.59" y="1875.67" transform="matrix(0.9174 -0.3979 0.3979 0.9174 -695.3123 496.9331)" class="st2" width="96" height="96"/>
		
			<rect x="927.57" y="1924.57" transform="matrix(0.9174 -0.3979 0.3979 0.9174 -704.371 551.1032)" class="st2" width="96" height="96"/>
		
			<rect x="977.95" y="1799.17" transform="matrix(0.9174 -0.3979 0.3979 0.9174 -650.3109 560.7925)" class="st2" width="96" height="96"/>
		
			<rect x="1103.93" y="1848.08" transform="matrix(0.9174 -0.3979 0.3979 0.9174 -659.369 614.962)" class="st2" width="96" height="96"/>
		
			<rect x="1154.3" y="1722.68" transform="matrix(0.9174 -0.3979 0.3979 0.9174 -605.3088 624.6512)" class="st2" width="96" height="96"/>
	</g>
	<g class="st1">
		
			<rect x="1128.04" y="1421.59" transform="matrix(0.9174 -0.3979 0.3979 0.9174 -487.6674 589.3382)" class="st2" width="96" height="96"/>
		
			<rect x="1178.42" y="1296.19" transform="matrix(0.9174 -0.3979 0.3979 0.9174 -433.6065 599.0259)" class="st2" width="96" height="96"/>
		
			<rect x="1304.4" y="1345.1" transform="matrix(0.9174 -0.3979 0.3979 0.9174 -442.665 653.1962)" class="st2" width="96" height="96"/>
		
			<rect x="1354.77" y="1219.7" transform="matrix(0.9174 -0.3979 0.3979 0.9174 -388.6052 662.8862)" class="st2" width="96" height="96"/>
		
			<rect x="1480.75" y="1268.61" transform="matrix(0.9174 -0.3979 0.3979 0.9174 -397.6634 717.0557)" class="st2" width="96" height="96"/>
		
			<rect x="1531.13" y="1143.21" transform="matrix(0.9174 -0.3979 0.3979 0.9174 -343.603 726.7442)" class="st2" width="96" height="96"/>
		
			<rect x="1204.05" y="1596.82" transform="matrix(0.9174 -0.3979 0.3979 0.9174 -551.1176 634.0518)" class="st2" width="96" height="96"/>
		
			<rect x="1254.42" y="1471.42" transform="matrix(0.9174 -0.3979 0.3979 0.9174 -497.0578 643.7418)" class="st2" width="96" height="96"/>
		
			<rect x="1380.4" y="1520.33" transform="matrix(0.9174 -0.3979 0.3979 0.9174 -506.116 697.9113)" class="st2" width="96" height="96"/>
		
			<rect x="1430.77" y="1394.93" transform="matrix(0.9174 -0.3979 0.3979 0.9174 -452.0555 707.5999)" class="st2" width="96" height="96"/>
		
			<rect x="1556.75" y="1443.84" transform="matrix(0.9174 -0.3979 0.3979 0.9174 -461.114 761.7701)" class="st2" width="96" height="96"/>
		
			<rect x="1607.13" y="1318.43" transform="matrix(0.9174 -0.3979 0.3979 0.9174 -407.0538 771.4595)" class="st2" width="96" height="96"/>
		
			<rect x="1280.05" y="1772.05" transform="matrix(0.9174 -0.3979 0.3979 0.9174 -614.5687 678.767)" class="st2" width="96" height="96"/>
		
			<rect x="1330.42" y="1646.65" transform="matrix(0.9174 -0.3979 0.3979 0.9174 -560.508 688.4554)" class="st2" width="96" height="96"/>
		
			<rect x="1456.4" y="1695.55" transform="matrix(0.9174 -0.3979 0.3979 0.9174 -569.5667 742.6257)" class="st2" width="96" height="96"/>
		
			<rect x="1506.78" y="1570.15" transform="matrix(0.9174 -0.3979 0.3979 0.9174 -515.5064 752.3149)" class="st2" width="96" height="96"/>
		
			<rect x="1632.76" y="1619.06" transform="matrix(0.9174 -0.3979 0.3979 0.9174 -524.5646 806.4845)" class="st2" width="96" height="96"/>
		
			<rect x="1683.13" y="1493.66" transform="matrix(0.9174 -0.3979 0.3979 0.9174 -470.5044 816.1738)" class="st2" width="96" height="96"/>
	</g>
	<g class="st1">
		
			<rect x="-4.5" y="2432.65" transform="matrix(0.9174 -0.3979 0.3979 0.9174 -983.5193 222.1666)" class="st2" width="96" height="96"/>
		
			<rect x="121.48" y="2481.56" transform="matrix(0.9174 -0.3979 0.3979 0.9174 -992.5775 276.3361)" class="st2" width="96" height="96"/>
		
			<rect x="171.86" y="2356.16" transform="matrix(0.9174 -0.3979 0.3979 0.9174 -938.5153 286.0243)" class="st2" width="96" height="96"/>
		
			<rect x="297.84" y="2405.06" transform="matrix(0.9174 -0.3979 0.3979 0.9174 -947.5746 340.1943)" class="st2" width="96" height="96"/>
		
			<rect x="348.21" y="2279.66" transform="matrix(0.9174 -0.3979 0.3979 0.9174 -893.5153 349.8842)" class="st2" width="96" height="96"/>
		
			<rect x="474.19" y="2328.57" transform="matrix(0.9174 -0.3979 0.3979 0.9174 -902.5735 404.0536)" class="st2" width="96" height="96"/>
		
			<rect x="524.56" y="2203.17" transform="matrix(0.9174 -0.3979 0.3979 0.9174 -848.5126 413.7423)" class="st2" width="96" height="96"/>
		
			<rect x="71.51" y="2607.88" transform="matrix(0.9174 -0.3979 0.3979 0.9174 -1046.97 266.881)" class="st2" width="96" height="96"/>
		
			<rect x="197.49" y="2656.78" transform="matrix(0.9174 -0.3979 0.3979 0.9174 -1056.0272 321.05)" class="st2" width="96" height="96"/>
		
			<rect x="247.86" y="2531.38" transform="matrix(0.9174 -0.3979 0.3979 0.9174 -1001.968 330.7398)" class="st2" width="96" height="96"/>
		
			<rect x="373.84" y="2580.29" transform="matrix(0.9174 -0.3979 0.3979 0.9174 -1011.0262 384.9093)" class="st2" width="96" height="96"/>
		
			<rect x="424.21" y="2454.89" transform="matrix(0.9174 -0.3979 0.3979 0.9174 -956.9651 394.598)" class="st2" width="96" height="96"/>
		
			<rect x="550.19" y="2503.8" transform="matrix(0.9174 -0.3979 0.3979 0.9174 -966.0241 448.768)" class="st2" width="96" height="96"/>
		
			<rect x="600.57" y="2378.4" transform="matrix(0.9174 -0.3979 0.3979 0.9174 -911.9641 458.4574)" class="st2" width="96" height="96"/>
		
			<rect x="147.51" y="2783.1" transform="matrix(0.9174 -0.3979 0.3979 0.9174 -1110.4205 311.5954)" class="st2" width="96" height="96"/>
		
			<rect x="273.49" y="2832.01" transform="matrix(0.9174 -0.3979 0.3979 0.9174 -1119.4788 365.7649)" class="st2" width="96" height="96"/>
		
			<rect x="323.86" y="2706.61" transform="matrix(0.9174 -0.3979 0.3979 0.9174 -1065.4176 375.4536)" class="st2" width="96" height="96"/>
		
			<rect x="449.84" y="2755.52" transform="matrix(0.9174 -0.3979 0.3979 0.9174 -1074.4768 429.6237)" class="st2" width="96" height="96"/>
		
			<rect x="500.22" y="2630.12" transform="matrix(0.9174 -0.3979 0.3979 0.9174 -1020.4166 439.3129)" class="st2" width="96" height="96"/>
		
			<rect x="626.2" y="2679.03" transform="matrix(0.9174 -0.3979 0.3979 0.9174 -1029.4747 493.4824)" class="st2" width="96" height="96"/>
		
			<rect x="676.57" y="2553.62" transform="matrix(0.9174 -0.3979 0.3979 0.9174 -975.4146 503.1717)" class="st2" width="96" height="96"/>
	</g>
	<g class="st1">
		
			<rect x="650.73" y="2252.17" transform="matrix(0.9174 -0.3979 0.3979 0.9174 -857.5934 467.9931)" class="st2" width="96" height="96"/>
		
			<rect x="701.1" y="2126.77" transform="matrix(0.9174 -0.3979 0.3979 0.9174 -803.5317 477.6809)" class="st2" width="96" height="96"/>
		
			<rect x="827.08" y="2175.68" transform="matrix(0.9174 -0.3979 0.3979 0.9174 -812.5907 531.8511)" class="st2" width="96" height="96"/>
		
			<rect x="877.46" y="2050.28" transform="matrix(0.9174 -0.3979 0.3979 0.9174 -758.5313 541.5412)" class="st2" width="96" height="96"/>
		
			<rect x="1003.44" y="2099.19" transform="matrix(0.9174 -0.3979 0.3979 0.9174 -767.5895 595.7107)" class="st2" width="96" height="96"/>
		
			<rect x="1053.81" y="1973.79" transform="matrix(0.9174 -0.3979 0.3979 0.9174 -713.5287 605.3992)" class="st2" width="96" height="96"/>
		
			<rect x="726.73" y="2427.4" transform="matrix(0.9174 -0.3979 0.3979 0.9174 -921.0433 512.7068)" class="st2" width="96" height="96"/>
		
			<rect x="777.11" y="2302" transform="matrix(0.9174 -0.3979 0.3979 0.9174 -866.9839 522.3968)" class="st2" width="96" height="96"/>
		
			<rect x="903.08" y="2350.91" transform="matrix(0.9174 -0.3979 0.3979 0.9174 -876.0421 576.5663)" class="st2" width="96" height="96"/>
		
			<rect x="953.46" y="2225.51" transform="matrix(0.9174 -0.3979 0.3979 0.9174 -821.9813 586.2549)" class="st2" width="96" height="96"/>
		
			<rect x="1079.44" y="2274.41" transform="matrix(0.9174 -0.3979 0.3979 0.9174 -831.0401 640.425)" class="st2" width="96" height="96"/>
		
			<rect x="1129.81" y="2149.01" transform="matrix(0.9174 -0.3979 0.3979 0.9174 -776.98 650.1144)" class="st2" width="96" height="96"/>
		
			<rect x="802.73" y="2602.63" transform="matrix(0.9174 -0.3979 0.3979 0.9174 -984.4948 557.4219)" class="st2" width="96" height="96"/>
		
			<rect x="853.11" y="2477.23" transform="matrix(0.9174 -0.3979 0.3979 0.9174 -930.4337 567.1104)" class="st2" width="96" height="96"/>
		
			<rect x="979.09" y="2526.13" transform="matrix(0.9174 -0.3979 0.3979 0.9174 -939.4927 621.2807)" class="st2" width="96" height="96"/>
		
			<rect x="1029.46" y="2400.73" transform="matrix(0.9174 -0.3979 0.3979 0.9174 -885.4325 630.9699)" class="st2" width="96" height="96"/>
		
			<rect x="1155.44" y="2449.64" transform="matrix(0.9174 -0.3979 0.3979 0.9174 -894.4907 685.1395)" class="st2" width="96" height="96"/>
		
			<rect x="1205.82" y="2324.24" transform="matrix(0.9174 -0.3979 0.3979 0.9174 -840.4305 694.8287)" class="st2" width="96" height="96"/>
	</g>
	<g class="st1">
		
			<rect x="1179.56" y="2023.15" transform="matrix(0.9174 -0.3979 0.3979 0.9174 -722.7891 659.5156)" class="st2" width="96" height="96"/>
		
			<rect x="1229.93" y="1897.75" transform="matrix(0.9174 -0.3979 0.3979 0.9174 -668.7277 669.2031)" class="st2" width="96" height="96"/>
		
			<rect x="1355.91" y="1946.66" transform="matrix(0.9174 -0.3979 0.3979 0.9174 -677.7865 723.3735)" class="st2" width="96" height="96"/>
		
			<rect x="1406.29" y="1821.26" transform="matrix(0.9174 -0.3979 0.3979 0.9174 -623.7269 733.0637)" class="st2" width="96" height="96"/>
		
			<rect x="1532.27" y="1870.17" transform="matrix(0.9174 -0.3979 0.3979 0.9174 -632.7851 787.2332)" class="st2" width="96" height="96"/>
		
			<rect x="1582.64" y="1744.77" transform="matrix(0.9174 -0.3979 0.3979 0.9174 -578.7244 796.9215)" class="st2" width="96" height="96"/>
		
			<rect x="1255.56" y="2198.38" transform="matrix(0.9174 -0.3979 0.3979 0.9174 -786.2391 704.2292)" class="st2" width="96" height="96"/>
		
			<rect x="1305.94" y="2072.98" transform="matrix(0.9174 -0.3979 0.3979 0.9174 -732.1795 713.9193)" class="st2" width="96" height="96"/>
		
			<rect x="1431.92" y="2121.89" transform="matrix(0.9174 -0.3979 0.3979 0.9174 -741.2377 768.0888)" class="st2" width="96" height="96"/>
		
			<rect x="1482.29" y="1996.49" transform="matrix(0.9174 -0.3979 0.3979 0.9174 -687.177 777.7772)" class="st2" width="96" height="96"/>
		
			<rect x="1608.27" y="2045.4" transform="matrix(0.9174 -0.3979 0.3979 0.9174 -696.2357 831.9476)" class="st2" width="96" height="96"/>
		
			<rect x="1658.64" y="1919.99" transform="matrix(0.9174 -0.3979 0.3979 0.9174 -642.1755 841.637)" class="st2" width="96" height="96"/>
		
			<rect x="1331.57" y="2373.61" transform="matrix(0.9174 -0.3979 0.3979 0.9174 -849.6903 748.9444)" class="st2" width="96" height="96"/>
		
			<rect x="1381.94" y="2248.21" transform="matrix(0.9174 -0.3979 0.3979 0.9174 -795.6295 758.6328)" class="st2" width="96" height="96"/>
		
			<rect x="1507.92" y="2297.11" transform="matrix(0.9174 -0.3979 0.3979 0.9174 -804.6883 812.8032)" class="st2" width="96" height="96"/>
		
			<rect x="1558.29" y="2171.71" transform="matrix(0.9174 -0.3979 0.3979 0.9174 -750.6281 822.4924)" class="st2" width="96" height="96"/>
		
			<rect x="1684.27" y="2220.62" transform="matrix(0.9174 -0.3979 0.3979 0.9174 -759.6863 876.6619)" class="st2" width="96" height="96"/>
		
			<rect x="1734.65" y="2095.22" transform="matrix(0.9174 -0.3979 0.3979 0.9174 -705.6261 886.3512)" class="st2" width="96" height="96"/>
	</g>
	<g class="st1">
		
			<rect x="47.47" y="3034.79" transform="matrix(0.9174 -0.3979 0.3979 0.9174 -1218.834 292.573)" class="st2" width="96" height="96"/>
		
			<rect x="173.45" y="3083.7" transform="matrix(0.9174 -0.3979 0.3979 0.9174 -1227.8921 346.7425)" class="st2" width="96" height="96"/>
		
			<rect x="223.83" y="2958.3" transform="matrix(0.9174 -0.3979 0.3979 0.9174 -1173.8293 356.4304)" class="st2" width="96" height="96"/>
		
			<rect x="349.81" y="3007.2" transform="matrix(0.9174 -0.3979 0.3979 0.9174 -1182.8889 410.6006)" class="st2" width="96" height="96"/>
		
			<rect x="400.18" y="2881.8" transform="matrix(0.9174 -0.3979 0.3979 0.9174 -1128.83 420.2906)" class="st2" width="96" height="96"/>
		
			<rect x="526.16" y="2930.71" transform="matrix(0.9174 -0.3979 0.3979 0.9174 -1137.8882 474.4601)" class="st2" width="96" height="96"/>
		
			<rect x="576.53" y="2805.31" transform="matrix(0.9174 -0.3979 0.3979 0.9174 -1083.8269 484.1486)" class="st2" width="96" height="96"/>
		
			<rect x="123.48" y="3210.01" transform="matrix(0.9174 -0.3979 0.3979 0.9174 -1282.2845 337.2874)" class="st2" width="96" height="96"/>
		
			<rect x="249.46" y="3258.92" transform="matrix(0.9174 -0.3979 0.3979 0.9174 -1291.3416 391.4563)" class="st2" width="96" height="96"/>
		
			<rect x="299.83" y="3133.52" transform="matrix(0.9174 -0.3979 0.3979 0.9174 -1237.2826 401.1462)" class="st2" width="96" height="96"/>
		
			<rect x="425.81" y="3182.43" transform="matrix(0.9174 -0.3979 0.3979 0.9174 -1246.3408 455.3157)" class="st2" width="96" height="96"/>
		
			<rect x="476.18" y="3057.03" transform="matrix(0.9174 -0.3979 0.3979 0.9174 -1192.2795 465.0043)" class="st2" width="96" height="96"/>
		
			<rect x="602.16" y="3105.94" transform="matrix(0.9174 -0.3979 0.3979 0.9174 -1201.3387 519.1744)" class="st2" width="96" height="96"/>
		
			<rect x="652.54" y="2980.54" transform="matrix(0.9174 -0.3979 0.3979 0.9174 -1147.2787 528.8638)" class="st2" width="96" height="96"/>
		
			<rect x="199.48" y="3385.24" transform="matrix(0.9174 -0.3979 0.3979 0.9174 -1345.7352 382.0018)" class="st2" width="96" height="96"/>
		
			<rect x="325.46" y="3434.15" transform="matrix(0.9174 -0.3979 0.3979 0.9174 -1354.7933 436.1713)" class="st2" width="96" height="96"/>
		
			<rect x="375.83" y="3308.75" transform="matrix(0.9174 -0.3979 0.3979 0.9174 -1300.7319 445.8598)" class="st2" width="96" height="96"/>
		
			<rect x="501.81" y="3357.66" transform="matrix(0.9174 -0.3979 0.3979 0.9174 -1309.7914 500.0301)" class="st2" width="96" height="96"/>
		
			<rect x="552.19" y="3232.26" transform="matrix(0.9174 -0.3979 0.3979 0.9174 -1255.7312 509.7193)" class="st2" width="96" height="96"/>
		
			<rect x="678.17" y="3281.17" transform="matrix(0.9174 -0.3979 0.3979 0.9174 -1264.7893 563.8889)" class="st2" width="96" height="96"/>
		
			<rect x="728.54" y="3155.76" transform="matrix(0.9174 -0.3979 0.3979 0.9174 -1210.7291 573.5781)" class="st2" width="96" height="96"/>
	</g>
	<g class="st1">
		
			<rect x="702.7" y="2854.31" transform="matrix(0.9174 -0.3979 0.3979 0.9174 -1092.9081 538.3995)" class="st2" width="96" height="96"/>
		
			<rect x="753.07" y="2728.91" transform="matrix(0.9174 -0.3979 0.3979 0.9174 -1038.8457 548.087)" class="st2" width="96" height="96"/>
		
			<rect x="879.05" y="2777.82" transform="matrix(0.9174 -0.3979 0.3979 0.9174 -1047.905 602.2574)" class="st2" width="96" height="96"/>
		
			<rect x="929.43" y="2652.42" transform="matrix(0.9174 -0.3979 0.3979 0.9174 -993.8459 611.9476)" class="st2" width="96" height="96"/>
		
			<rect x="1055.41" y="2701.33" transform="matrix(0.9174 -0.3979 0.3979 0.9174 -1002.9041 666.1171)" class="st2" width="96" height="96"/>
		
			<rect x="1105.78" y="2575.93" transform="matrix(0.9174 -0.3979 0.3979 0.9174 -948.8431 675.8055)" class="st2" width="96" height="96"/>
		
			<rect x="778.7" y="3029.54" transform="matrix(0.9174 -0.3979 0.3979 0.9174 -1156.3577 583.1131)" class="st2" width="96" height="96"/>
		
			<rect x="829.08" y="2904.14" transform="matrix(0.9174 -0.3979 0.3979 0.9174 -1102.2986 592.8032)" class="st2" width="96" height="96"/>
		
			<rect x="955.06" y="2953.05" transform="matrix(0.9174 -0.3979 0.3979 0.9174 -1111.3567 646.9727)" class="st2" width="96" height="96"/>
		
			<rect x="1005.43" y="2827.65" transform="matrix(0.9174 -0.3979 0.3979 0.9174 -1057.2957 656.6612)" class="st2" width="96" height="96"/>
		
			<rect x="1131.41" y="2876.55" transform="matrix(0.9174 -0.3979 0.3979 0.9174 -1066.3547 710.8315)" class="st2" width="96" height="96"/>
		
			<rect x="1181.78" y="2751.15" transform="matrix(0.9174 -0.3979 0.3979 0.9174 -1012.2946 720.5209)" class="st2" width="96" height="96"/>
		
			<rect x="854.71" y="3204.77" transform="matrix(0.9174 -0.3979 0.3979 0.9174 -1219.8093 627.8283)" class="st2" width="96" height="96"/>
		
			<rect x="905.08" y="3079.36" transform="matrix(0.9174 -0.3979 0.3979 0.9174 -1165.7482 637.5167)" class="st2" width="96" height="96"/>
		
			<rect x="1031.06" y="3128.27" transform="matrix(0.9174 -0.3979 0.3979 0.9174 -1174.8074 691.6871)" class="st2" width="96" height="96"/>
		
			<rect x="1081.43" y="3002.87" transform="matrix(0.9174 -0.3979 0.3979 0.9174 -1120.7471 701.3763)" class="st2" width="96" height="96"/>
		
			<rect x="1207.41" y="3051.78" transform="matrix(0.9174 -0.3979 0.3979 0.9174 -1129.8053 755.5458)" class="st2" width="96" height="96"/>
		
			<rect x="1257.79" y="2926.38" transform="matrix(0.9174 -0.3979 0.3979 0.9174 -1075.7451 765.2351)" class="st2" width="96" height="96"/>
	</g>
	<g class="st1">
		
			<rect x="1231.53" y="2625.29" transform="matrix(0.9174 -0.3979 0.3979 0.9174 -958.1036 729.922)" class="st2" width="96" height="96"/>
		
			<rect x="1281.9" y="2499.89" transform="matrix(0.9174 -0.3979 0.3979 0.9174 -904.0417 739.6092)" class="st2" width="96" height="96"/>
		
			<rect x="1407.88" y="2548.8" transform="matrix(0.9174 -0.3979 0.3979 0.9174 -913.1008 793.7797)" class="st2" width="96" height="96"/>
		
			<rect x="1458.26" y="2423.4" transform="matrix(0.9174 -0.3979 0.3979 0.9174 -859.0414 803.4701)" class="st2" width="96" height="96"/>
		
			<rect x="1584.24" y="2472.31" transform="matrix(0.9174 -0.3979 0.3979 0.9174 -868.0997 857.6396)" class="st2" width="96" height="96"/>
		
			<rect x="1634.61" y="2346.91" transform="matrix(0.9174 -0.3979 0.3979 0.9174 -814.0388 867.3278)" class="st2" width="96" height="96"/>
		
			<rect x="1307.53" y="2800.52" transform="matrix(0.9174 -0.3979 0.3979 0.9174 -1021.5535 774.6354)" class="st2" width="96" height="96"/>
		
			<rect x="1357.91" y="2675.12" transform="matrix(0.9174 -0.3979 0.3979 0.9174 -967.4941 784.3257)" class="st2" width="96" height="96"/>
		
			<rect x="1483.89" y="2724.03" transform="matrix(0.9174 -0.3979 0.3979 0.9174 -976.5523 838.4952)" class="st2" width="96" height="96"/>
		
			<rect x="1534.26" y="2598.63" transform="matrix(0.9174 -0.3979 0.3979 0.9174 -922.4915 848.1835)" class="st2" width="96" height="96"/>
		
			<rect x="1660.24" y="2647.53" transform="matrix(0.9174 -0.3979 0.3979 0.9174 -931.5503 902.3539)" class="st2" width="96" height="96"/>
		
			<rect x="1710.62" y="2522.13" transform="matrix(0.9174 -0.3979 0.3979 0.9174 -877.4902 912.0434)" class="st2" width="96" height="96"/>
		
			<rect x="1383.54" y="2975.75" transform="matrix(0.9174 -0.3979 0.3979 0.9174 -1085.0049 819.3508)" class="st2" width="96" height="96"/>
		
			<rect x="1433.91" y="2850.35" transform="matrix(0.9174 -0.3979 0.3979 0.9174 -1030.9438 829.039)" class="st2" width="96" height="96"/>
		
			<rect x="1559.89" y="2899.25" transform="matrix(0.9174 -0.3979 0.3979 0.9174 -1040.0029 883.2096)" class="st2" width="96" height="96"/>
		
			<rect x="1610.26" y="2773.85" transform="matrix(0.9174 -0.3979 0.3979 0.9174 -985.9427 892.8988)" class="st2" width="96" height="96"/>
		
			<rect x="1736.24" y="2822.76" transform="matrix(0.9174 -0.3979 0.3979 0.9174 -995.0009 947.0684)" class="st2" width="96" height="96"/>
		
			<rect x="1786.62" y="2697.36" transform="matrix(0.9174 -0.3979 0.3979 0.9174 -940.9407 956.7576)" class="st2" width="96" height="96"/>
		
			<rect x="1685.71" y="2948.42" transform="matrix(0.9174 -0.3979 0.3979 0.9174 -1049.1765 937.3351)" class="st2" width="96" height="96"/>
		
			<rect x="1862.71" y="2871.42" transform="matrix(0.9174 -0.3979 0.3979 0.9174 -1003.9193 1001.4091)" class="st2" width="96" height="96"/>
	</g>
	<g class="st1">
		
			<rect x="-533.15" y="2661.93" transform="matrix(0.9174 -0.3979 0.3979 0.9174 -1118.4146 30.7369)" class="st2" width="96" height="96"/>
		
			<rect x="-407.17" y="2710.84" transform="matrix(0.9174 -0.3979 0.3979 0.9174 -1127.4727 84.9064)" class="st2" width="96" height="96"/>
		
			<rect x="-356.8" y="2585.44" transform="matrix(0.9174 -0.3979 0.3979 0.9174 -1073.41 94.5949)" class="st2" width="96" height="96"/>
		
			<rect x="-230.82" y="2634.35" transform="matrix(0.9174 -0.3979 0.3979 0.9174 -1082.4695 148.7647)" class="st2" width="96" height="96"/>
		
			<rect x="-180.44" y="2508.95" transform="matrix(0.9174 -0.3979 0.3979 0.9174 -1028.4105 158.4544)" class="st2" width="96" height="96"/>
		
			<rect x="-54.46" y="2557.86" transform="matrix(0.9174 -0.3979 0.3979 0.9174 -1037.4688 212.6239)" class="st2" width="96" height="96"/>
		
			<rect x="-457.15" y="2837.16" transform="matrix(0.9174 -0.3979 0.3979 0.9174 -1181.8651 75.4513)" class="st2" width="96" height="96"/>
		
			<rect x="-331.17" y="2886.07" transform="matrix(0.9174 -0.3979 0.3979 0.9174 -1190.9221 129.6204)" class="st2" width="96" height="96"/>
		
			<rect x="-280.79" y="2760.67" transform="matrix(0.9174 -0.3979 0.3979 0.9174 -1136.8632 139.31)" class="st2" width="96" height="96"/>
		
			<rect x="-154.81" y="2809.58" transform="matrix(0.9174 -0.3979 0.3979 0.9174 -1145.9213 193.4795)" class="st2" width="96" height="96"/>
		
			<rect x="-104.44" y="2684.17" transform="matrix(0.9174 -0.3979 0.3979 0.9174 -1091.8602 203.1684)" class="st2" width="96" height="96"/>
		
			<rect x="21.54" y="2733.08" transform="matrix(0.9174 -0.3979 0.3979 0.9174 -1100.9193 257.3383)" class="st2" width="96" height="96"/>
		
			<rect x="-381.14" y="3012.39" transform="matrix(0.9174 -0.3979 0.3979 0.9174 -1245.3158 120.1656)" class="st2" width="96" height="96"/>
		
			<rect x="-255.16" y="3061.29" transform="matrix(0.9174 -0.3979 0.3979 0.9174 -1254.3739 174.3351)" class="st2" width="96" height="96"/>
		
			<rect x="-204.79" y="2935.89" transform="matrix(0.9174 -0.3979 0.3979 0.9174 -1200.3126 184.024)" class="st2" width="96" height="96"/>
		
			<rect x="-78.81" y="2984.8" transform="matrix(0.9174 -0.3979 0.3979 0.9174 -1209.3719 238.1939)" class="st2" width="96" height="96"/>
		
			<rect x="-28.44" y="2859.4" transform="matrix(0.9174 -0.3979 0.3979 0.9174 -1155.3118 247.8831)" class="st2" width="96" height="96"/>
		
			<rect x="97.54" y="2908.31" transform="matrix(0.9174 -0.3979 0.3979 0.9174 -1164.3699 302.0527)" class="st2" width="96" height="96"/>
	</g>
	<g class="st1">
		
			<rect x="-585.3" y="2059.74" transform="matrix(0.9174 -0.3979 0.3979 0.9174 -883.0919 -39.7455)" class="st2" width="96" height="96"/>
		
			<rect x="-459.32" y="2108.64" transform="matrix(0.9174 -0.3979 0.3979 0.9174 -892.1501 14.4241)" class="st2" width="96" height="96"/>
		
			<rect x="-408.95" y="1983.24" transform="matrix(0.9174 -0.3979 0.3979 0.9174 -838.088 24.1128)" class="st2" width="96" height="96"/>
		
			<rect x="-282.97" y="2032.15" transform="matrix(0.9174 -0.3979 0.3979 0.9174 -847.1472 78.2825)" class="st2" width="96" height="96"/>
		
			<rect x="-232.59" y="1906.75" transform="matrix(0.9174 -0.3979 0.3979 0.9174 -793.0879 87.9721)" class="st2" width="96" height="96"/>
		
			<rect x="-106.61" y="1955.66" transform="matrix(0.9174 -0.3979 0.3979 0.9174 -802.1461 142.1416)" class="st2" width="96" height="96"/>
		
			<rect x="-509.3" y="2234.96" transform="matrix(0.9174 -0.3979 0.3979 0.9174 -946.5425 4.9689)" class="st2" width="96" height="96"/>
		
			<rect x="-383.32" y="2283.87" transform="matrix(0.9174 -0.3979 0.3979 0.9174 -955.5999 59.1382)" class="st2" width="96" height="96"/>
		
			<rect x="-332.94" y="2158.47" transform="matrix(0.9174 -0.3979 0.3979 0.9174 -901.5405 68.8277)" class="st2" width="96" height="96"/>
		
			<rect x="-206.96" y="2207.38" transform="matrix(0.9174 -0.3979 0.3979 0.9174 -910.5988 122.9972)" class="st2" width="96" height="96"/>
		
			<rect x="-156.59" y="2081.98" transform="matrix(0.9174 -0.3979 0.3979 0.9174 -856.5378 132.6862)" class="st2" width="96" height="96"/>
		
			<rect x="-30.61" y="2130.89" transform="matrix(0.9174 -0.3979 0.3979 0.9174 -865.5967 186.856)" class="st2" width="96" height="96"/>
		
			<rect x="-433.29" y="2410.19" transform="matrix(0.9174 -0.3979 0.3979 0.9174 -1009.9932 49.6833)" class="st2" width="96" height="96"/>
		
			<rect x="-307.31" y="2459.1" transform="matrix(0.9174 -0.3979 0.3979 0.9174 -1019.0514 103.8528)" class="st2" width="96" height="96"/>
		
			<rect x="-256.94" y="2333.7" transform="matrix(0.9174 -0.3979 0.3979 0.9174 -964.9902 113.5417)" class="st2" width="96" height="96"/>
		
			<rect x="-130.96" y="2382.61" transform="matrix(0.9174 -0.3979 0.3979 0.9174 -974.0494 167.7116)" class="st2" width="96" height="96"/>
		
			<rect x="-80.59" y="2257.2" transform="matrix(0.9174 -0.3979 0.3979 0.9174 -919.9891 177.4008)" class="st2" width="96" height="96"/>
		
			<rect x="45.39" y="2306.11" transform="matrix(0.9174 -0.3979 0.3979 0.9174 -929.0474 231.5703)" class="st2" width="96" height="96"/>
	</g>
	<g class="st1">
		
			<rect x="-636.44" y="1458.98" transform="matrix(0.9174 -0.3979 0.3979 0.9174 -648.2584 -109.7061)" class="st2" width="96" height="96"/>
		
			<rect x="-510.46" y="1507.89" transform="matrix(0.9174 -0.3979 0.3979 0.9174 -657.3165 -55.5366)" class="st2" width="96" height="96"/>
		
			<rect x="-460.08" y="1382.49" transform="matrix(0.9174 -0.3979 0.3979 0.9174 -603.2549 -45.8475)" class="st2" width="96" height="96"/>
		
			<rect x="-334.1" y="1431.39" transform="matrix(0.9174 -0.3979 0.3979 0.9174 -612.3139 8.322)" class="st2" width="96" height="96"/>
		
			<rect x="-283.73" y="1305.99" transform="matrix(0.9174 -0.3979 0.3979 0.9174 -558.2543 18.0114)" class="st2" width="96" height="96"/>
		
			<rect x="-157.75" y="1354.9" transform="matrix(0.9174 -0.3979 0.3979 0.9174 -567.3126 72.1809)" class="st2" width="96" height="96"/>
		
			<rect x="-560.43" y="1634.21" transform="matrix(0.9174 -0.3979 0.3979 0.9174 -711.709 -64.9917)" class="st2" width="96" height="96"/>
		
			<rect x="-434.45" y="1683.11" transform="matrix(0.9174 -0.3979 0.3979 0.9174 -720.7665 -10.8224)" class="st2" width="96" height="96"/>
		
			<rect x="-384.08" y="1557.71" transform="matrix(0.9174 -0.3979 0.3979 0.9174 -666.707 -1.133)" class="st2" width="96" height="96"/>
		
			<rect x="-258.1" y="1606.62" transform="matrix(0.9174 -0.3979 0.3979 0.9174 -675.7652 53.0365)" class="st2" width="96" height="96"/>
		
			<rect x="-207.73" y="1481.22" transform="matrix(0.9174 -0.3979 0.3979 0.9174 -621.7044 62.7256)" class="st2" width="96" height="96"/>
		
			<rect x="-81.75" y="1530.13" transform="matrix(0.9174 -0.3979 0.3979 0.9174 -630.7632 116.8953)" class="st2" width="96" height="96"/>
		
			<rect x="-484.43" y="1809.43" transform="matrix(0.9174 -0.3979 0.3979 0.9174 -775.1596 -20.2774)" class="st2" width="96" height="96"/>
		
			<rect x="-358.45" y="1858.34" transform="matrix(0.9174 -0.3979 0.3979 0.9174 -784.2178 33.8921)" class="st2" width="96" height="96"/>
		
			<rect x="-308.08" y="1732.94" transform="matrix(0.9174 -0.3979 0.3979 0.9174 -730.1569 43.5812)" class="st2" width="96" height="96"/>
		
			<rect x="-182.1" y="1781.85" transform="matrix(0.9174 -0.3979 0.3979 0.9174 -739.2158 97.7509)" class="st2" width="96" height="96"/>
		
			<rect x="-131.72" y="1656.45" transform="matrix(0.9174 -0.3979 0.3979 0.9174 -685.1556 107.4402)" class="st2" width="96" height="96"/>
		
			<rect x="-5.74" y="1705.36" transform="matrix(0.9174 -0.3979 0.3979 0.9174 -694.2138 161.6097)" class="st2" width="96" height="96"/>
	</g>
	<g class="st1">
		
			<rect x="-689.08" y="855.73" transform="matrix(0.9174 -0.3979 0.3979 0.9174 -412.5569 -180.4724)" class="st2" width="96" height="96"/>
		
			<rect x="-563.1" y="904.64" transform="matrix(0.9174 -0.3979 0.3979 0.9174 -421.6151 -126.3029)" class="st2" width="96" height="96"/>
		
			<rect x="-512.73" y="779.23" transform="matrix(0.9174 -0.3979 0.3979 0.9174 -367.554 -116.6136)" class="st2" width="96" height="96"/>
		
			<rect x="-386.75" y="828.14" transform="matrix(0.9174 -0.3979 0.3979 0.9174 -376.6127 -62.4442)" class="st2" width="96" height="96"/>
		
			<rect x="-336.37" y="702.74" transform="matrix(0.9174 -0.3979 0.3979 0.9174 -322.5529 -52.7549)" class="st2" width="96" height="96"/>
		
			<rect x="-210.39" y="751.65" transform="matrix(0.9174 -0.3979 0.3979 0.9174 -331.6111 1.4146)" class="st2" width="96" height="96"/>
		
			<rect x="-613.08" y="1030.95" transform="matrix(0.9174 -0.3979 0.3979 0.9174 -476.0076 -135.758)" class="st2" width="96" height="96"/>
		
			<rect x="-487.1" y="1079.86" transform="matrix(0.9174 -0.3979 0.3979 0.9174 -485.0653 -81.5885)" class="st2" width="96" height="96"/>
		
			<rect x="-436.73" y="954.46" transform="matrix(0.9174 -0.3979 0.3979 0.9174 -431.0056 -71.8993)" class="st2" width="96" height="96"/>
		
			<rect x="-310.75" y="1003.37" transform="matrix(0.9174 -0.3979 0.3979 0.9174 -440.0638 -17.7298)" class="st2" width="96" height="96"/>
		
			<rect x="-260.37" y="877.97" transform="matrix(0.9174 -0.3979 0.3979 0.9174 -386.0032 -8.0406)" class="st2" width="96" height="96"/>
		
			<rect x="-134.39" y="926.88" transform="matrix(0.9174 -0.3979 0.3979 0.9174 -395.0617 46.129)" class="st2" width="96" height="96"/>
		
			<rect x="-537.08" y="1206.18" transform="matrix(0.9174 -0.3979 0.3979 0.9174 -539.4582 -91.0436)" class="st2" width="96" height="96"/>
		
			<rect x="-411.1" y="1255.09" transform="matrix(0.9174 -0.3979 0.3979 0.9174 -548.5164 -36.8742)" class="st2" width="96" height="96"/>
		
			<rect x="-360.72" y="1129.69" transform="matrix(0.9174 -0.3979 0.3979 0.9174 -494.4557 -27.185)" class="st2" width="96" height="96"/>
		
			<rect x="-234.74" y="1178.6" transform="matrix(0.9174 -0.3979 0.3979 0.9174 -503.5144 26.9846)" class="st2" width="96" height="96"/>
		
			<rect x="-184.37" y="1053.2" transform="matrix(0.9174 -0.3979 0.3979 0.9174 -449.4542 36.6739)" class="st2" width="96" height="96"/>
		
			<rect x="-58.39" y="1102.1" transform="matrix(0.9174 -0.3979 0.3979 0.9174 -458.5124 90.8434)" class="st2" width="96" height="96"/>
	</g>
	<g class="st1">
		
			<rect x="1605.84" y="589.47" transform="matrix(0.9174 -0.3979 0.3979 0.9174 -117.0863 710.7453)" class="st2" width="96" height="96"/>
		
			<rect x="1656.21" y="464.07" transform="matrix(0.9174 -0.3979 0.3979 0.9174 -63.0263 720.4329)" class="st2" width="96" height="96"/>
		
			<rect x="1782.19" y="512.98" transform="matrix(0.9174 -0.3979 0.3979 0.9174 -72.0844 774.6032)" class="st2" width="96" height="96"/>
		
			<rect x="1832.56" y="387.57" transform="matrix(0.9174 -0.3979 0.3979 0.9174 -18.0241 784.2933)" class="st2" width="96" height="96"/>
		
			<rect x="1958.54" y="436.48" transform="matrix(0.9174 -0.3979 0.3979 0.9174 -27.0824 838.4628)" class="st2" width="96" height="96"/>
		
			<rect x="2008.92" y="311.08" transform="matrix(0.9174 -0.3979 0.3979 0.9174 26.9777 848.1512)" class="st2" width="96" height="96"/>
		
			<rect x="1681.84" y="764.69" transform="matrix(0.9174 -0.3979 0.3979 0.9174 -180.537 755.4589)" class="st2" width="96" height="96"/>
		
			<rect x="1732.21" y="639.29" transform="matrix(0.9174 -0.3979 0.3979 0.9174 -126.4768 765.1489)" class="st2" width="96" height="96"/>
		
			<rect x="1858.19" y="688.2" transform="matrix(0.9174 -0.3979 0.3979 0.9174 -135.535 819.3184)" class="st2" width="96" height="96"/>
		
			<rect x="1908.57" y="562.8" transform="matrix(0.9174 -0.3979 0.3979 0.9174 -81.4748 829.007)" class="st2" width="96" height="96"/>
		
			<rect x="2034.55" y="611.71" transform="matrix(0.9174 -0.3979 0.3979 0.9174 -90.533 883.1772)" class="st2" width="96" height="96"/>
		
			<rect x="2084.92" y="486.31" transform="matrix(0.9174 -0.3979 0.3979 0.9174 -36.4727 892.8666)" class="st2" width="96" height="96"/>
		
			<rect x="1757.84" y="939.92" transform="matrix(0.9174 -0.3979 0.3979 0.9174 -243.9876 800.1741)" class="st2" width="96" height="96"/>
		
			<rect x="1808.22" y="814.52" transform="matrix(0.9174 -0.3979 0.3979 0.9174 -189.9274 809.8625)" class="st2" width="96" height="96"/>
		
			<rect x="1934.2" y="863.43" transform="matrix(0.9174 -0.3979 0.3979 0.9174 -198.9856 864.0328)" class="st2" width="96" height="96"/>
		
			<rect x="1984.57" y="738.03" transform="matrix(0.9174 -0.3979 0.3979 0.9174 -144.9254 873.722)" class="st2" width="96" height="96"/>
		
			<rect x="2110.55" y="786.94" transform="matrix(0.9174 -0.3979 0.3979 0.9174 -153.9836 927.8916)" class="st2" width="96" height="96"/>
		
			<rect x="2160.93" y="661.54" transform="matrix(0.9174 -0.3979 0.3979 0.9174 -99.9234 937.5808)" class="st2" width="96" height="96"/>
	</g>
	<g class="st1">
		
			<rect x="1554.37" y="-12.52" transform="matrix(0.9174 -0.3979 0.3979 0.9174 118.21 640.5525)" class="st2" width="96" height="96"/>
		
			<rect x="1604.75" y="-137.92" transform="matrix(0.9174 -0.3979 0.3979 0.9174 172.2695 650.2404)" class="st2" width="96" height="96"/>
		
			<rect x="1730.72" y="-89.01" transform="matrix(0.9174 -0.3979 0.3979 0.9174 163.2117 704.4106)" class="st2" width="96" height="96"/>
		
			<rect x="1781.1" y="-214.41" transform="matrix(0.9174 -0.3979 0.3979 0.9174 217.2722 714.1006)" class="st2" width="96" height="96"/>
		
			<rect x="1907.08" y="-165.51" transform="matrix(0.9174 -0.3979 0.3979 0.9174 208.214 768.2701)" class="st2" width="96" height="96"/>
		
			<rect x="1957.45" y="-290.91" transform="matrix(0.9174 -0.3979 0.3979 0.9174 262.2738 777.9586)" class="st2" width="96" height="96"/>
		
			<rect x="1630.37" y="162.71" transform="matrix(0.9174 -0.3979 0.3979 0.9174 54.7592 685.2662)" class="st2" width="96" height="96"/>
		
			<rect x="1680.75" y="37.3" transform="matrix(0.9174 -0.3979 0.3979 0.9174 108.8196 694.9562)" class="st2" width="96" height="96"/>
		
			<rect x="1806.73" y="86.21" transform="matrix(0.9174 -0.3979 0.3979 0.9174 99.7614 749.1257)" class="st2" width="96" height="96"/>
		
			<rect x="1857.1" y="-39.19" transform="matrix(0.9174 -0.3979 0.3979 0.9174 153.8214 758.8143)" class="st2" width="96" height="96"/>
		
			<rect x="1983.08" y="9.72" transform="matrix(0.9174 -0.3979 0.3979 0.9174 144.7634 812.9844)" class="st2" width="96" height="96"/>
		
			<rect x="2033.46" y="-115.68" transform="matrix(0.9174 -0.3979 0.3979 0.9174 198.8237 822.6738)" class="st2" width="96" height="96"/>
		
			<rect x="1706.38" y="337.93" transform="matrix(0.9174 -0.3979 0.3979 0.9174 -8.6912 729.9813)" class="st2" width="96" height="96"/>
		
			<rect x="1756.75" y="212.53" transform="matrix(0.9174 -0.3979 0.3979 0.9174 45.3688 739.6698)" class="st2" width="96" height="96"/>
		
			<rect x="1882.73" y="261.44" transform="matrix(0.9174 -0.3979 0.3979 0.9174 36.3108 793.84)" class="st2" width="96" height="96"/>
		
			<rect x="1933.11" y="136.04" transform="matrix(0.9174 -0.3979 0.3979 0.9174 90.371 803.5293)" class="st2" width="96" height="96"/>
		
			<rect x="2059.09" y="184.95" transform="matrix(0.9174 -0.3979 0.3979 0.9174 81.3128 857.6989)" class="st2" width="96" height="96"/>
		
			<rect x="2109.46" y="59.55" transform="matrix(0.9174 -0.3979 0.3979 0.9174 135.373 867.3881)" class="st2" width="96" height="96"/>
	</g>
	<g class="st1">
		
			<rect x="1657.7" y="1192.87" transform="matrix(0.9174 -0.3979 0.3979 0.9174 -352.914 781.2131)" class="st2" width="96" height="96"/>
		
			<rect x="1708.07" y="1067.47" transform="matrix(0.9174 -0.3979 0.3979 0.9174 -298.8535 790.9004)" class="st2" width="96" height="96"/>
		
			<rect x="1834.05" y="1116.38" transform="matrix(0.9174 -0.3979 0.3979 0.9174 -307.9119 845.0709)" class="st2" width="96" height="96"/>
		
			<rect x="1884.43" y="990.98" transform="matrix(0.9174 -0.3979 0.3979 0.9174 -253.8518 854.7612)" class="st2" width="96" height="96"/>
		
			<rect x="2010.41" y="1039.89" transform="matrix(0.9174 -0.3979 0.3979 0.9174 -262.9101 908.9307)" class="st2" width="96" height="96"/>
		
			<rect x="2060.78" y="914.49" transform="matrix(0.9174 -0.3979 0.3979 0.9174 -208.8498 918.619)" class="st2" width="96" height="96"/>
		
			<rect x="1733.7" y="1368.1" transform="matrix(0.9174 -0.3979 0.3979 0.9174 -416.3644 825.9266)" class="st2" width="96" height="96"/>
		
			<rect x="1784.08" y="1242.7" transform="matrix(0.9174 -0.3979 0.3979 0.9174 -362.3045 835.6168)" class="st2" width="96" height="96"/>
		
			<rect x="1910.06" y="1291.61" transform="matrix(0.9174 -0.3979 0.3979 0.9174 -371.3627 889.7863)" class="st2" width="96" height="96"/>
		
			<rect x="1960.43" y="1166.21" transform="matrix(0.9174 -0.3979 0.3979 0.9174 -317.3023 899.4747)" class="st2" width="96" height="96"/>
		
			<rect x="2086.41" y="1215.12" transform="matrix(0.9174 -0.3979 0.3979 0.9174 -326.3607 953.645)" class="st2" width="96" height="96"/>
		
			<rect x="2136.78" y="1089.71" transform="matrix(0.9174 -0.3979 0.3979 0.9174 -272.3004 963.3344)" class="st2" width="96" height="96"/>
		
			<rect x="1809.71" y="1543.33" transform="matrix(0.9174 -0.3979 0.3979 0.9174 -479.8153 870.6418)" class="st2" width="96" height="96"/>
		
			<rect x="1860.08" y="1417.93" transform="matrix(0.9174 -0.3979 0.3979 0.9174 -425.7549 880.3301)" class="st2" width="96" height="96"/>
		
			<rect x="1986.06" y="1466.84" transform="matrix(0.9174 -0.3979 0.3979 0.9174 -434.8133 934.5007)" class="st2" width="96" height="96"/>
		
			<rect x="2036.43" y="1341.43" transform="matrix(0.9174 -0.3979 0.3979 0.9174 -380.7531 944.1899)" class="st2" width="96" height="96"/>
		
			<rect x="2162.41" y="1390.34" transform="matrix(0.9174 -0.3979 0.3979 0.9174 -389.8113 998.3594)" class="st2" width="96" height="96"/>
		
			<rect x="2212.79" y="1264.94" transform="matrix(0.9174 -0.3979 0.3979 0.9174 -335.751 1008.0486)" class="st2" width="96" height="96"/>
	</g>
	<g class="st1">
		
			<rect x="1708.82" y="1793.67" transform="matrix(0.9174 -0.3979 0.3979 0.9174 -587.7628 851.1688)" class="st2" width="96" height="96"/>
		
			<rect x="1759.19" y="1668.26" transform="matrix(0.9174 -0.3979 0.3979 0.9174 -533.7018 860.8558)" class="st2" width="96" height="96"/>
		
			<rect x="1885.17" y="1717.17" transform="matrix(0.9174 -0.3979 0.3979 0.9174 -542.7604 915.0265)" class="st2" width="96" height="96"/>
		
			<rect x="1935.54" y="1591.77" transform="matrix(0.9174 -0.3979 0.3979 0.9174 -488.7006 924.7169)" class="st2" width="96" height="96"/>
		
			<rect x="2061.52" y="1640.68" transform="matrix(0.9174 -0.3979 0.3979 0.9174 -497.7588 978.8864)" class="st2" width="96" height="96"/>
		
			<rect x="2111.9" y="1515.28" transform="matrix(0.9174 -0.3979 0.3979 0.9174 -443.6983 988.5745)" class="st2" width="96" height="96"/>
		
			<rect x="1784.82" y="1968.89" transform="matrix(0.9174 -0.3979 0.3979 0.9174 -651.213 895.8822)" class="st2" width="96" height="96"/>
		
			<rect x="1835.19" y="1843.49" transform="matrix(0.9174 -0.3979 0.3979 0.9174 -597.1532 905.5724)" class="st2" width="96" height="96"/>
		
			<rect x="1961.17" y="1892.4" transform="matrix(0.9174 -0.3979 0.3979 0.9174 -606.2114 959.7419)" class="st2" width="96" height="96"/>
		
			<rect x="2011.55" y="1767" transform="matrix(0.9174 -0.3979 0.3979 0.9174 -552.1509 969.4302)" class="st2" width="96" height="96"/>
		
			<rect x="2137.53" y="1815.91" transform="matrix(0.9174 -0.3979 0.3979 0.9174 -561.2094 1023.6007)" class="st2" width="96" height="96"/>
		
			<rect x="2187.9" y="1690.51" transform="matrix(0.9174 -0.3979 0.3979 0.9174 -507.1492 1033.2902)" class="st2" width="96" height="96"/>
		
			<rect x="1860.82" y="2144.12" transform="matrix(0.9174 -0.3979 0.3979 0.9174 -714.6641 940.5976)" class="st2" width="96" height="96"/>
		
			<rect x="1911.2" y="2018.72" transform="matrix(0.9174 -0.3979 0.3979 0.9174 -660.6033 950.2858)" class="st2" width="96" height="96"/>
		
			<rect x="2037.18" y="2067.63" transform="matrix(0.9174 -0.3979 0.3979 0.9174 -669.662 1004.4564)" class="st2" width="96" height="96"/>
		
			<rect x="2087.55" y="1942.23" transform="matrix(0.9174 -0.3979 0.3979 0.9174 -615.6018 1014.1456)" class="st2" width="96" height="96"/>
		
			<rect x="2213.53" y="1991.13" transform="matrix(0.9174 -0.3979 0.3979 0.9174 -624.66 1068.3151)" class="st2" width="96" height="96"/>
		
			<rect x="2263.91" y="1865.73" transform="matrix(0.9174 -0.3979 0.3979 0.9174 -570.5998 1078.0044)" class="st2" width="96" height="96"/>
	</g>
	<g class="st1">
		
			<rect x="1760.72" y="2397.18" transform="matrix(0.9174 -0.3979 0.3979 0.9174 -823.6296 921.6605)" class="st2" width="96" height="96"/>
		
			<rect x="1811.09" y="2271.78" transform="matrix(0.9174 -0.3979 0.3979 0.9174 -769.5681 931.3472)" class="st2" width="96" height="96"/>
		
			<rect x="1937.07" y="2320.69" transform="matrix(0.9174 -0.3979 0.3979 0.9174 -778.627 985.518)" class="st2" width="96" height="96"/>
		
			<rect x="1987.44" y="2195.28" transform="matrix(0.9174 -0.3979 0.3979 0.9174 -724.5674 995.2086)" class="st2" width="96" height="96"/>
		
			<rect x="2113.42" y="2244.19" transform="matrix(0.9174 -0.3979 0.3979 0.9174 -733.6256 1049.3781)" class="st2" width="96" height="96"/>
		
			<rect x="2163.8" y="2118.79" transform="matrix(0.9174 -0.3979 0.3979 0.9174 -679.5649 1059.066)" class="st2" width="96" height="96"/>
		
			<rect x="1836.72" y="2572.41" transform="matrix(0.9174 -0.3979 0.3979 0.9174 -887.0796 966.3737)" class="st2" width="96" height="96"/>
		
			<rect x="1887.09" y="2447" transform="matrix(0.9174 -0.3979 0.3979 0.9174 -833.0201 976.0641)" class="st2" width="96" height="96"/>
		
			<rect x="2013.07" y="2495.91" transform="matrix(0.9174 -0.3979 0.3979 0.9174 -842.0782 1030.2336)" class="st2" width="96" height="96"/>
		
			<rect x="2063.45" y="2370.51" transform="matrix(0.9174 -0.3979 0.3979 0.9174 -788.0175 1039.9219)" class="st2" width="96" height="96"/>
		
			<rect x="2189.43" y="2419.42" transform="matrix(0.9174 -0.3979 0.3979 0.9174 -797.0762 1094.0924)" class="st2" width="96" height="96"/>
		
			<rect x="2239.8" y="2294.02" transform="matrix(0.9174 -0.3979 0.3979 0.9174 -743.0161 1103.7819)" class="st2" width="96" height="96"/>
		
			<rect x="1912.72" y="2747.63" transform="matrix(0.9174 -0.3979 0.3979 0.9174 -950.5309 1011.0892)" class="st2" width="96" height="96"/>
		
			<rect x="1963.1" y="2622.23" transform="matrix(0.9174 -0.3979 0.3979 0.9174 -896.47 1020.7773)" class="st2" width="96" height="96"/>
		
			<rect x="2089.08" y="2671.14" transform="matrix(0.9174 -0.3979 0.3979 0.9174 -905.5289 1074.948)" class="st2" width="96" height="96"/>
		
			<rect x="2139.45" y="2545.74" transform="matrix(0.9174 -0.3979 0.3979 0.9174 -851.4686 1084.6373)" class="st2" width="96" height="96"/>
		
			<rect x="2265.43" y="2594.65" transform="matrix(0.9174 -0.3979 0.3979 0.9174 -860.5269 1138.8068)" class="st2" width="96" height="96"/>
		
			<rect x="2315.81" y="2469.25" transform="matrix(0.9174 -0.3979 0.3979 0.9174 -806.4666 1148.4961)" class="st2" width="96" height="96"/>
	</g>
	<g class="st1">
		
			<rect x="1932.47" y="2094.85" transform="matrix(0.9174 -0.3979 0.3979 0.9174 -689.1426 965.0382)" class="st2" width="96" height="96"/>
		
			<rect x="1982.84" y="1969.45" transform="matrix(0.9174 -0.3979 0.3979 0.9174 -635.0814 974.725)" class="st2" width="96" height="96"/>
		
			<rect x="2108.82" y="2018.36" transform="matrix(0.9174 -0.3979 0.3979 0.9174 -644.1401 1028.8958)" class="st2" width="96" height="96"/>
		
			<rect x="2159.2" y="1892.96" transform="matrix(0.9174 -0.3979 0.3979 0.9174 -590.0804 1038.5863)" class="st2" width="96" height="96"/>
		
			<rect x="2285.18" y="1941.87" transform="matrix(0.9174 -0.3979 0.3979 0.9174 -599.1386 1092.7557)" class="st2" width="96" height="96"/>
		
			<rect x="2335.55" y="1816.47" transform="matrix(0.9174 -0.3979 0.3979 0.9174 -545.0781 1102.4438)" class="st2" width="96" height="96"/>
		
			<rect x="2008.47" y="2270.08" transform="matrix(0.9174 -0.3979 0.3979 0.9174 -752.5927 1009.7515)" class="st2" width="96" height="96"/>
		
			<rect x="2058.85" y="2144.68" transform="matrix(0.9174 -0.3979 0.3979 0.9174 -698.533 1019.4419)" class="st2" width="96" height="96"/>
		
			<rect x="2184.83" y="2193.59" transform="matrix(0.9174 -0.3979 0.3979 0.9174 -707.5912 1073.6115)" class="st2" width="96" height="96"/>
		
			<rect x="2235.2" y="2068.19" transform="matrix(0.9174 -0.3979 0.3979 0.9174 -653.5306 1083.2996)" class="st2" width="96" height="96"/>
		
			<rect x="2361.18" y="2117.09" transform="matrix(0.9174 -0.3979 0.3979 0.9174 -662.5892 1137.4702)" class="st2" width="96" height="96"/>
		
			<rect x="2411.55" y="1991.69" transform="matrix(0.9174 -0.3979 0.3979 0.9174 -608.5291 1147.1597)" class="st2" width="96" height="96"/>
		
			<rect x="2084.48" y="2445.31" transform="matrix(0.9174 -0.3979 0.3979 0.9174 -816.0439 1054.467)" class="st2" width="96" height="96"/>
		
			<rect x="2134.85" y="2319.9" transform="matrix(0.9174 -0.3979 0.3979 0.9174 -761.9831 1064.155)" class="st2" width="96" height="96"/>
		
			<rect x="2260.83" y="2368.81" transform="matrix(0.9174 -0.3979 0.3979 0.9174 -771.0419 1118.3258)" class="st2" width="96" height="96"/>
		
			<rect x="2311.2" y="2243.41" transform="matrix(0.9174 -0.3979 0.3979 0.9174 -716.9816 1128.015)" class="st2" width="96" height="96"/>
		
			<rect x="2437.18" y="2292.32" transform="matrix(0.9174 -0.3979 0.3979 0.9174 -726.0399 1182.1846)" class="st2" width="96" height="96"/>
		
			<rect x="2487.56" y="2166.92" transform="matrix(0.9174 -0.3979 0.3979 0.9174 -671.9796 1191.8738)" class="st2" width="96" height="96"/>
	</g>
	<g class="st1">
		
			<rect x="-262.4" y="149.57" transform="matrix(0.9174 -0.3979 0.3979 0.9174 -96.3219 -69.0005)" class="st2" width="96" height="96"/>
		
			<rect x="-212.03" y="24.17" transform="matrix(0.9174 -0.3979 0.3979 0.9174 -42.2616 -59.3112)" class="st2" width="96" height="96"/>
		
			<rect x="-86.05" y="73.08" transform="matrix(0.9174 -0.3979 0.3979 0.9174 -51.3199 -5.1418)" class="st2" width="96" height="96"/>
		
			<rect x="-35.67" y="-52.33" transform="matrix(0.9174 -0.3979 0.3979 0.9174 2.7403 4.5475)" class="st2" width="96" height="96"/>
		<rect x="90.31" y="-3.42" transform="matrix(0.9174 -0.3979 0.3979 0.9174 -6.3179 58.717)" class="st2" width="96" height="96"/>
		
			<rect x="140.68" y="-128.82" transform="matrix(0.9174 -0.3979 0.3979 0.9174 47.7422 68.4062)" class="st2" width="96" height="96"/>
		
			<rect x="-186.4" y="324.79" transform="matrix(0.9174 -0.3979 0.3979 0.9174 -159.7724 -24.2861)" class="st2" width="96" height="96"/>
		
			<rect x="-136.02" y="199.39" transform="matrix(0.9174 -0.3979 0.3979 0.9174 -105.7123 -14.5969)" class="st2" width="96" height="96"/>
		
			<rect x="-10.04" y="248.3" transform="matrix(0.9174 -0.3979 0.3979 0.9174 -114.7706 39.5726)" class="st2" width="96" height="96"/>
		
			<rect x="40.33" y="122.9" transform="matrix(0.9174 -0.3979 0.3979 0.9174 -60.7103 49.2618)" class="st2" width="96" height="96"/>
		
			<rect x="166.31" y="171.81" transform="matrix(0.9174 -0.3979 0.3979 0.9174 -69.7685 103.4314)" class="st2" width="96" height="96"/>
		
			<rect x="216.69" y="46.41" transform="matrix(0.9174 -0.3979 0.3979 0.9174 -15.7083 113.1206)" class="st2" width="96" height="96"/>
		
			<rect x="-110.39" y="500.02" transform="matrix(0.9174 -0.3979 0.3979 0.9174 -223.2232 20.4282)" class="st2" width="96" height="96"/>
		
			<rect x="-60.02" y="374.62" transform="matrix(0.9174 -0.3979 0.3979 0.9174 -169.1628 30.1174)" class="st2" width="96" height="96"/>
		
			<rect x="65.96" y="423.53" transform="matrix(0.9174 -0.3979 0.3979 0.9174 -178.2212 84.287)" class="st2" width="96" height="96"/>
		
			<rect x="116.34" y="298.13" transform="matrix(0.9174 -0.3979 0.3979 0.9174 -124.1609 93.9762)" class="st2" width="96" height="96"/>
		
			<rect x="242.32" y="347.04" transform="matrix(0.9174 -0.3979 0.3979 0.9174 -133.2191 148.1458)" class="st2" width="96" height="96"/>
		
			<rect x="292.69" y="221.64" transform="matrix(0.9174 -0.3979 0.3979 0.9174 -79.1589 157.835)" class="st2" width="96" height="96"/>
	</g>
	<g class="st1">
		
			<rect x="267.6" y="-79.43" transform="matrix(0.9174 -0.3979 0.3979 0.9174 38.5715 122.9885)" class="st2" width="96" height="96"/>
		
			<rect x="317.97" y="-204.83" transform="matrix(0.9174 -0.3979 0.3979 0.9174 92.6314 132.6775)" class="st2" width="96" height="96"/>
		
			<rect x="443.95" y="-155.93" transform="matrix(0.9174 -0.3979 0.3979 0.9174 83.5733 186.8471)" class="st2" width="96" height="96"/>
		
			<rect x="494.33" y="-281.33" transform="matrix(0.9174 -0.3979 0.3979 0.9174 137.6337 196.5365)" class="st2" width="96" height="96"/>
		
			<rect x="620.31" y="-232.42" transform="matrix(0.9174 -0.3979 0.3979 0.9174 128.5755 250.706)" class="st2" width="96" height="96"/>
		
			<rect x="670.68" y="-357.82" transform="matrix(0.9174 -0.3979 0.3979 0.9174 182.6355 260.3951)" class="st2" width="96" height="96"/>
		
			<rect x="343.6" y="95.79" transform="matrix(0.9174 -0.3979 0.3979 0.9174 -24.8792 167.7027)" class="st2" width="96" height="96"/>
		
			<rect x="393.98" y="-29.61" transform="matrix(0.9174 -0.3979 0.3979 0.9174 29.181 177.3922)" class="st2" width="96" height="96"/>
		
			<rect x="519.96" y="19.3" transform="matrix(0.9174 -0.3979 0.3979 0.9174 20.1228 231.5616)" class="st2" width="96" height="96"/>
		
			<rect x="570.33" y="-106.1" transform="matrix(0.9174 -0.3979 0.3979 0.9174 74.1829 241.2507)" class="st2" width="96" height="96"/>
		
			<rect x="696.31" y="-57.19" transform="matrix(0.9174 -0.3979 0.3979 0.9174 65.1249 295.4204)" class="st2" width="96" height="96"/>
		
			<rect x="746.69" y="-182.59" transform="matrix(0.9174 -0.3979 0.3979 0.9174 119.1851 305.1097)" class="st2" width="96" height="96"/>
		
			<rect x="419.61" y="271.02" transform="matrix(0.9174 -0.3979 0.3979 0.9174 -88.3298 212.4173)" class="st2" width="96" height="96"/>
		
			<rect x="469.98" y="145.62" transform="matrix(0.9174 -0.3979 0.3979 0.9174 -34.2696 222.1063)" class="st2" width="96" height="96"/>
		
			<rect x="595.96" y="194.53" transform="matrix(0.9174 -0.3979 0.3979 0.9174 -43.3278 276.276)" class="st2" width="96" height="96"/>
		
			<rect x="646.34" y="69.13" transform="matrix(0.9174 -0.3979 0.3979 0.9174 10.7324 285.9653)" class="st2" width="96" height="96"/>
		
			<rect x="772.32" y="118.04" transform="matrix(0.9174 -0.3979 0.3979 0.9174 1.6742 340.1348)" class="st2" width="96" height="96"/>
		
			<rect x="822.69" y="-7.36" transform="matrix(0.9174 -0.3979 0.3979 0.9174 55.7345 349.824)" class="st2" width="96" height="96"/>
	</g>
	<g class="st1">
		
			<rect x="796.24" y="-308.9" transform="matrix(0.9174 -0.3979 0.3979 0.9174 173.5374 314.3991)" class="st2" width="96" height="96"/>
		
			<rect x="846.62" y="-434.3" transform="matrix(0.9174 -0.3979 0.3979 0.9174 227.5969 324.0877)" class="st2" width="96" height="96"/>
		
			<rect x="972.6" y="-385.39" transform="matrix(0.9174 -0.3979 0.3979 0.9174 218.5391 378.2575)" class="st2" width="96" height="96"/>
		
			<rect x="1022.97" y="-510.79" transform="matrix(0.9174 -0.3979 0.3979 0.9174 272.5996 387.9471)" class="st2" width="96" height="96"/>
		
			<rect x="1148.95" y="-461.88" transform="matrix(0.9174 -0.3979 0.3979 0.9174 263.5414 442.1166)" class="st2" width="96" height="96"/>
		
			<rect x="1199.33" y="-587.28" transform="matrix(0.9174 -0.3979 0.3979 0.9174 317.6012 451.8055)" class="st2" width="96" height="96"/>
		
			<rect x="872.25" y="-133.67" transform="matrix(0.9174 -0.3979 0.3979 0.9174 110.0866 359.1131)" class="st2" width="96" height="96"/>
		
			<rect x="922.62" y="-259.07" transform="matrix(0.9174 -0.3979 0.3979 0.9174 164.147 368.8027)" class="st2" width="96" height="96"/>
		
			<rect x="1048.6" y="-210.16" transform="matrix(0.9174 -0.3979 0.3979 0.9174 155.0888 422.9722)" class="st2" width="96" height="96"/>
		
			<rect x="1098.97" y="-335.56" transform="matrix(0.9174 -0.3979 0.3979 0.9174 209.1487 432.6611)" class="st2" width="96" height="96"/>
		
			<rect x="1224.95" y="-286.65" transform="matrix(0.9174 -0.3979 0.3979 0.9174 200.0908 486.831)" class="st2" width="96" height="96"/>
		
			<rect x="1275.33" y="-412.06" transform="matrix(0.9174 -0.3979 0.3979 0.9174 254.1511 496.5203)" class="st2" width="96" height="96"/>
		
			<rect x="948.25" y="41.56" transform="matrix(0.9174 -0.3979 0.3979 0.9174 46.6361 403.8279)" class="st2" width="96" height="96"/>
		
			<rect x="998.62" y="-83.84" transform="matrix(0.9174 -0.3979 0.3979 0.9174 100.6962 413.5167)" class="st2" width="96" height="96"/>
		
			<rect x="1124.6" y="-34.94" transform="matrix(0.9174 -0.3979 0.3979 0.9174 91.6382 467.6866)" class="st2" width="96" height="96"/>
		
			<rect x="1174.98" y="-160.34" transform="matrix(0.9174 -0.3979 0.3979 0.9174 145.6984 477.3759)" class="st2" width="96" height="96"/>
		
			<rect x="1300.96" y="-111.43" transform="matrix(0.9174 -0.3979 0.3979 0.9174 136.6402 531.5454)" class="st2" width="96" height="96"/>
		
			<rect x="1351.33" y="-236.83" transform="matrix(0.9174 -0.3979 0.3979 0.9174 190.7004 541.2346)" class="st2" width="96" height="96"/>
	</g>
</g>
<g>
	<defs>
		<rect id="SVGID_3_" x="-0.62" width="1920.62" height="3000"/>
	</defs>
	<clipPath id="SVGID_4_">
		<use xlink:href="#SVGID_3_"  style="overflow:visible;"/>
	</clipPath>
</g>
</svg>
