<?xml version="1.0" encoding="utf-8"?>
<!-- Generator: Adobe Illustrator 24.0.3, SVG Export Plug-In . SVG Version: 6.00 Build 0)  -->
<svg version="1.1" id="Layer_1" xmlns="http://www.w3.org/2000/svg" xmlns:xlink="http://www.w3.org/1999/xlink" x="0px" y="0px"
	 viewBox="0 0 200 300" style="enable-background:new 0 0 200 300;" xml:space="preserve">
<style type="text/css">
	.st0{fill-rule:evenodd;clip-rule:evenodd;fill:#1D1D1D;}
	.st1{fill:#1D1D1D;}
</style>
<path class="st0" d="M116.67,119.13c-0.44,0.04-0.86,0.08-1.29,0.11c-0.11-1.61-0.21-3.22-0.3-4.77c0.44-0.04,0.85-0.12,1.27-0.13
	C116.46,115.93,116.56,117.52,116.67,119.13 M79.36,166.82c4.85,0.62,9.64,1,14.29,1.21c4.66,0.21,9.2,0.3,13.57,0
	c8.73-0.6,16.66-2.55,23.53-5.68c-0.05-0.48-0.09-0.96-0.13-1.44c-6.9,2.73-14.85,4.03-23.54,4.08c-9.12,0.04-18.55-1.19-27.58-2.74
	C79.45,163.7,79.41,165.29,79.36,166.82z M62.21,145.62l0.06-0.91c3.73,1.26,7.45,2.26,11.15,2.99c5.15,1.01,10.24,1.63,15.2,2.02
	c5,0.39,9.87,0.6,14.56,0.51c4.7-0.09,9.2-0.58,13.45-1.37c0.06,1.11,0.14,2.18,0.2,3.27c-4.31,0.57-8.85,0.76-13.58,0.62
	c-4.72-0.14-9.6-0.62-14.62-1.26c-4.98-0.63-10.1-1.4-15.24-2.58C69.69,148.07,65.96,146.96,62.21,145.62z M53.5,223.82l0.07,0.03
	l0.01,0.01l0.24,0.11L53.9,224l0.08,0.04l0.08,0.04l0.07,0.03l0.01,0l0.08,0.04l0.32,0.14l0.08,0.03l0.08,0.03l0,0l0.08,0.04
	l0.08,0.03l0.24,0.1l0.08,0.04l0.08,0.03l0,0l0.08,0.03l0.08,0.03l0.08,0.03l0.08,0.03l0.08,0.03l0.08,0.03l0.08,0.03l0.01,0
	l0.08,0.03l0.08,0.03l0.08,0.03l0.08,0.03l0.17,0.07l0.08,0.03l0.01,0l0.07,0.03l0.42,0.17c11.43,4.43,26.94,6.87,41.32,6.95
	c12.87,0.07,26.05-1.75,38.6-5.74c-0.06-0.67-0.11-1.33-0.19-1.98c-20.64,7.77-44.88,4.83-63.72,1.01
	c-5.21-1.06-10.47-2.56-15.74-4.52l0.09-1.3c6.76,2.23,13.56,3.5,20.44,4.24c6.82,0.72,13.72,0.91,20.73,0.95
	c7.16,0.04,14.01-0.3,20.31-1.73c2.79-0.63,5.46-1.44,8.02-2.41c3.22-1.23,6.34-2.25,9.16-3.96c0.01,0.06-0.07-0.37-0.06-0.27
	c-6.98,3.52-14.46,4.96-22.14,5.25c-12.24,0.46-25.39-1.44-37.47-3.67c-6.12-1.13-12.32-2.82-18.53-5.1l0.08-1.27
	c6.2,2.1,12.39,3.45,18.51,4.14c7.51,0.85,14.86,1.06,21.88,1.12c7.07,0.06,13.82-0.33,20.01-1.66c6.23-1.34,11.9-3.6,16.91-6.53
	c0-0.02,0-0.04,0-0.04c-5.09,2.49-10.83,4.08-17.06,4.77c-13.39,1.48-28.37-0.88-41.68-3.31c-6-1.1-12.08-2.76-18.15-4.99l0.08-1.21
	c6.07,2.07,12.13,3.42,18.12,4.12c7.38,0.86,14.6,1.1,21.55,1.16c12.88,0.11,25.34-1.52,36.45-7.72c-0.01-0.12-0.03-0.21-0.04-0.31
	c-5.02,2.34-10.69,3.88-16.85,4.55c-6.16,0.67-12.69,0.53-19.24-0.05c-7.42-0.66-14.86-1.89-21.79-3.17
	c-5.88-1.09-11.82-2.71-17.78-4.85l0.08-1.18c5.95,1.99,11.88,3.3,17.74,4.02c7.28,0.9,14.39,1.16,21.21,1.25
	c6.85,0.09,13.38-0.24,19.45-1.41c6.05-1.17,11.61-3.21,16.54-5.88c-0.01-0.19-0.03-0.35-0.04-0.52c-5,2.25-10.62,3.73-16.68,4.36
	c-12.96,1.35-27.54-0.72-40.41-3.13c-5.75-1.08-11.57-2.66-17.41-4.76l0.08-1.15c5.82,1.96,11.63,3.29,17.37,4.02
	c7.16,0.91,14.17,1.2,20.89,1.31c6.75,0.11,13.2-0.17,19.17-1.31c5.97-1.14,11.49-3.1,16.37-5.69c-0.02-0.23-0.04-0.48-0.07-0.71
	c-4.93,2.15-10.46,3.59-16.47,4.24c-12.76,1.36-27.13-0.68-39.81-3.05c-5.64-1.06-11.35-2.61-17.07-4.67l0.08-1.15
	c5.71,1.92,11.4,3.24,17.04,4c7.04,0.95,13.95,1.28,20.56,1.4c6.65,0.12,13.02-0.14,18.93-1.24c5.91-1.1,11.33-2.93,16.19-5.41
	c-0.03-0.33-0.05-0.63-0.08-0.94c-4.9,2.1-10.37,3.51-16.3,4.13c-5.91,0.62-12.23,0.35-18.86-0.26c-6.57-0.61-13.41-1.45-20.36-2.76
	c-5.53-1.05-11.13-2.57-16.73-4.57l0.07-1.09c5.59,1.88,11.17,3.2,16.7,3.96c6.94,0.95,13.74,1.29,20.28,1.42
	c6.56,0.13,12.83-0.1,18.66-1.14c5.84-1.04,11.22-2.82,16.02-5.21c-0.02-0.35-0.06-0.71-0.09-1.05c-4.86,2-10.27,3.35-16.11,3.94
	c-12.42,1.27-26.36-0.55-38.68-2.93c-5.43-1.05-10.91-2.54-16.4-4.52l0.07-1.03c5.48,1.84,10.95,3.15,16.37,3.92
	c6.84,0.98,13.54,1.36,19.99,1.51c6.46,0.15,12.66-0.06,18.43-1.05c5.78-1,11.1-2.71,15.86-5.01c-0.04-0.42-0.09-0.84-0.12-1.25
	c-4.81,1.95-10.15,3.25-15.94,3.82c-12.31,1.2-25.93-0.54-38.14-2.87c-5.32-1.02-10.7-2.5-16.1-4.41l0.07-1.04
	c5.49,1.8,10.94,3.09,16.36,3.94c0.04-1.57,0.1-3.15,0.14-4.7c-5.33-1.07-10.72-2.52-16.15-4.43l0.07-0.98
	c5.29,1.76,10.54,3.05,15.76,3.85c6.65,1.02,13.17,1.43,19.43,1.6c6.29,0.17,12.33-0.02,17.97-0.91c5.62-0.89,10.84-2.44,15.53-4.58
	c-0.04-0.52-0.09-1.02-0.14-1.55c-4.73,1.85-9.97,3.05-15.6,3.58c-12.04,1.14-25.19-0.43-37.13-2.78c-5.12-1.01-10.3-2.43-15.5-4.27
	l0.06-0.92c5.19,1.72,10.35,3,15.47,3.81c6.56,1.04,12.99,1.46,19.17,1.65c6.21,0.19,12.16-0.01,17.74-0.87
	c5.58-0.86,10.74-2.34,15.4-4.39c-0.05-0.58-0.11-1.13-0.16-1.67c-3.46,1.33-6.01,2.13-9.96,2.77c-0.06-1.13-0.15-2.24-0.22-3.33
	c3.9-0.89,6.4-1.89,9.82-3.31c-0.05-0.61-0.1-1.23-0.16-1.82c-4.65,1.7-9.77,2.83-15.27,3.34c-5.49,0.52-11.34,0.37-17.43-0.14
	c-6.06-0.51-12.36-1.23-18.75-2.5c-4.95-0.98-9.94-2.38-14.95-4.14l0.06-0.9c5,1.66,9.99,2.94,14.92,3.74
	c6.39,1.04,12.65,1.53,18.68,1.75c6.05,0.22,11.86,0.04,17.31-0.73c5.45-0.77,10.51-2.16,15.1-4.04c-0.06-0.63-0.13-1.29-0.18-1.92
	c-4.6,1.63-9.68,2.72-15.13,3.22c-5.41,0.49-11.19,0.42-17.18-0.07c-6-0.48-12.22-1.26-18.52-2.51c-4.86-0.96-9.77-2.34-14.69-4.06
	l0.05-0.84c3.46,1.16,6.91,2.1,10.33,2.86c-1.44-1.37-1.22-2.45-1.17-3.86c0.01-0.25,0.01-0.5,0.03-0.78
	c-2.95-0.76-5.92-1.66-8.89-2.7l0.06-0.85c2.98,1,5.94,1.84,8.87,2.55c0.06-1.45,0.13-2.82,0.18-4.2c1.69,0.37,3.4,0.75,5.1,1.1
	c-0.01,1.36-0.02,2.73-0.03,4.15c6.89,1.13,13.64,1.78,20.08,1.93c6.51,0.15,12.67-0.17,18.39-1.19c0.05,0.9,0.12,1.78,0.17,2.66
	c-5.79,0.75-12.01,0.79-18.52,0.36c-6.46-0.42-13.23-1.3-20.13-2.62c-0.01,0.21,0,0.42,0,0.61c-0.02,1.36,0.12,2.55-1.12,3.44
	c4.83,0.83,9.61,1.4,14.27,1.72c4.69,0.32,9.26,0.46,13.64,0.32c4.39-0.14,8.63-0.57,12.63-1.34c3.99-0.76,7.75-1.88,11.25-3.26
	c-0.06-0.65-0.13-1.36-0.19-2.03c-3.27,1.16-5.64,1.9-9.35,2.47c-0.05-0.88-0.12-1.8-0.19-2.68c3.67-0.8,6.02-1.65,9.25-2.89
	c-0.05-0.69-0.12-1.42-0.18-2.11c-3.23,1.11-5.58,1.77-9.24,2.38c-0.03-0.44-0.06-0.9-0.09-1.32c-0.82,0.08-1.64,0.17-2.44,0.29
	c0.03,0.44,0.05,0.9,0.09,1.32c-4.14,0.56-8.51,0.75-13.05,0.64c-4.52-0.12-9.21-0.49-14.01-1.08c-4.76-0.58-9.66-1.38-14.61-2.52
	c-3.49-0.8-6.98-1.86-10.49-3.1l0.06-0.84c4.75,1.56,9.48,2.8,14.16,3.63c6.14,1.09,12.17,1.65,18,1.88
	c5.82,0.23,11.44,0.12,16.68-0.56c5.28-0.68,10.21-1.96,14.69-3.61c-0.09-0.77-0.15-1.48-0.22-2.24c-4.47,1.52-9.39,2.52-14.65,2.98
	c-4.99,0.44-10.26,0.46-15.54,0.17c-5.28-0.29-10.55-0.9-15.53-1.74c-5.89-0.99-11.66-2.48-17.32-4.59l0.06-0.88
	c5.72,1.98,11.51,3.36,17.38,4.24c5.15,0.77,10.55,1.24,15.93,1.35c5.06,0.1,10.1-0.12,14.9-0.72c5.22-0.65,10.09-1.85,14.53-3.43
	c-0.42-4.53-0.84-8.9-1.22-13.21c-0.17-1.75-0.24-3.28-0.23-4.68c-7.09,2.19-16.35,3.52-26.48,3.52c-16.54,0-30.76-3.54-37.02-8.6
	l-2.37,29.98l-0.03,0.34l-0.38,4.8l-0.04,0.51l-0.5,6.29l-0.07,0.94l-0.72,9.06L57.68,149l-0.07,0.84l-0.09,1.19l-5.7,71.99
	C52.37,223.29,52.93,223.56,53.5,223.82z M150.62,118.04v2.46c-2.33,1.65-4.68,3.25-7.05,4.77c-1.05,0.67-2.11,1.33-3.16,1.96
	l0.15,1.38c1-0.56,1.99-1.14,2.98-1.73c2.32-1.39,4.69-2.84,7.09-4.38v4.9c-2.37,1.69-4.76,3.32-7.16,4.88
	c-0.78,0.51-1.56,1-2.35,1.48l0.16,1.5l1.1-0.63c1.49-0.86,2.99-1.77,4.49-2.72c1.25-0.79,2.5-1.59,3.76-2.4v4.99
	c-1.11,0.79-2.23,1.58-3.35,2.35c-1.69,1.16-3.37,2.32-5.05,3.37l-0.37,0.23l0.18,1.65c0.43-0.25,0.87-0.51,1.3-0.77
	c2.38-1.44,4.82-2.95,7.3-4.53v5.08c-2.44,1.76-4.9,3.47-7.38,5.1l-0.64,0.42l0.19,1.73l0.42-0.25c2.42-1.45,4.9-2.98,7.41-4.59
	v5.13c-2.4,1.75-4.81,3.44-7.25,5.07l0.2,1.85c2.36-1.44,4.71-2.93,7.05-4.46v5.34c-2.13,1.56-4.29,3.08-6.45,4.56l0.22,2.03
	c2.04-1.25,4.12-2.55,6.23-3.89v5.34c-1.86,1.38-3.74,2.73-5.63,4.04l0.24,2.19c1.77-1.09,3.57-2.22,5.39-3.38v5.42
	c-1.59,1.18-3.18,2.34-4.79,3.48l0.26,2.39c1.49-0.93,3.01-1.87,4.53-2.84v5.61c-1.3,0.97-2.6,1.93-3.92,2.88l0.28,2.58
	c1.2-0.75,2.41-1.51,3.63-2.29v5.7c-1,0.75-2.01,1.5-3.02,2.24l0.31,2.86c0.9-0.57,1.8-1.14,2.71-1.72v5.73
	c-0.7,0.53-1.4,1.05-2.1,1.57l0.35,3.17c0.58-0.36,1.17-0.73,1.75-1.11v5.14l-1.23,0.82l1.04,9.57l0.18-0.13v0.71l-0.98,0.43
	l-0.15-0.17l-0.02-0.04l-0.02-0.04l-0.02-0.04l-0.02-0.04l-0.02-0.04l-0.02-0.04c-0.72-1.15-1.93-2.26-3.58-3.3l-9.89-120.15
	c0.67-0.54,1.25-1.11,1.73-1.68c0.84-0.86,1.71-2.01,2.06-3.41l0.01-0.22c2.58-1.38,5.19-2.9,7.82-4.56l0.36-0.22l0.35,3.99
	c-1.37,0.91-2.75,1.79-4.13,2.64c-2.31,1.43-4.64,2.76-6.97,3.99l0.12,1.1c1.04-0.53,2.09-1.09,3.13-1.67
	c2.67-1.49,5.33-3.09,7.97-4.76l0.38,4.37c-1.13,0.76-2.26,1.5-3.4,2.24c-2.63,1.7-5.1,3.18-7.57,4.52l0.12,1.08
	c2.67-1.4,5.39-2.96,8.1-4.63c0.96-0.59,1.92-1.2,2.87-1.8l0.39,4.42c-1.23,0.83-2.46,1.65-3.7,2.46c-2.39,1.55-4.78,3.01-7.14,4.33
	l0.13,1.16c1.79-0.94,3.57-1.94,5.35-3.01c1.84-1.1,3.67-2.23,5.49-3.4l0.39,4.45c-1.97,1.36-3.96,2.68-5.95,3.96
	c-1.58,1-3.16,1.96-4.75,2.86l0.14,1.25c1.53-0.82,3.06-1.69,4.58-2.59c2.06-1.22,4.1-2.5,6.13-3.82l0.39,4.49
	c-3.48,2.43-7.01,4.75-10.56,6.87l0.15,1.33c3.54-1.99,7.08-4.2,10.56-6.48L150.62,118.04z M145.86,63.45l1.88,21.56l-0.12,0.08
	c-2.65,1.73-5.2,3.26-7.82,4.72c0.22-7.14,0.56-14.09,0.56-21.13l-0.46-0.34c0.85-0.62,1.67-1.21,2.41-1.73
	C143.72,65.62,145.08,64.52,145.86,63.45z M121.66,59.62c1.75-1,3.49-1.78,5.35-2.36c4.2-1.3,10.05-1.78,14.45-0.54
	c2.45,0.69,4.08,1.97,2.86,4.15c-0.6,1.07-1.89,2.09-3.22,2.96c-1.13,0.74-2.44,1.63-3.77,2.56l-0.13,0.09
	c-2.45-1.62-5.14-3.21-7.2-4.28c0,1.95,0,3.9,0,5.85v3.6c-1.38-0.64-2.91-1.23-4.56-1.78v-3.46c0-1.98,0-3.96,0-5.95
	C124.43,60.21,123.12,59.92,121.66,59.62z"/>
<path class="st0" d="M67.8,91.56l-0.02-0.01v-0.01L67.8,91.56z M58.53,74.89c0-0.05,0-0.1,0-0.15c0-1.61,0-3.21,0-4.82
	c3.12-2.77,6.24-4.5,9.37-5.81c0,1.98,0,3.97,0,5.95v3.03c1.88-0.84,4-1.6,6.33-2.26v-2.75c0-1.97,0-3.95,0-5.92
	c4.07-0.95,8.13-1.7,12.2-2.29c0,1.91,0,3.81,0,5.72v2.86c2.04-0.24,4.16-0.43,6.33-0.55v-2.98c0-1.89,0-3.78,0-5.68
	c4.06-0.2,8.12-0.22,12.19-0.11c0,1.91,0,3.81,0,5.71v3.06c2.18,0.12,4.29,0.31,6.33,0.55v-3.06c0-1.94,0-3.87,0-5.81
	c4.07,0.53,8.13,1.28,12.2,2.34c0,1.98,0,3.97,0,5.95v2.96c2.33,0.67,4.46,1.43,6.33,2.26v-3.02c0-1.95,0-3.9,0-5.85
	c3.12,1.56,6.25,3.43,9.38,5.66c0,1.7,0,3.4,0,5.09v0.18c-0.13,0.12-0.27,0.24-0.41,0.35c-1.41,1.85-3.73,3.56-6.77,5.06
	c-4.79-5.38-17.83-9.24-33.16-9.24c-15.26,0-28.25,3.83-33.09,9.17c-1.95-0.97-3.59-2.03-4.89-3.16
	C60.02,76.57,59.23,75.65,58.53,74.89z M86.12,88.34v7.42c2.02,0.23,4.04,0.42,6.07,0.53v-7.4c2.17,0.13,4.4,0.2,6.67,0.2
	c2.27,0,4.5-0.07,6.67-0.2v7.4l0.29-0.02c1.93-0.12,3.86-0.3,5.78-0.52v-7.42c4.92-0.6,9.43-1.52,13.34-2.71v7.46l0,0
	c1.82-0.55,3.5-1.15,5.02-1.8v-7.47c3.95-1.69,6.92-3.7,8.61-5.91c0.21-0.18,0.41-0.35,0.61-0.53v5.73
	c0.02-0.08,0.03-0.17,0.04-0.25v6.24c-1.03,7.61-18.71,13.68-40.37,13.68c-21.61,0-39.26-6.04-40.36-13.63v-6.25
	c0.01,0.08,0.03,0.16,0.04,0.24v-5.74c0.55,0.58,1.07,1.14,1.63,1.7c1.75,1.75,4.34,3.35,7.58,4.74v7.47
	c1.52,0.65,3.2,1.25,5.02,1.8l0,0v-7.46C76.69,86.82,81.2,87.75,86.12,88.34z"/>
<path class="st1" d="M139.79,227.89c-33.29,9.66-55.76,9.48-89.28-1.81c-1.7,0-14.44,19.31-14.44,24.6l119.35-0.28
	C152.91,241.9,147.88,233.88,139.79,227.89"/>
<polygon class="st1" points="96.02,249.71 34.12,249.71 34.12,262.34 157.92,262.34 157.92,249.71 "/>
</svg>
