<?xml version="1.0" encoding="utf-8"?>
<!-- Generator: Adobe Illustrator 24.0.3, SVG Export Plug-In . SVG Version: 6.00 Build 0)  -->
<svg version="1.1" id="Layer_1" xmlns="http://www.w3.org/2000/svg" xmlns:xlink="http://www.w3.org/1999/xlink" x="0px" y="0px"
	 viewBox="0 0 200 300" style="enable-background:new 0 0 200 300;" xml:space="preserve">
<style type="text/css">
	.st0{clip-path:url(#SVGID_2_);fill:#FFFFFF;}
	.st1{clip-path:url(#SVGID_4_);fill:#FFFFFF;}
	.st2{fill-rule:evenodd;clip-rule:evenodd;}
</style>
<g>
	<defs>
		<path id="SVGID_1_" d="M68.02,252.46c-0.67,1.8-0.89,5.54-0.89,5.54h89.88c0,0-0.01-3.77-0.8-5.67c-0.79-1.89-3.16-3.66-3.16-3.66
			h-0.3c-0.14-0.39-0.26-0.83-0.36-1.29h0.14c3.75-4.89,6.01-12.16,5.46-19.66c-0.53-7.5-6.01-15.07-9.7-20.9l-0.15-0.56
			c0.14-0.44-0.03-0.33,0.03-0.79c1.07-0.27,3.07-2.03,2.5-4.17c-0.71-2.92-3.33-3.57-4.25-3.57h-0.47l-0.17-0.58l0.03-0.59
			c-3.63-8.3-6.99-15.13-9.88-22.81c-22.37,21.31-58.92,22.84-58.92,22.84l-0.03,0.39l0.02,0.74c-0.42,0-0.68,0-0.76,0
			c-0.92,0-3.56,0.65-4.27,3.55c-0.62,2.34,1.75,4.22,2.75,4.25l0.48,0.48c-0.04,0.45-0.39,0.5-0.36,1.07
			c-4.21,6.38-8.21,14.58-8.7,22.08c-0.41,7,1.51,12.66,4.9,17.39c-0.12,0.82-0.15,1.57-0.14,2.25
			C70.41,249.29,68.61,250.95,68.02,252.46"/>
	</defs>
	<use xlink:href="#SVGID_1_"  style="overflow:visible;fill-rule:evenodd;clip-rule:evenodd;fill:#FFFFFF;"/>
	<clipPath id="SVGID_2_">
		<use xlink:href="#SVGID_1_"  style="overflow:visible;"/>
	</clipPath>
	<rect x="65.74" y="173.75" class="st0" width="92.78" height="84.25"/>
</g>
<g>
	<defs>
		<path id="SVGID_3_" d="M143.61,162.9c20.54-30.3,6.05-53.97,6.05-53.97c3.36-1,11.28,1.44,11.28,1.44
			c-9.39-34.43-44.23-62.89-82.95-51.56c-1-5.72-17.5-15.81-17.5-15.81c1.69,1.68,4.25,17.98,4.25,17.98
			c-1.68-3.04-8.95-13.28-8.95-13.28c3.02,7.06,0,22.21,0,22.21c-8.74,8.74-18.5,39.02-18.5,39.02l-3.71,5.39
			c-4.72,6.75-2.98,17.33,1.68,19.84c17.49,9.44,19.18-7.73,19.18-7.73c14.48-1.68,25.24-17.83,25.24-17.83
			c19.5,10.09,8.64,38.56,0.21,49.48c-10.82,14.02-2.89,36.68-2.89,36.68S123.34,192.85,143.61,162.9"/>
	</defs>
	<use xlink:href="#SVGID_3_"  style="overflow:visible;fill-rule:evenodd;clip-rule:evenodd;fill:#FFFFFF;"/>
	<clipPath id="SVGID_4_">
		<use xlink:href="#SVGID_3_"  style="overflow:visible;"/>
	</clipPath>
	<rect x="28.86" y="43" class="st1" width="135.29" height="151.76"/>
</g>
<path class="st2" d="M62.22,83.3c1.16-0.98,2.24-1.61,2.41-1.41c0.17,0.2-0.64,1.15-1.81,2.13c-1.16,0.98-2.24,1.61-2.41,1.41
	C60.25,85.23,61.06,84.28,62.22,83.3"/>
</svg>
