<?xml version="1.0" encoding="utf-8"?>
<!-- Generator: Adobe Illustrator 24.0.3, SVG Export Plug-In . SVG Version: 6.00 Build 0)  -->
<svg version="1.1" id="Layer_1" xmlns="http://www.w3.org/2000/svg" xmlns:xlink="http://www.w3.org/1999/xlink" x="0px" y="0px"
	 viewBox="0 0 200 300" style="enable-background:new 0 0 200 300;" xml:space="preserve">
<style type="text/css">
	.st0{fill-rule:evenodd;clip-rule:evenodd;fill:#FFFFFF;}
	.st1{fill:#FFFFFF;}
	.st2{fill-rule:evenodd;clip-rule:evenodd;}
</style>
<path class="st0" d="M99.76,52.93c1.27,0,2.3,1.03,2.3,2.3s-1.03,2.3-2.3,2.3c-1.27,0-2.3-1.03-2.3-2.3S98.5,52.93,99.76,52.93"/>
<path class="st0" d="M78.13,57.18c1.07,0,1.95,0.87,1.95,1.95c0,1.07-0.87,1.95-1.95,1.95c-1.07,0-1.95-0.87-1.95-1.95
	C76.18,58.05,77.05,57.18,78.13,57.18"/>
<path class="st0" d="M121.82,57.18c1.07,0,1.95,0.87,1.95,1.95c0,1.07-0.87,1.95-1.95,1.95c-1.07,0-1.95-0.87-1.95-1.95
	C119.87,58.05,120.74,57.18,121.82,57.18"/>
<path class="st0" d="M62.49,64.39c0.91,0,1.65,0.74,1.65,1.65c0,0.91-0.74,1.65-1.65,1.65c-0.91,0-1.65-0.74-1.65-1.65
	C60.84,65.13,61.58,64.39,62.49,64.39"/>
<path class="st0" d="M137.09,64.39c0.91,0,1.65,0.74,1.65,1.65c0,0.91-0.74,1.65-1.65,1.65c-0.91,0-1.65-0.74-1.65-1.65
	C135.44,65.13,136.18,64.39,137.09,64.39"/>
<path class="st1" d="M102.37,66.13c0.03,0.1-0.02,0.2-0.12,0.24L102.37,66.13z M99.97,74.17v14.51c1.12-0.71,2.26-1.42,3.41-2.13
	c1.22-0.75,2.42-1.48,3.62-2.2c0.12-0.9,0.24-1.79,0.35-2.66c-0.26-0.72-0.51-1.45-0.77-2.17l-0.78-2.2l0-0.01l-0.31-0.89
	c-0.45-1.32-0.91-2.64-1.4-4.09l0-0.01c-0.35-1.02-0.7-2.03-1.05-3.05l-1.04-3.03l0-0.01l-2.04-5.84V74.17z M99.6,89.03V74.17V60
	l0.13-0.42l-0.13,0.03V59.3c0-0.11,0.08-0.2,0.19-0.2c0.08,0,0.16,0.06,0.18,0.14l2.4,6.88l0,0.01l1.04,3.03
	c0.35,1.01,0.7,2.03,1.05,3.05l0,0.01c0.43,1.27,0.92,2.68,1.4,4.09l0.31,0.89l0,0.01l0.78,2.2c0.26,0.74,0.52,1.47,0.78,2.21
	c0.01,0.03,0.01,0.07,0.01,0.1h0c-0.13,0.96-0.25,1.88-0.37,2.8c-0.01,0.06-0.04,0.12-0.09,0.15c-1.24,0.74-2.47,1.49-3.69,2.24
	c-1.21,0.75-2.44,1.51-3.69,2.31c-0.09,0.06-0.2,0.03-0.26-0.07C99.61,89.1,99.6,89.07,99.6,89.03z"/>
<path class="st0" d="M99.79,89.03c0-4.95,0-9.91,0-14.86c0-4.95,0-9.92,0-14.87c-0.8,2.3-1.6,4.59-2.4,6.89
	c-0.7,2.03-1.4,4.06-2.1,6.1c-0.57,1.66-1.14,3.33-1.7,5c-0.53,1.47-1.05,2.95-1.56,4.44c0.12,0.94,0.24,1.87,0.37,2.8
	C94.86,85.98,97.32,87.48,99.79,89.03"/>
<path class="st1" d="M99.97,74.17v14.86h0c0,0.03-0.01,0.07-0.03,0.1c-0.05,0.09-0.17,0.12-0.26,0.07
	c-1.22-0.77-2.46-1.53-3.69-2.29c-1.25-0.76-2.47-1.5-3.67-2.21c-0.06-0.03-0.1-0.08-0.11-0.15c-0.12-0.88-0.24-1.81-0.37-2.74
	l-0.01-0.05l0.25-0.06l7.64-22.1c0.03-0.08-0.17-0.16-0.14-0.23c0.05-0.14-0.03,0.01,0.01-0.13c0.02-0.08,0.1-0.14,0.18-0.14
	c0.1,0,0.19,0.09,0.19,0.2V74.17z M99.6,88.68V74.17V60.41l-0.84,2.4c-0.43,1.23-0.83,2.39-1.19,3.44l-0.29,0.83
	c-0.62,1.79-1.23,3.57-1.81,5.26l0,0l0,0c-0.55,1.61-1.11,3.24-1.66,4.87l-0.04,0.12l0,0.01c-0.25,0.7-0.51,1.45-0.78,2.21
	c-0.25,0.72-0.51,1.45-0.76,2.18l0,0.01c0.11,0.87,0.23,1.74,0.35,2.64c1.22,0.73,2.43,1.45,3.61,2.17
	C97.32,87.26,98.45,87.96,99.6,88.68z"/>
<path class="st1" d="M99.73,59.6c-0.03,0.03-0.45,0.44-0.48,0.47c-1.46,1.39-2.92,2.78-4.35,4.16l0,0c-0.76,0.73-1.51,1.46-2.26,2.2
	c-0.73,0.71-1.46,1.43-2.18,2.15c0.15,1.14,0.31,2.35,0.47,3.55c0.13,0.99,0.26,1.98,0.39,2.97c0.2,1.49,0.4,3.01,0.61,4.53
	l0.25,1.81L99.73,59.6z M99.6,59.21l0.05-0.05c0.05-0.06,0.13-0.08,0.2-0.05c0.1,0.04,0.15,0.15,0.11,0.25
	c-0.4,1.15-0.8,2.3-1.2,3.45c-0.43,1.23-0.83,2.39-1.19,3.44l-0.29,0.83c-0.62,1.79-1.23,3.57-1.81,5.26l0,0.01
	c-0.55,1.61-1.11,3.24-1.66,4.87l-0.04,0.12l0,0c-0.25,0.71-0.52,1.45-0.78,2.21c-0.26,0.74-0.52,1.48-0.78,2.22h0
	c-0.02,0.07-0.08,0.12-0.15,0.13c-0.1,0.02-0.2-0.06-0.21-0.17l-0.28-2.06c-0.21-1.5-0.41-3-0.61-4.53
	c-0.13-0.99-0.26-1.98-0.39-2.97c-0.16-1.19-0.32-2.39-0.48-3.66c-0.01-0.06,0.01-0.12,0.06-0.17c0.75-0.74,1.5-1.48,2.26-2.22
	c0.75-0.74,1.51-1.47,2.26-2.2l0,0v0C96.32,62.33,97.96,60.77,99.6,59.21z"/>
<path class="st0" d="M99.79,59.3c1.67,1.59,3.34,3.18,5.02,4.78c1.5,1.46,3.01,2.92,4.52,4.4c-0.3,2.21-0.6,4.41-0.89,6.61
	c-0.29,2.2-0.59,4.39-0.88,6.59c-0.53-1.48-1.04-2.95-1.56-4.42c-0.57-1.67-1.14-3.33-1.71-4.98c-0.7-2.03-1.4-4.06-2.09-6.09
	C101.39,63.89,100.59,61.59,99.79,59.3"/>
<path class="st1" d="M109.51,68.5L109.51,68.5L109.51,68.5z M102.17,61.83l-1.94-1.85l2.14,6.14l0,0l0,0
	c0.3,0.88,0.63,1.83,1.04,3.04c0.35,1.01,0.7,2.03,1.05,3.05l0,0l0,0c0.43,1.27,0.92,2.68,1.4,4.09l0.31,0.89h0l0.78,2.21l0.53,1.49
	l0.31-2.32c0.16-1.16,0.31-2.33,0.47-3.5c0.19-1.42,0.38-2.8,0.56-4.18l0.32-2.33c-0.85-0.83-1.6-1.57-2.19-2.14
	c-0.64-0.62-1.38-1.35-2.25-2.19l0,0C103.7,63.29,102.87,62.5,102.17,61.83z M99.92,59.15c0.64,0.61,1.46,1.39,2.5,2.38
	c0.97,0.92,1.82,1.73,2.51,2.4l0,0c0.63,0.61,1.39,1.35,2.26,2.19c0.9,0.88,1.63,1.59,2.26,2.21c0.05,0.05,0.07,0.11,0.06,0.17
	c-0.12,0.91-0.22,1.66-0.33,2.43c-0.19,1.41-0.38,2.81-0.56,4.18c-0.15,1.17-0.31,2.33-0.47,3.49c-0.14,1.03-0.28,2.06-0.41,3.09
	c-0.01,0.11-0.11,0.18-0.21,0.17c-0.07-0.01-0.13-0.06-0.15-0.13c-0.26-0.74-0.52-1.47-0.78-2.21l-0.78-2.21l0,0h0l-0.31-0.89
	c-0.46-1.32-0.91-2.64-1.4-4.1h0c-0.35-1.02-0.7-2.03-1.05-3.05l-1.04-3.04h0l-2.4-6.89c-0.04-0.1,0.01-0.22,0.11-0.25
	C99.79,59.08,99.87,59.1,99.92,59.15z"/>
<path class="st1" d="M85.93,86.17c0.32,1.16,0.62,2.27,0.88,3.22l0.38-0.35c0.63-0.59,1.28-1.2,2.04-1.9
	c0.49-0.45,0.98-0.9,1.48-1.35c0.49-0.44,0.98-0.89,1.49-1.34c-0.07-0.54-0.15-1.12-0.23-1.72l-0.12-0.93l-0.77-1.15
	c-0.5-0.74-0.97-1.45-1.88-2.8c-0.9-1.33-1.79-2.69-2.73-4.1l-0.14-0.22c-0.49-0.74-1.02-1.55-1.66-2.52
	c-0.58-0.88-1.16-1.77-1.73-2.65c-0.58-0.9-1.18-1.84-1.8-2.8c-0.41-0.64-0.82-1.28-1.23-1.93c0.32,1.22,0.64,2.44,0.96,3.68
	c0.4,1.51,0.79,2.99,1.17,4.43c0.64,2.4,1.24,4.61,1.79,6.65l0.25,0.93c0.26,0.95,0.52,1.93,0.78,2.89c0.25,0.93,0.5,1.83,0.73,2.69
	L85.93,86.17z M86.53,89.78c-0.34-1.21-0.64-2.33-0.96-3.5l-0.35-1.27c-0.24-0.86-0.48-1.76-0.73-2.69c-0.24-0.89-0.5-1.85-0.78-2.9
	l-0.25-0.93c-0.55-2.05-1.15-4.25-1.79-6.65c-0.37-1.37-0.76-2.85-1.17-4.43l-1.1-4.23l0.07-0.29l-0.14,0.03l-0.1-0.39
	c-0.03-0.1,0.03-0.21,0.13-0.24c0.08-0.02,0.16,0.01,0.21,0.08v0c0.64,1.02,1.27,2,1.87,2.95c0.61,0.95,1.21,1.88,1.8,2.8
	c0.61,0.93,1.18,1.81,1.73,2.65c0.49,0.75,1.07,1.62,1.66,2.52l0.14,0.22c0.95,1.43,1.86,2.81,2.72,4.1
	c0.38,0.56,1.16,1.72,1.88,2.8l0.8,1.19c0.02,0.03,0.03,0.06,0.03,0.09h0l0.13,0.98c0.08,0.61,0.16,1.22,0.24,1.83
	c0.01,0.07-0.02,0.14-0.07,0.18c-0.54,0.48-1.07,0.95-1.57,1.4c-0.52,0.47-1.01,0.92-1.47,1.34c-0.65,0.6-1.36,1.27-2.04,1.9
	l-0.6,0.56c-0.08,0.07-0.2,0.07-0.27-0.02C86.55,89.84,86.54,89.81,86.53,89.78z"/>
<path class="st0" d="M86.72,89.74c-0.41-1.48-0.85-3.08-1.31-4.79c-0.47-1.72-0.98-3.59-1.52-5.58c-0.62-2.3-1.3-4.82-2.04-7.58
	c-0.75-2.82-1.56-5.9-2.44-9.3c-0.1,2.49-0.19,4.8-0.27,6.95c-0.08,2.1-0.15,4.05-0.21,5.87c-0.05,1.63-0.11,3.18-0.17,4.63
	c-0.05,1.43-0.1,2.92-0.15,4.18c0.32,0.83,0.58,1.49,0.89,2.25c1.2,0.57,2.45,1.13,3.62,1.68C84.33,88.62,85.53,89.17,86.72,89.74"
	/>
<path class="st1" d="M86.26,87.38c0.21,0.76,0.42,1.52,0.63,2.29c0.02,0.05,0.02,0.1-0.01,0.15c-0.04,0.1-0.15,0.14-0.25,0.1
	c-0.79-0.37-1.42-0.67-2.05-0.96l-0.01-0.01c-0.45-0.21-0.92-0.43-1.53-0.72c-0.56-0.26-1.16-0.54-1.76-0.82
	c-0.61-0.28-1.23-0.57-1.85-0.86c-0.05-0.02-0.09-0.06-0.11-0.11c-0.14-0.34-0.27-0.67-0.44-1.1c-0.14-0.36-0.29-0.73-0.45-1.15v0
	c-0.01-0.02-0.01-0.05-0.01-0.08c0-0.05,0.23-0.14,0.23-0.19l0.76-20.78l0.03-0.26l-0.23-0.4c0-0.08,0.06-0.16,0.14-0.18
	c0.1-0.03,0.2,0.03,0.23,0.14c0.42,1.63,0.85,3.25,1.27,4.86c0.41,1.54,0.79,3.01,1.17,4.42l0,0.01c0.44,1.65,0.86,3.21,1.26,4.69
	l0.78,2.88l0,0.01l0.36,1.34c0.43,1.58,0.83,3.06,1.15,4.23l0,0.01L86.26,87.38z M86.42,89.38c-0.16-0.59-0.34-1.23-0.52-1.9
	c-0.38-1.38-0.52-1.89-0.68-2.48l0-0.01c-0.41-1.48-0.77-2.82-1.15-4.23l-0.36-1.34l0-0.01l-0.78-2.88
	c-0.4-1.48-0.82-3.04-1.26-4.69l0-0.01c-0.37-1.41-0.76-2.88-1.17-4.42c-0.3-1.13-0.62-2.35-0.95-3.65
	c-0.08,1.92-0.14,3.74-0.21,5.45l-0.01,0.24c-0.04,1.06-0.08,2.09-0.11,3.04c-0.04,0.98-0.07,1.92-0.1,2.83l0,0.01
	c-0.04,1.23-0.08,2.4-0.13,3.51l-0.04,1.11c-0.03,0.79-0.06,1.59-0.08,2.36c-0.02,0.62-0.04,1.22-0.06,1.78
	c0.15,0.4,0.29,0.76,0.43,1.11c0.11,0.28,0.25,0.63,0.41,1.03c0.58,0.27,1.19,0.55,1.79,0.83c0.59,0.27,1.18,0.54,1.77,0.82
	c0.41,0.19,0.97,0.45,1.53,0.72l0.01,0.01C85.33,88.87,85.92,89.15,86.42,89.38z"/>
<path class="st0" d="M79.41,62.49c1.81,1.04,3.61,2.05,5.39,3.03c1.83,1.01,3.65,2,5.46,2.98c0.35,2.64,0.68,5.09,0.98,7.35
	c0.28,2.1,0.55,4.05,0.79,5.87c-0.86-1.28-1.76-2.61-2.69-3.99c-0.93-1.37-1.88-2.81-2.87-4.32c-1.08-1.64-2.22-3.36-3.4-5.18
	C81.9,66.42,80.68,64.51,79.41,62.49"/>
<path class="st1" d="M82.02,64.2c-0.68-0.38-1.36-0.77-2.04-1.16c0.5,0.78,0.98,1.55,1.45,2.29c0.61,0.95,1.21,1.88,1.8,2.8
	c0.61,0.93,1.18,1.81,1.73,2.65c0.49,0.75,1.07,1.62,1.66,2.52l0.14,0.22c0.95,1.43,1.86,2.81,2.72,4.1
	c0.38,0.56,1.16,1.72,1.88,2.8l0.36,0.53l-0.2-1.5c-0.15-1.12-0.31-2.29-0.48-3.57l-0.96-7.25c-0.97-0.52-1.84-1-2.63-1.43
	c-0.8-0.44-1.72-0.94-2.74-1.5C83.82,65.21,82.93,64.71,82.02,64.2 M79.5,62.32c0.91,0.52,1.81,1.03,2.7,1.53
	c0.9,0.5,1.79,1,2.69,1.5c0.81,0.45,1.72,0.95,2.74,1.5c1,0.55,1.91,1.04,2.72,1.48c0.06,0.03,0.09,0.09,0.1,0.15h0l0.98,7.35
	c0.16,1.21,0.32,2.41,0.48,3.56c0.1,0.76,0.2,1.5,0.31,2.3c0.01,0.11-0.06,0.21-0.16,0.22c-0.08,0.01-0.15-0.03-0.19-0.09
	l-0.79-1.18c-0.5-0.74-0.97-1.45-1.88-2.8c-0.9-1.33-1.79-2.69-2.73-4.1l-0.14-0.22c-0.49-0.74-1.02-1.55-1.66-2.52
	c-0.58-0.88-1.16-1.77-1.73-2.65c-0.58-0.9-1.18-1.84-1.8-2.8c-0.62-0.97-1.24-1.95-1.87-2.95c-0.06-0.09-0.03-0.21,0.05-0.27
	C79.37,62.28,79.44,62.28,79.5,62.32z"/>
<path class="st1" d="M78.63,63.66l0.61-1.25c0.03-0.07,0.1-0.12,0.18-0.12c0.1,0,0.18,0.1,0.18,0.2c-0.1,2.4-0.18,4.63-0.26,6.71
	l-0.01,0.24c-0.04,1.06-0.08,2.09-0.11,3.04c-0.04,0.98-0.07,1.92-0.1,2.83c-0.04,1.23-0.08,2.4-0.13,3.52l-0.04,1.11
	c-0.03,0.79-0.06,1.59-0.08,2.36c-0.02,0.63-0.04,1.25-0.06,1.82c0,0.08-0.05,0.15-0.12,0.18c-0.1,0.04-0.21-0.01-0.24-0.11
	c-0.3-0.79-0.62-1.62-0.96-2.53c-0.34-0.89-0.66-1.75-0.95-2.53l0-0.01c-0.37-0.98-0.76-1.96-1.16-2.98
	c-0.37-0.93-0.76-1.9-1.16-2.96c-0.02-0.05-0.02-0.11,0-0.17c0.36-0.79,0.75-1.62,1.15-2.49c0.41-0.88,0.79-1.69,1.16-2.47
	C77.15,66.69,77.87,65.21,78.63,63.66 M79.48,62.77l-0.52,1.07c-0.74,1.53-1.45,2.98-2.12,4.39c-0.41,0.86-0.79,1.7-1.16,2.47
	c-0.35,0.76-0.72,1.56-1.11,2.41c0.38,0.99,0.76,1.95,1.13,2.88c0.41,1.02,0.8,2.01,1.17,2.98l0,0.01c0.34,0.91,0.65,1.74,0.95,2.53
	c0.2,0.53,0.66,1.75,0.88,2.32C78.94,77.02,79.21,69.57,79.48,62.77z"/>
<path class="st1" d="M74.31,90.91l0.24,0.32l4.73-4.91l-0.05-0.13c-0.29-0.74-0.59-1.48-0.88-2.26l-0.91-0.89
	c-0.83-0.81-1.66-1.63-2.51-2.47c-0.57-0.57-1.14-1.14-1.72-1.73c-0.58-0.58-1.16-1.18-1.74-1.78c-0.62-0.63-1.25-1.29-1.89-1.96
	c-0.66-0.68-1.3-1.36-1.92-2.02l0,0l0,0c-0.63-0.67-1.27-1.36-1.9-2.04c-0.38-0.42-0.76-0.83-1.14-1.24c0.4,0.9,0.76,1.73,1.08,2.44
	c0.49,1.1,0.98,2.21,1.49,3.34c0.51,1.13,1,2.21,1.46,3.24c0.45,0.99,0.93,2.02,1.4,3.06c0.42,0.9,0.82,1.77,1.21,2.6
	c0.4,0.85,0.79,1.68,1.17,2.49C73.07,88.34,73.7,89.65,74.31,90.91 M74.22,91.48l-0.24-0.39c-0.61-1.26-1.24-2.58-1.88-3.94
	c-0.38-0.81-0.77-1.64-1.17-2.49c-0.4-0.87-0.81-1.74-1.21-2.61c-0.44-0.95-0.9-1.95-1.4-3.06c-0.49-1.07-0.98-2.15-1.47-3.24
	c-0.47-1.04-0.97-2.16-1.49-3.34c-0.58-1.3-0.77-1.76-1.25-2.86l-0.13-0.74l0.45,0.23c0.66,0.72,0.99,1.07,1.61,1.74
	c0.64,0.69,1.27,1.38,1.89,2.04l0,0c0.67,0.71,1.3,1.38,1.92,2.02c0.63,0.66,1.26,1.31,1.89,1.95c0.59,0.6,1.17,1.19,1.74,1.78
	c0.58,0.58,1.15,1.16,1.72,1.72c0.84,0.84,1.68,1.66,2.5,2.47l0.94,0.92c0.02,0.02,0.04,0.04,0.05,0.07c0.3,0.78,0.6,1.54,0.9,2.29
	l0.1,0.25c0.03,0.08,0.01,0.17-0.05,0.22l-5.12,5.25c-0.05-0.02-0.1-0.05-0.15-0.07L74.22,91.48z"/>
<path class="st0" d="M63.96,68.8c1.69,0.73,3.38,1.46,5.08,2.16c1.77,0.73,3.54,1.44,5.33,2.15c0.76,1.98,1.48,3.89,2.18,5.7
	c0.67,1.74,1.32,3.41,1.95,5.01c-1.13-1.11-2.29-2.23-3.45-3.39c-1.14-1.13-2.29-2.3-3.46-3.5c-1.25-1.28-2.52-2.6-3.81-3.98
	C66.52,71.61,65.25,70.23,63.96,68.8"/>
<path class="st1" d="M66.43,70.08c-0.57-0.24-1.14-0.49-1.72-0.74c0.44,0.49,0.88,0.97,1.31,1.43c0.63,0.69,1.26,1.37,1.88,2.03
	l0.01,0.01c0.67,0.71,1.3,1.38,1.92,2.02c0.63,0.66,1.26,1.31,1.89,1.95c0.59,0.6,1.17,1.19,1.74,1.78
	c0.58,0.58,1.15,1.16,1.72,1.72c0.84,0.84,1.68,1.66,2.5,2.47L78,83.06c-0.52-1.35-1.07-2.74-1.62-4.18
	c-0.35-0.91-0.71-1.84-1.07-2.79c-0.35-0.92-0.72-1.87-1.08-2.83c-0.91-0.36-1.79-0.72-2.59-1.04c-0.84-0.34-1.72-0.69-2.66-1.08
	C68.12,70.79,67.27,70.43,66.43,70.08 M74.44,72.92c0.05,0.02,0.09,0.06,0.11,0.12c0.38,0.99,0.75,1.96,1.11,2.91
	c0.36,0.95,0.72,1.88,1.07,2.79c0.62,1.6,1.22,3.15,1.8,4.64l0.14,0.37c0.04,0.1-0.01,0.22-0.1,0.26c-0.07,0.03-0.15,0.01-0.2-0.04
	l-0.94-0.93c-0.83-0.81-1.66-1.63-2.51-2.47c-0.57-0.57-1.14-1.14-1.72-1.73c-0.58-0.58-1.16-1.18-1.74-1.78
	c-0.62-0.63-1.25-1.29-1.89-1.96c-0.66-0.68-1.3-1.36-1.92-2.02l-0.01-0.01c-0.63-0.67-1.26-1.35-1.89-2.03
	c-0.65-0.71-1.02-1.11-1.65-1.81l-0.13-0.43L74.44,72.92z"/>
<path class="st0" d="M112.87,89.62c0.41-1.48,0.85-3.07,1.31-4.78c0.47-1.73,0.98-3.59,1.52-5.58c0.62-2.3,1.3-4.81,2.04-7.56
	c0.75-2.81,1.56-5.88,2.44-9.26c-1.27,2.01-2.49,3.92-3.67,5.74c-1.18,1.81-2.32,3.53-3.4,5.17c-0.99,1.51-1.94,2.95-2.87,4.33
	c-0.93,1.38-1.82,2.72-2.69,4c-0.13,0.97-0.25,1.91-0.37,2.8c1.07,0.95,2.09,1.85,3.04,2.72C111.15,88.04,112.03,88.85,112.87,89.62
	"/>
<path class="st1" d="M107.25,82.57l0.12-0.92h0L107.25,82.57z M107.37,81.65c0-0.03,0.01-0.06,0.03-0.09 M120.36,62.49
	c0.03-0.1-0.03-0.21-0.13-0.24c-0.08-0.02,0,0.2-0.05,0.27 M120.36,62.49c-0.44,1.69-0.87,3.3-1.27,4.84 M119.08,67.34
	c-0.42,1.6-0.81,3.07-1.17,4.42 M117.91,71.75c-0.58,2.17-1.11,4.14-1.61,5.98 M116.31,77.73l-0.43,1.59 M115.88,79.32
	c-0.27,1-0.53,1.96-0.78,2.89 M115.09,82.21l-0.73,2.69 M114.36,84.9l-0.19,0.71 M114.16,85.61c-0.38,1.38-0.73,2.68-1.12,4.07
	c-0.01,0.03-0.02,0.06-0.04,0.08c-0.07,0.08-0.19,0.09-0.26,0.02c-0.41-0.38-0.84-0.78-1.28-1.19c-0.42-0.39-0.88-0.8-1.36-1.24
	c-0.69-0.63-1.43-1.29-2.2-1.97l-0.83-0.74l-0.07-0.18c0.09-0.65,0.17-1.25,0.25-1.88 M112.77,89.27c0.3-1.1,0.66-2.4,1.04-3.77
	l0.19-0.71l0.73-2.69c0.25-0.93,0.52-1.89,0.78-2.89l0.43-1.59c0.51-1.87,1.05-3.88,1.61-5.98c0.39-1.46,0.78-2.93,1.17-4.41
	c0.31-1.18,0.63-2.4,0.96-3.66c-0.41,0.65-0.82,1.29-1.23,1.92c-0.61,0.96-1.21,1.9-1.8,2.8c-0.81,1.25-1.64,2.5-2.43,3.71
	l-0.97,1.47c-0.54,0.82-1.04,1.57-1.46,2.21l-0.01,0.01c-0.5,0.75-0.97,1.46-1.4,2.11l-0.06,0.08c-0.85,1.26-1.67,2.49-2.6,3.87
	l-0.12,0.87c-0.08,0.62-0.16,1.23-0.24,1.78l0.75,0.67c0.76,0.68,1.49,1.33,2.21,1.98c0.45,0.41,0.9,0.82,1.36,1.24
	C112.06,88.62,112.42,88.95,112.77,89.27z"/>
<path class="st1" d="M117.55,71.64c0.03-0.1,0.13-0.16,0.23-0.13L117.55,71.64z M113.68,87.37c-0.18,0.65-0.35,1.28-0.52,1.89
	l1.16-0.56c0.75-0.36,1.49-0.71,2.05-0.98c0.56-0.27,1.13-0.53,1.71-0.8c0.62-0.29,1.25-0.58,1.86-0.87
	c0.16-0.41,0.29-0.74,0.4-1.02l0.44-1.11c-0.03-0.89-0.07-1.89-0.1-2.89l-0.04-1.23c-0.02-0.61-0.05-1.25-0.07-1.91
	c-0.03-0.86-0.07-1.75-0.1-2.69l0,0c-0.03-0.9-0.06-1.84-0.1-2.82c-0.03-0.94-0.07-1.97-0.11-3.02c-0.03-0.9-0.07-1.83-0.11-2.79
	l-0.11-2.86c-0.44,1.67-0.86,3.27-1.26,4.79c-0.3,1.12-0.58,2.19-0.85,3.24l0,0.01c-0.4,1.47-0.77,2.87-1.13,4.21l-0.9,3.35l0,0.01
	l-0.48,1.76c-0.32,1.16-0.61,2.26-1.04,3.8l0,0.02C114.18,85.57,113.97,86.32,113.68,87.37z M112.69,89.56
	c0.2-0.74,0.42-1.5,0.63-2.29c0.15-0.54,0.39-1.44,0.68-2.47l0.01-0.02c0.24-0.87,0.63-2.3,1.03-3.8l0.48-1.76l0-0.01l0.9-3.35
	c0.36-1.34,0.74-2.74,1.13-4.21l0-0.01c0.27-1.04,0.56-2.12,0.85-3.24c0.44-1.65,0.9-3.38,1.37-5.21c0.03-0.12,0.18-0.29,0.21-0.41
	c0.02-0.07-0.07-0.11-0.05-0.18c0.02-0.07,0.04-0.14,0.05-0.21c0.03-0.1,0.13-0.17,0.23-0.14c0.08,0.02,0.14,0.1,0.14,0.19
	c0.05,1.42,0.11,2.8,0.16,4.12c0.04,0.96,0.07,1.89,0.11,2.79c0.04,1.03,0.08,2.02,0.11,3.02c0.04,0.97,0.07,1.91,0.1,2.82l0,0.01
	c0.03,0.91,0.06,1.81,0.1,2.68c0.02,0.65,0.05,1.28,0.07,1.91l0.04,1.23c0.03,1.02,0.07,2.03,0.1,2.93c0,0.03,0,0.06-0.01,0.08v0
	l-0.45,1.15c-0.17,0.42-0.31,0.78-0.43,1.1c-0.02,0.05-0.05,0.08-0.1,0.1l0,0c-0.64,0.3-1.29,0.61-1.93,0.91
	c-0.58,0.27-1.15,0.54-1.7,0.8c-0.81,0.38-1.43,0.68-2.05,0.98c-0.61,0.29-1.22,0.59-1.53,0.74c-0.09,0.04-0.21,0-0.25-0.1
	C112.67,89.66,112.67,89.6,112.69,89.56z"/>
<path class="st1" d="M117.38,63.8c0.89-0.5,1.79-1.01,2.7-1.53c0.06-0.04,0.14-0.04,0.2,0.01c0.09,0.06,0.11,0.18,0.05,0.27
	c-0.64,1-1.26,1.99-1.87,2.94c-0.61,0.96-1.21,1.9-1.8,2.8c-0.81,1.25-1.64,2.5-2.43,3.71l-0.97,1.47
	c-0.54,0.82-1.04,1.57-1.46,2.21l0,0v0c-0.5,0.76-0.98,1.47-1.41,2.12l-0.06,0.08c-0.86,1.28-1.69,2.51-2.63,3.91
	c-0.04,0.06-0.11,0.1-0.18,0.09c-0.1-0.01-0.17-0.11-0.16-0.22c0.11-0.78,0.2-1.47,0.3-2.18c0.16-1.19,0.33-2.43,0.5-3.68l0.01-0.07
	c0.3-2.24,0.62-4.65,0.97-7.27c0.01-0.06,0.04-0.12,0.1-0.15c0.96-0.52,1.86-1.02,2.72-1.49c0.84-0.46,1.76-0.97,2.74-1.51
	C115.62,64.79,116.52,64.29,117.38,63.8 M120.11,62.7c-0.06,0.04-0.63,0.37-0.7,0.4c-0.62,0.35-1.23,0.7-1.85,1.05
	c-0.94,0.53-1.83,1.03-2.69,1.5c-0.85,0.47-1.76,0.98-2.74,1.51c-0.93,0.51-1.81,0.99-2.63,1.44c-0.34,2.58-0.66,4.96-0.95,7.17
	l-0.01,0.07c-0.17,1.31-0.34,2.52-0.5,3.68l-0.27,1.97C111.93,75.3,116.12,68.98,120.11,62.7z"/>
<path class="st0" d="M120.17,62.44c0.98,2,1.9,3.86,2.73,5.62c0.76,1.63,1.53,3.28,2.3,4.93c-0.82,2.15-1.61,4.03-2.32,5.91
	c-0.64,1.69-1.28,3.38-1.92,5.06c-0.05-1.26-0.1-2.74-0.15-4.16c-0.05-1.44-0.11-2.97-0.17-4.6c-0.06-1.81-0.13-3.75-0.21-5.84
	C120.36,67.22,120.27,64.92,120.17,62.44"/>
<path class="st1" d="M120.65,63.83l-0.25-0.51c0.04,1.11,0.08,2.19,0.13,3.24c0.04,0.96,0.07,1.89,0.11,2.79
	c0.04,1.03,0.08,2.02,0.11,3.02c0.04,0.97,0.07,1.91,0.1,2.82v0c0.03,0.92,0.06,1.82,0.1,2.69c0.02,0.65,0.05,1.28,0.07,1.91
	l0.04,1.23l0.07,2l0.79-2.08l0.8-2.1c0.37-0.98,0.74-1.9,1.11-2.84l0,0l0,0c0.38-0.95,0.77-1.93,1.17-2.99l-0.87-1.86
	c-0.46-0.99-0.92-1.99-1.39-2.97l-0.01-0.01C122.08,66.75,121.38,65.33,120.65,63.83 M120.34,62.35l0.64,1.3
	c0.75,1.53,1.46,2.98,2.1,4.32l0.01,0.01c0.46,0.99,0.92,1.98,1.39,2.97l0.9,1.94c0.02,0.05,0.02,0.11,0.01,0.16h0
	c-0.41,1.07-0.82,2.09-1.21,3.08l0,0c-0.4,0.99-0.78,1.95-1.11,2.83l-0.8,2.1c-0.37,0.99-0.75,1.97-1.12,2.95
	c-0.04,0.1-0.15,0.15-0.24,0.11c-0.07-0.03-0.12-0.1-0.12-0.18c-0.03-0.9-0.07-1.91-0.1-2.93l-0.04-1.23
	c-0.02-0.61-0.05-1.25-0.07-1.91c-0.03-0.86-0.07-1.75-0.1-2.69c-0.03-0.9-0.06-1.84-0.1-2.82c-0.03-0.94-0.07-1.97-0.11-3.02
	c-0.03-0.9-0.07-1.83-0.11-2.79c-0.05-1.31-0.11-2.68-0.16-4.13c0-0.11,0.08-0.2,0.18-0.2C120.24,62.24,120.31,62.29,120.34,62.35z"
	/>
<path class="st0" d="M125.07,91.54c0.72-1.49,1.47-3.04,2.25-4.68c0.77-1.61,1.56-3.31,2.37-5.06c0.91-1.96,1.88-4.04,2.88-6.24
	c0.98-2.16,1.98-4.42,3.04-6.81c-1.29,1.41-2.56,2.77-3.82,4.1c-1.29,1.36-2.56,2.67-3.8,3.94c-1.17,1.2-2.33,2.35-3.46,3.48
	c-1.17,1.16-2.36,2.38-3.49,3.48c-0.34,0.87-0.64,1.62-0.96,2.45c0.91,0.95,1.77,1.86,2.61,2.76
	C123.52,89.84,124.31,90.71,125.07,91.54"/>
<path class="st1" d="M125.5,91.08l-0.43,0.45l-5.11-5.19c-0.06-0.05-0.08-0.14-0.05-0.22c0.22-0.54,0.4-1.01,0.58-1.49l0.33-0.84
	l0.14,0.01l14.65-15.05l-0.14,0.79c-0.17,0.97-0.81,1.83-1.24,2.79c-0.54,1.2-1.04,2.31-1.49,3.32c-0.87,1.93-1.76,3.84-2.61,5.66
	l-0.27,0.58l-0.28,0.59c-0.72,1.54-1.41,3.03-2.1,4.48C126.74,88.51,126.11,89.83,125.5,91.08 M125.02,91.2l0.14-0.3
	c0.67-1.39,1.37-2.83,1.99-4.13c0.68-1.42,1.38-2.92,2.1-4.47l0.27-0.59l0.27-0.58c0.82-1.77,1.69-3.63,2.61-5.66
	c0.52-1.15,1.01-2.25,1.49-3.32c0.34-0.76,0.7-1.57,1.08-2.43c-2.24,2.43-4.53,4.83-6.84,7.2c-2.14,2.19-4.32,4.33-6.51,6.47
	l-0.38,0.37c-0.18,0.46-0.29,0.73-0.4,1.02c-0.19,0.48-0.38,0.96-0.54,1.37c0.43,0.44,0.84,0.88,1.24,1.31
	c1.1,1.16,2.18,2.33,3.26,3.5L125.02,91.2z"/>
<path class="st1" d="M125.03,72.92L125.03,72.92L125.03,72.92z M135.61,68.75l-0.09,0.38l-1.7,1.84c-0.64,0.69-1.27,1.36-1.89,2.02
	c-0.64,0.68-1.28,1.35-1.92,2c-0.64,0.67-1.27,1.31-1.88,1.94c-0.59,0.6-1.17,1.19-1.75,1.77c-0.58,0.58-1.15,1.15-1.72,1.71
	c-1.03,1.02-2.04,2.01-3.04,2.99l-0.41,0.4c-0.05,0.05-0.13,0.07-0.2,0.04c-0.1-0.04-0.14-0.16-0.1-0.26l0.38-0.97
	c0.5-1.27,1.01-2.58,1.57-4.02c0.38-0.99,0.8-2.08,1.07-2.77c0.38-0.99,0.75-1.97,1.11-2.9l0.11-0.11L135.61,68.75z M135.14,69.24
	l-9.79,3.9c-0.38,1.01-0.74,1.94-1.08,2.82c-0.46,1.2-0.75,1.96-1.07,2.78c-0.52,1.34-1.05,2.7-1.57,4.02l-0.29,0.75
	C125.97,78.99,130.75,74,135.14,69.24z"/>
<path class="st0" d="M86.72,89.74c-0.41-1.48-0.85-3.08-1.31-4.79c-0.47-1.72-0.98-3.59-1.52-5.58c-0.62-2.3-1.3-4.82-2.04-7.58
	c-0.75-2.82-1.56-5.9-2.44-9.3c-0.1,2.49-0.19,4.8-0.27,6.95c-0.08,2.1-0.15,4.05-0.21,5.87c-0.05,1.63-0.11,3.18-0.17,4.63
	c-0.05,1.43-0.1,2.78-0.14,4.04c0.7,0.52,1.41,1.02,2.11,1.52c0.7,0.5,1.39,0.99,2.08,1.48C84.13,87.93,85.44,88.84,86.72,89.74"/>
<path class="st0" d="M86.72,89.74c-0.41-1.48-0.84-3.08-1.31-4.79c-0.47-1.72-0.98-3.59-1.52-5.58c-0.62-2.3-1.3-4.81-2.04-7.58
	c-0.75-2.82-1.56-5.9-2.44-9.3c1.27,2.02,2.49,3.93,3.67,5.75c1.18,1.82,2.31,3.53,3.4,5.18c0.99,1.5,1.94,2.94,2.87,4.32
	c0.93,1.38,1.82,2.71,2.69,3.99c-1.06,1.57-2.05,3.03-2.95,4.4C88.23,87.4,87.44,88.61,86.72,89.74z"/>
<path class="st0" d="M74.51,91.77c-0.72-1.49-1.48-3.07-2.25-4.71c-0.77-1.63-1.56-3.32-2.38-5.1c-0.91-1.98-1.88-4.08-2.87-6.3
	l-3.04-6.86l14.66,15.17L74.51,91.77z"/>
<path class="st0" d="M74.51,91.77c-1.76-3.67-3.54-7.41-5.28-11.21c-1.77-3.85-3.51-7.77-5.26-11.76c0.44,3.31,0.88,6.6,1.33,9.88
	c0.44,3.27,0.88,6.52,1.33,9.76C69.24,89.58,71.88,90.69,74.51,91.77"/>
<path class="st0" d="M99.79,89.03c-0.02-4.95-0.01-9.92,0-14.87c0.01-4.95,0.02-9.91,0-14.87c-0.8,2.3-1.6,4.59-2.4,6.89
	c-0.7,2.03-1.4,4.06-2.1,6.1c-0.57,1.66-1.14,3.33-1.7,5c-0.53,1.47-1.05,2.95-1.56,4.44C94.61,84.12,97.2,86.55,99.79,89.03"/>
<path class="st0" d="M99.79,89.03c0-4.95,0-9.91,0-14.86c0-4.95,0-9.92,0-14.87c1.29,3.7,2.59,7.4,3.88,11.12
	c1.29,3.73,2.59,7.49,3.89,11.26C104.96,84.09,102.37,86.54,99.79,89.03z"/>
<path class="st0" d="M112.87,89.62c0.41-1.48,0.85-3.07,1.31-4.78c0.47-1.73,0.98-3.59,1.52-5.58c0.62-2.3,1.3-4.81,2.04-7.56
	c0.74-2.81,1.56-5.88,2.44-9.26c0.09,2.48,0.19,4.78,0.27,6.91c0.08,2.09,0.15,4.03,0.21,5.84c0.05,1.63,0.12,3.16,0.17,4.6
	c0.05,1.42,0.1,2.76,0.14,4.02c-0.71,0.52-1.41,1.03-2.11,1.53c-0.7,0.5-1.39,0.99-2.07,1.49
	C115.45,87.79,114.14,88.72,112.87,89.62"/>
<path class="st0" d="M112.87,89.62c0.41-1.48,0.85-3.07,1.31-4.78c0.47-1.73,0.98-3.59,1.52-5.58c0.62-2.3,1.3-4.81,2.04-7.56
	c0.75-2.81,1.56-5.88,2.44-9.26c-1.27,2.01-2.49,3.92-3.67,5.74c-1.18,1.81-2.32,3.53-3.4,5.17c-0.99,1.51-1.94,2.95-2.87,4.33
	c-0.93,1.38-1.82,2.72-2.69,4c1.06,1.56,2.05,3.01,2.95,4.37C111.35,87.32,112.13,88.51,112.87,89.62"/>
<path class="st0" d="M125.07,91.54c0.72-1.49,1.47-3.04,2.25-4.68c0.77-1.61,1.56-3.31,2.37-5.06c0.91-1.96,1.88-4.04,2.88-6.24
	c0.98-2.16,1.98-4.42,3.04-6.81l-14.65,15.05L125.07,91.54z"/>
<path class="st0" d="M125.07,91.54c1.75-3.65,3.52-7.36,5.26-11.12c1.77-3.82,3.51-7.71,5.27-11.66c-0.44,3.29-0.89,6.58-1.33,9.83
	c-0.43,3.24-0.88,6.48-1.32,9.7C130.33,89.38,127.7,90.47,125.07,91.54"/>
<path class="st2" d="M80.25,65.7c-0.05,1.59-0.1,3.19-0.14,4.78c-0.04,1.59-0.09,3.19-0.13,4.78c-0.05,1.54-0.11,3.08-0.17,4.62
	c-0.04,1.15-0.08,2.3-0.12,3.45c0.56,0.4,1.12,0.81,1.69,1.22c0.69,0.5,1.39,0.99,2.08,1.49c0.47,0.32,2.33,1.64,2.78,1.97
	c-1.01-3.67-2.02-7.37-3.02-11.08C82.21,73.19,81.22,69.43,80.25,65.7"/>
<path class="st2" d="M73.69,90.07c-1.37-2.88-2.75-5.79-4.1-8.74c-1.37-2.98-2.73-6.01-4.1-9.07c0.34,2.57,0.69,5.13,1.04,7.68
	c0.34,2.54,0.7,5.07,1.05,7.59C69.62,88.39,71.65,89.24,73.69,90.07"/>
<path class="st2" d="M99.79,87.58c0-4.21,0-8.43,0-12.64c0-4.21,0.01-8.44,0.02-12.65c-0.12,0.37-1.29,3.88-1.42,4.25
	c-0.69,2.02-1.4,4.05-2.09,6.08c-0.56,1.66-1.14,3.32-1.7,4.98c-0.43,1.28-0.87,2.55-1.3,3.83c1.24,1.13,2.48,2.26,3.72,3.4
	C97.93,85.74,98.86,86.66,99.79,87.58"/>
<path class="st2" d="M119.34,65.64c0.04,1.58,0.09,3.17,0.13,4.76c0.04,1.58,0.09,3.17,0.14,4.75c0.05,1.53,0.11,3.06,0.17,4.59
	c0.04,1.15,0.08,2.3,0.12,3.44c-0.56,0.4-1.13,0.81-1.69,1.22c-0.69,0.5-1.39,0.99-2.08,1.5c-0.46,0.34-2.32,1.66-2.78,2
	c1.01-3.67,2.02-7.37,3.01-11.08C117.36,73.09,118.35,69.35,119.34,65.64"/>
<path class="st2" d="M125.89,89.85c1.37-2.86,2.74-5.75,4.1-8.68c1.37-2.96,2.73-5.96,4.11-9c-0.35,2.55-0.71,5.1-1.05,7.63
	c-0.34,2.52-0.69,5.04-1.04,7.54C129.96,88.2,127.93,89.03,125.89,89.85"/>
<path class="st1" d="M109.68,158.56c0,17.42,3.64,34.78,10.2,49.63H79.4c6.71-14.99,10.44-32,10.44-49.63H109.68z"/>
<path class="st1" d="M121.81,208.12H77.46c-1.11,0-1.81,1.2-1.27,2.17l3.2,3.86h40.48l3.2-3.87
	C123.63,209.32,122.93,208.12,121.81,208.12"/>
<path class="st1" d="M131.46,235.71H67.81c-0.98,0-1.91,0.26-2.7,0.73c-1.6,0.93-2.68,2.66-2.68,4.65h74.4
	C136.84,238.12,134.43,235.71,131.46,235.71"/>
<polygon class="st1" points="110.18,241.09 62.44,241.09 62.44,246.46 136.84,246.46 136.84,241.09 "/>
<path class="st1" d="M130.49,223.13c-1.34-0.79-2.64-1.66-3.88-2.61c-1.24-0.94-2.43-1.95-3.55-3.02c-0.58-0.55-1.14-1.12-1.68-1.7
	c-0.21-0.23-1.43-1.61-1.43-1.61h-40.6c0,0-1.22,1.38-1.43,1.61c-0.54,0.58-1.11,1.15-1.68,1.7c-1.13,1.07-2.31,2.08-3.55,3.02
	c-1.24,0.94-2.54,1.81-3.88,2.61c-2.92,1.72-6.35,3.28-6.35,7.21c0,2.97,2.41,5.38,5.38,5.38h63.65c2.97,0,5.38-2.41,5.38-5.38
	C136.84,226.41,133.4,224.85,130.49,223.13"/>
<path class="st1" d="M114.23,151.05H85.18c-2.07,0-3.76,1.68-3.76,3.76c0,2.06,1.67,3.74,3.73,3.75v0h28.94
	c0.28,0,0.55-0.03,0.82-0.09c1.68-0.37,2.94-1.87,2.94-3.67C117.85,153.01,116.7,151.05,114.23,151.05"/>
<path class="st1" d="M112.68,145.72H86.6c-1.49,0-2.69,1.2-2.69,2.69c0,1.49,1.2,2.69,2.69,2.69h26.08v-0.01
	c0.13-0.01,0.25-0.03,0.37-0.05c1.2-0.27,2.11-1.34,2.11-2.62C115.16,147.12,114.27,145.72,112.68,145.72"/>
<path class="st1" d="M123.44,95.65c-1.01-1.32-2.61-2.17-4.4-2.17c-0.94,0-1.87,0.24-2.69,0.69c-0.96,0.53-1.65,1.4-2.24,2.31
	c-0.59,0.91-1.44,1.64-2.44,2.08c-0.7,0.31-1.46,0.46-2.22,0.46c-1.96,0-3.73-1.2-4.82-2.78c-1.12-1.63-2.73-2.77-4.78-2.77
	c-0.06,0-0.12,0-0.18,0.01c-0.06,0-0.12-0.01-0.18-0.01c-2.04,0-3.65,1.14-4.78,2.77c-1.09,1.58-2.85,2.78-4.82,2.78
	c-0.76,0-1.52-0.16-2.22-0.46c-1-0.44-1.85-1.17-2.44-2.08c-0.59-0.91-1.28-1.77-2.24-2.31c-0.82-0.46-1.75-0.69-2.69-0.69
	c-1.79,0-3.39,0.85-4.4,2.17c0.13,0.22,0.25,0.44,0.38,0.66c8.08,10.96,12.66,24.49,12.7,39.14h-0.04
	c0.11,3.41,0.06,7.09-1.11,10.35h23.67c-1.17-3.25-1.22-6.93-1.11-10.35c0.04-14.65,4.58-28.18,12.66-39.14
	C123.18,96.09,123.31,95.87,123.44,95.65"/>
<path class="st1" d="M110.48,141.91H88.86c-0.84,0-1.52-0.68-1.52-1.52c0-0.84,0.68-1.52,1.52-1.52h21.63
	c0.84,0,1.52,0.68,1.52,1.52C112,141.23,111.32,141.91,110.48,141.91"/>
</svg>
