<?xml version="1.0" encoding="utf-8"?>
<!-- Generator: Adobe Illustrator 24.0.3, SVG Export Plug-In . SVG Version: 6.00 Build 0)  -->
<svg version="1.1" id="Layer_1" xmlns="http://www.w3.org/2000/svg" xmlns:xlink="http://www.w3.org/1999/xlink" x="0px" y="0px"
	 viewBox="0 0 200 300" style="enable-background:new 0 0 200 300;" xml:space="preserve">
<style type="text/css">
	.st0{fill-rule:evenodd;clip-rule:evenodd;fill:#1D1D1D;}
	.st1{fill:#1D1D1D;}
	.st2{fill-rule:evenodd;clip-rule:evenodd;fill:#FFFFFF;}
</style>
<path class="st0" d="M112.31,75.9c0-0.24,0-0.41,0-0.49c0-3.31-0.06-6.63-0.34-9.99c-0.64-7.63-1.79-24.38-9.73-28.38
	c-7.94,4-9.08,20.75-9.72,28.38c-0.28,3.36-0.34,6.68-0.34,9.99c0,0.08,0,0.25,0,0.47c0.69,1.72,1.45,3.42,2.3,5.12
	c-1.21,15.11,13.45,23.93,15.51-4.59C110.76,76.23,111.53,76.06,112.31,75.9"/>
<path class="st0" d="M136.67,96.7c2.06-5.17,4.38-10.83,5.14-15.42c1.11-6.73,0.68-13.3-0.35-19.8c-0.88-5.53-2.96-10.75-3.24-16.6
	c-0.16-3.28-0.06-6.56,0.4-9.84c-10.16,1.44-17.38,6.81-21.64,16.11c-5.01,10.93-6.03,22.26-10.45,33.48
	c-1.41,3.59-2.73,7.52-4.8,11.12c2.14-0.56-7.73,3.45-5.53,3.07c-7.71,9.51,20.48,18.93,38.42-3.24
	C135.56,95.88,135.73,96.33,136.67,96.7"/>
<path class="st0" d="M69.57,101.18c-1.11-1.99-3.68-6.89-4.29-8.13c-2.99-6.09-5.26-13.3-6.24-19.01c-1.16-6.73-0.72-13.3,0.37-19.8
	c0.92-5.53,3.1-10.75,3.39-16.6c0.16-3.28,0.06-6.56-0.42-9.84C73,29.23,80.54,34.61,85,43.91c3.48,7.26,5.12,14.69,7.18,22.15
	c2.19,7.95,4.76,16.81,9.51,24.38c0.39,0.61,0.79,1.21,1.23,1.8c-1.28,0.56-2.51,1.14-3.69,1.74c-0.51,0.26-1.03,0.52-1.54,0.78
	c6.32,4.43-13.44,17.56-25.91,6.6C71.05,101.32,70.31,101.26,69.57,101.18"/>
<path class="st1" d="M116.89,134.58c0,25.05,5.23,50.02,14.67,71.38H73.33c9.65-21.56,15.01-46.02,15.01-71.38H116.89z"/>
<path class="st1" d="M134.34,205.86H70.55c-1.6,0-2.61,1.72-1.82,3.12l4.6,5.56h58.23l4.6-5.56
	C136.94,207.58,135.94,205.86,134.34,205.86"/>
<path class="st1" d="M148.21,245.54H56.67c-1.42,0-2.74,0.38-3.88,1.05c-2.3,1.34-3.85,3.83-3.85,6.69h107.01
	C155.94,249,152.48,245.54,148.21,245.54"/>
<polygon class="st1" points="117.6,253.27 48.94,253.27 48.94,261 155.94,261 155.94,253.27 "/>
<path class="st1" d="M146.81,227.44c-1.93-1.14-3.8-2.39-5.59-3.75c-1.78-1.35-3.49-2.8-5.11-4.34c-0.83-0.79-1.64-1.6-2.42-2.44
	c-0.3-0.33-2.06-2.31-2.06-2.31H73.25c0,0-1.75,1.99-2.06,2.31c-0.78,0.84-1.59,1.65-2.42,2.44c-1.62,1.54-3.33,2.99-5.11,4.34
	c-1.79,1.35-3.66,2.61-5.59,3.75c-4.19,2.48-9.13,4.72-9.13,10.36c0,4.27,3.46,7.73,7.73,7.73h91.54c4.27,0,7.73-3.46,7.73-7.73
	C155.94,232.16,151.01,229.92,146.81,227.44"/>
<path class="st1" d="M121.2,130.8c0-1.85-1.3-3.39-3.03-3.78v-0.09H87.55c-2.14,0-3.87,1.73-3.87,3.87c0,2.14,1.73,3.87,3.87,3.87
	c0.29,0,0.57-0.03,0.84-0.09h28.09c0.27,0.06,0.55,0.09,0.84,0.09c0.29,0,0.57-0.03,0.84-0.09C119.9,134.2,121.2,132.65,121.2,130.8
	"/>
<path class="st1" d="M113.37,91.06H90.7c-4.52,0-10.27,0-14.57,0h-7.89c-1.63,0-2.81,1.03-2.35,2.06l9.07,20.31
	c0.76,1.71,3.16,2.89,5.88,2.89h42.4c2.72,0,5.11-1.18,5.88-2.89l9.07-20.31c0.46-1.03-0.72-2.06-2.35-2.06h-7.89
	C123.64,91.06,117.88,91.06,113.37,91.06"/>
<path class="st1" d="M123.02,116.32H81.25c-2.98,0-5.4,2.42-5.4,5.4c0,2.97,2.39,5.38,5.36,5.4v0h41.62c0.4,0,0.8-0.05,1.17-0.13
	c2.42-0.54,4.23-2.69,4.23-5.27C128.22,119.14,126.57,116.32,123.02,116.32"/>
<path class="st2" d="M60.28,50.13c-0.06,0.33-0.18,0.66-0.24,0.99h13.41v-0.99H60.28z"/>
<path class="st2" d="M59.68,52.76c-0.08,0.33-0.11,0.66-0.19,0.99h13.2v-0.99H59.68z"/>
<path class="st2" d="M59.06,56.37l12.97,0v-0.99H59.22"/>
<path class="st2" d="M58.75,58.9h12.51v-0.99H58.87"/>
<path class="st2" d="M58.52,61.42h11.98v-0.99H58.6"/>
<path class="st2" d="M58.44,62.85c0,0.32-0.04,0.66-0.04,0.99h11.23v-0.99H58.44z"/>
<path class="st2" d="M58.37,65.94h10.61v-0.99H58.35"/>
<path class="st2" d="M58.37,67.03c0,0.33,0.04,0.66,0.03,0.99h9.21v-0.99H58.37z"/>
<path class="st2" d="M58.46,69.1c0.01,0.33,0.05,0.64,0.07,0.99h7.83V69.1H58.46z"/>
<path class="st2" d="M58.64,71.17c0.05,0.33,0.08,0.66,0.12,0.99h6.78v-0.99"/>
<path class="st2" d="M138.91,50.24h-8.56v0.99h8.76"/>
<path class="st2" d="M139.5,52.87h-9.91v0.99h10.15"/>
<path class="st2" d="M140.15,55.5H128.3v0.99h12.1C140.32,56.16,140.23,55.83,140.15,55.5z"/>
<path class="st2" d="M128.16,58.02v0.99h12.82c-0.1-0.33-0.13-0.66-0.22-0.99"/>
<path class="st2" d="M141.28,60.51c0,0,0.28,0,0.28,0h-14.82v0.99l14.71-0.02"/>
<polygon class="st2" points="126.51,62.58 141.62,62.58 141.76,63.57 126.51,63.57 "/>
<polygon class="st2" points="126.09,64.65 141.9,64.65 142.02,65.64 126.09,65.64 "/>
<polygon class="st2" points="94.65,49.85 100.46,49.85 100.46,50.84 94.42,50.84 "/>
<polygon class="st2" points="94.25,51.66 99.66,51.66 99.66,52.65 94.05,52.65 "/>
<polygon class="st2" points="93.9,53.47 99.06,53.47 99.06,54.46 93.73,54.5 "/>
<polygon class="st2" points="93.62,55.17 98.24,55.17 98.24,56.16 93.48,56.16 "/>
<polygon class="st2" points="93.36,57.04 97.69,57.04 97.69,58.02 93.23,58.02 "/>
</svg>
