<?xml version="1.0" encoding="utf-8"?>
<!-- Generator: Adobe Illustrator 24.0.3, SVG Export Plug-In . SVG Version: 6.00 Build 0)  -->
<svg version="1.1" id="Layer_1" xmlns="http://www.w3.org/2000/svg" xmlns:xlink="http://www.w3.org/1999/xlink" x="0px" y="0px"
	 viewBox="0 0 380 130" style="enable-background:new 0 0 380 130;" xml:space="preserve">
<style type="text/css">
	.st0{fill:#0094D9;}
	.st1{fill-rule:evenodd;clip-rule:evenodd;fill:#EC1C24;}
	.st2{fill:#FFFFFF;}
	.st3{fill-rule:evenodd;clip-rule:evenodd;fill:#00A551;}
	.st4{fill:#43525A;}
	.st5{fill:#D1AA67;}
	.st6{font-family:'ProximaNova-SemiBold';}
	.st7{font-size:21px;}
</style>
<polygon class="st0" points="76.85,38.44 66.57,28.1 56.28,38.44 55.92,38.81 55.4,38.8 40.81,38.77 40.84,52.51 92.29,52.51 
	92.33,38.77 77.74,38.8 77.22,38.81 "/>
<polygon class="st1" points="40.84,77.05 92.29,77.05 92.29,75.7 92.29,75.18 92.65,74.81 103,64.53 92.66,54.24 92.29,53.87 
	92.29,53.36 92.29,52.51 40.84,52.51 40.85,53.36 40.85,53.87 40.48,54.24 30.14,64.53 40.48,74.81 40.85,75.18 40.85,75.7 "/>
<path class="st2" d="M66.61,48.81c-3.64,0.02-5.24,3.29-5.24,3.3l-0.1,0.2l-0.15-0.17c-0.89-1-2.09-1.85-3.33-2.44
	c-1.27-0.61-2.59-0.94-3.67-0.89c-1.25,0.05-3.15,0.71-4.48,2.68c-0.93,1.38-1.58,3.41-1.54,6.32c0.08,6.34,2.84,9.01,4.18,10.31
	c0.14,0.14,0.27,0.26,0.37,0.37c0.47-0.72,1.94-1.36,4.08-1.83c2.56-0.56,6.09-0.91,9.98-0.91c3.9,0,7.42,0.35,9.98,0.91
	c2.06,0.45,3.5,1.05,4.02,1.74c0.09-0.09,0.19-0.18,0.29-0.29c1.33-1.29,4.09-3.97,4.18-10.31c0.04-2.91-0.61-4.94-1.54-6.32
	c-1.33-1.97-3.22-2.63-4.48-2.68c-1.08-0.05-2.4,0.29-3.67,0.89c-1.24,0.59-2.44,1.44-3.33,2.44l-0.15,0.17l-0.1-0.2
	c0-0.01-1.6-3.28-5.24-3.3H66.61z"/>
<polygon class="st3" points="40.84,77.05 92.29,77.05 92.33,90.29 77.74,90.25 77.22,90.25 76.85,90.61 66.57,100.96 56.28,90.61 
	55.92,90.25 55.4,90.25 40.81,90.29 "/>
<path class="st4" d="M76.64,74.39c-2.54-0.56-6.05-0.9-9.93-0.9c-3.88,0-7.39,0.34-9.93,0.9c-2.47,0.54-4,1.26-4,2.03
	c0,0.77,1.53,1.49,4,2.03c2.54,0.56,6.05,0.9,9.93,0.9c3.88,0,7.39-0.34,9.93-0.9c2.47-0.54,4-1.26,4-2.03
	C80.64,75.65,79.11,74.93,76.64,74.39 M80.64,75.72l-0.04-6.85c-0.16-0.72-1.65-1.39-3.98-1.9c-2.54-0.56-6.04-0.9-9.92-0.9
	c-3.87,0-7.38,0.34-9.92,0.9c-2.47,0.54-4,1.26-4,2.03l0,6.73c0.59-0.65,1.99-1.21,3.94-1.64c2.56-0.56,6.09-0.91,9.99-0.91
	s7.43,0.35,9.99,0.91C78.65,74.51,80.04,75.07,80.64,75.72z"/>
<path class="st5" d="M116,82.82l-5.1-1.66l0.33-1l4.09-0.98l-3.41-1.11l0.31-0.96l5.1,1.66l-0.34,1.03l-4,0.98l3.33,1.08L116,82.82z
	 M111.46,86.64c0.55,0.25,1.03,0.31,1.43,0.18c0.4-0.13,0.69-0.39,0.86-0.79c0.18-0.39,0.18-0.78,0.01-1.16
	c-0.17-0.38-0.54-0.69-1.11-0.95c-0.56-0.25-1.04-0.31-1.42-0.19c-0.39,0.12-0.67,0.39-0.85,0.8c-0.18,0.41-0.19,0.8-0.02,1.17
	C110.53,86.08,110.89,86.39,111.46,86.64z M111.04,87.67c-0.5-0.22-0.89-0.48-1.16-0.78c-0.2-0.22-0.36-0.47-0.47-0.76
	c-0.11-0.28-0.16-0.56-0.16-0.83c0.01-0.36,0.1-0.74,0.28-1.14c0.32-0.72,0.8-1.2,1.44-1.43c0.64-0.23,1.36-0.17,2.16,0.18
	c0.79,0.35,1.31,0.84,1.57,1.47c0.25,0.63,0.22,1.3-0.1,2.02c-0.32,0.73-0.81,1.21-1.44,1.44
	C112.53,88.08,111.82,88.02,111.04,87.67z M112.35,90.78l-4.69-2.6l0.53-0.95l4.69,2.6L112.35,90.78z M110.36,94.01l-3.78-2.36
	L105.74,93l-0.77-0.48l2.26-3.62l0.77,0.48l-0.84,1.35l3.78,2.36L110.36,94.01z M106.59,95.64L104.57,95l1.12,1.8L106.59,95.64z
	 M109.5,95.38l-0.73,0.93l-1.25-0.38l-1.32,1.69l0.69,1.1l-0.71,0.91l-2.94-4.95l0.71-0.9L109.5,95.38z M101,100.51l0.55-0.59
	c0.35-0.38,0.56-0.63,0.62-0.76c0.06-0.12,0.07-0.25,0.04-0.38c-0.03-0.13-0.1-0.24-0.22-0.35c-0.13-0.12-0.27-0.19-0.42-0.19
	c-0.15-0.01-0.29,0.05-0.43,0.15c-0.07,0.06-0.25,0.24-0.55,0.57L100,99.58L101,100.51z M102.52,103.41l-3.92-3.66l1.56-1.67
	c0.39-0.42,0.71-0.69,0.96-0.81c0.25-0.12,0.52-0.16,0.8-0.11c0.29,0.05,0.55,0.19,0.78,0.41c0.29,0.27,0.46,0.59,0.49,0.94
	c0.03,0.35-0.09,0.72-0.36,1.11c0.26-0.08,0.5-0.12,0.73-0.12c0.22,0,0.58,0.05,1.06,0.14l1.21,0.23l-0.88,0.95l-1.39-0.22
	c-0.5-0.08-0.82-0.12-0.97-0.12c-0.15,0-0.28,0.03-0.39,0.09c-0.11,0.06-0.25,0.18-0.42,0.36l-0.15,0.16l1.64,1.53L102.52,103.41z
	 M98.41,106.97l-3.59-3.99l2.96-2.66l0.61,0.67l-2.15,1.94l0.8,0.88l2-1.8l0.6,0.67l-2,1.8l0.98,1.09l2.23-2.01l0.61,0.67
	L98.41,106.97z M92.09,105.86l1.94,2.98l0.68-0.44c0.25-0.16,0.43-0.3,0.52-0.4c0.12-0.13,0.21-0.27,0.25-0.42
	c0.04-0.15,0.02-0.35-0.04-0.59c-0.07-0.24-0.22-0.54-0.44-0.88c-0.23-0.35-0.43-0.59-0.61-0.74c-0.18-0.15-0.36-0.24-0.54-0.27
	c-0.18-0.03-0.37-0.01-0.56,0.06c-0.15,0.05-0.4,0.2-0.77,0.44L92.09,105.86z M90.68,105.69l1.66-1.08c0.37-0.24,0.68-0.4,0.91-0.47
	c0.31-0.09,0.63-0.1,0.95-0.03c0.32,0.08,0.62,0.23,0.9,0.45c0.28,0.22,0.56,0.55,0.84,0.97c0.24,0.37,0.4,0.72,0.48,1.05
	c0.1,0.4,0.11,0.77,0.03,1.11c-0.06,0.26-0.19,0.51-0.4,0.77c-0.16,0.19-0.41,0.4-0.74,0.62l-1.71,1.11L90.68,105.69z M88.82,112.79
	l-2.44-4.78l3.54-1.81l0.41,0.81l-2.58,1.31l0.54,1.06l2.4-1.22l0.41,0.8l-2.4,1.22l0.66,1.3l2.67-1.36l0.41,0.81L88.82,112.79z
	 M84.23,114.7l-2.01-4.98l3.41-1.38l0.34,0.84l-2.41,0.97l0.48,1.18l2.08-0.84l0.34,0.84l-2.08,0.84l0.85,2.11L84.23,114.7z
	 M75.9,115.17l1-0.34c0.14,0.33,0.32,0.56,0.55,0.67c0.23,0.12,0.5,0.14,0.82,0.07c0.34-0.08,0.58-0.21,0.72-0.39
	c0.14-0.18,0.19-0.37,0.14-0.56c-0.03-0.12-0.09-0.22-0.18-0.29c-0.09-0.07-0.24-0.12-0.43-0.14c-0.13-0.02-0.43-0.03-0.9-0.03
	c-0.6-0.01-1.04-0.09-1.31-0.24c-0.39-0.21-0.63-0.53-0.72-0.94c-0.06-0.27-0.04-0.53,0.05-0.8c0.1-0.27,0.27-0.49,0.53-0.68
	c0.26-0.19,0.59-0.33,0.99-0.42c0.66-0.15,1.18-0.12,1.58,0.09c0.4,0.21,0.66,0.56,0.79,1.03l-1.04,0.29
	c-0.11-0.26-0.25-0.43-0.42-0.51c-0.18-0.08-0.41-0.09-0.71-0.02c-0.31,0.07-0.53,0.19-0.68,0.36c-0.09,0.11-0.12,0.23-0.09,0.36
	c0.03,0.12,0.11,0.22,0.23,0.28c0.16,0.08,0.51,0.12,1.05,0.13c0.54,0,0.95,0.04,1.23,0.11c0.28,0.07,0.51,0.21,0.7,0.4
	c0.19,0.19,0.32,0.45,0.4,0.78c0.07,0.3,0.05,0.6-0.06,0.9c-0.11,0.3-0.3,0.55-0.57,0.75c-0.27,0.2-0.64,0.35-1.09,0.45
	c-0.66,0.15-1.2,0.12-1.63-0.11C76.41,116.14,76.1,115.74,75.9,115.17z M70.74,115.92l1.03-0.23c0.11,0.34,0.26,0.59,0.48,0.73
	c0.21,0.14,0.48,0.19,0.81,0.15c0.35-0.04,0.6-0.15,0.76-0.32c0.16-0.17,0.23-0.35,0.2-0.55c-0.02-0.13-0.07-0.23-0.15-0.31
	c-0.08-0.08-0.22-0.14-0.42-0.18c-0.13-0.03-0.43-0.07-0.89-0.13c-0.59-0.07-1.02-0.2-1.28-0.38c-0.36-0.25-0.57-0.59-0.62-1.01
	c-0.03-0.27,0.01-0.53,0.14-0.79c0.12-0.25,0.32-0.46,0.6-0.62c0.28-0.16,0.62-0.26,1.03-0.31c0.67-0.08,1.19,0,1.56,0.25
	c0.37,0.25,0.6,0.62,0.68,1.11l-1.07,0.18c-0.08-0.27-0.2-0.45-0.37-0.55c-0.17-0.1-0.4-0.13-0.7-0.1
	c-0.31,0.04-0.55,0.13-0.71,0.28c-0.1,0.1-0.15,0.21-0.13,0.35c0.02,0.13,0.08,0.23,0.2,0.3c0.15,0.1,0.49,0.18,1.03,0.23
	c0.54,0.06,0.94,0.14,1.21,0.24c0.27,0.1,0.48,0.26,0.66,0.47c0.17,0.21,0.27,0.49,0.32,0.82c0.04,0.3-0.01,0.6-0.15,0.89
	c-0.14,0.29-0.35,0.52-0.65,0.68c-0.29,0.17-0.67,0.28-1.14,0.34c-0.67,0.08-1.21-0.01-1.61-0.28
	C71.15,116.93,70.88,116.5,70.74,115.92z M65.81,117.89l-0.19-5.36l3.98-0.14l0.03,0.91l-2.89,0.1l0.04,1.19l2.69-0.09l0.03,0.9
	l-2.69,0.09l0.05,1.46l3-0.1l0.03,0.9L65.81,117.89z M59.98,117.51l0.47-5.35l1.08,0.09l-0.18,2.1l2.11,0.19l0.18-2.1l1.08,0.09
	l-0.47,5.35l-1.08-0.09l0.2-2.34l-2.11-0.19l-0.2,2.34L59.98,117.51z M57.97,115.23l0.97,0.53c-0.27,0.54-0.62,0.92-1.04,1.13
	c-0.42,0.21-0.92,0.26-1.48,0.15c-0.7-0.14-1.23-0.49-1.59-1.05c-0.36-0.57-0.46-1.26-0.29-2.09c0.17-0.88,0.53-1.51,1.08-1.91
	c0.55-0.4,1.19-0.52,1.93-0.38c0.64,0.13,1.13,0.42,1.46,0.88c0.2,0.27,0.31,0.63,0.35,1.07l-1.1,0.05
	c-0.01-0.29-0.1-0.53-0.26-0.72c-0.17-0.2-0.39-0.32-0.67-0.38c-0.39-0.08-0.73,0-1.03,0.24c-0.3,0.23-0.51,0.66-0.63,1.29
	c-0.13,0.67-0.1,1.16,0.08,1.49c0.18,0.33,0.47,0.53,0.85,0.61c0.28,0.06,0.54,0.01,0.78-0.13C57.6,115.85,57.8,115.6,57.97,115.23z
	 M46.33,114.12l1.75-5.07l1,0.34l0.91,4.1l1.17-3.39l0.95,0.33l-1.75,5.07l-1.03-0.35l-0.91-4.01l-1.14,3.31L46.33,114.12z
	 M44.56,110.96l0.25-2.11l-1.55,1.45L44.56,110.96z M45.37,113.76l-1.05-0.54l0.14-1.3l-1.91-0.97l-0.95,0.89l-1.02-0.52l4.3-3.83
	l1.02,0.52L45.37,113.76z M41.67,105.76l0.91,0.59l-1.85,2.85c-0.24,0.37-0.46,0.64-0.66,0.8c-0.26,0.2-0.55,0.31-0.89,0.32
	c-0.33,0.01-0.69-0.11-1.07-0.36c-0.44-0.29-0.71-0.63-0.78-1.04c-0.08-0.4,0.04-0.85,0.35-1.33l0.92,0.46
	c-0.16,0.26-0.24,0.47-0.24,0.62c-0.01,0.23,0.09,0.4,0.29,0.53c0.2,0.13,0.38,0.17,0.54,0.11c0.16-0.06,0.36-0.27,0.59-0.64
	L41.67,105.76z M35.03,107.72l3.15-4.34l0.88,0.64l-3.15,4.34L35.03,107.72z M34.08,104.36l0.75-1.99l-1.85,1.03L34.08,104.36z
	 M34.2,107.27l-0.89-0.77l0.45-1.23l-1.62-1.41L31,104.5l-0.87-0.75l5.1-2.68l0.86,0.75L34.2,107.27z M28.85,99.14l-1.05,0.98
	l0.68,0.73c0.27,0.29,0.44,0.46,0.53,0.52c0.13,0.1,0.27,0.14,0.42,0.14c0.15,0,0.3-0.07,0.44-0.2c0.12-0.11,0.19-0.23,0.22-0.37
	c0.03-0.13,0.01-0.27-0.05-0.42c-0.06-0.14-0.26-0.39-0.6-0.75L28.85,99.14z M30.41,97.69l-0.91,0.85l0.48,0.52
	c0.29,0.31,0.47,0.5,0.55,0.56c0.14,0.12,0.29,0.18,0.44,0.19c0.15,0.01,0.29-0.05,0.42-0.17c0.12-0.11,0.19-0.24,0.2-0.38
	c0.01-0.14-0.03-0.28-0.14-0.43c-0.06-0.09-0.27-0.32-0.62-0.69L30.41,97.69z M30.33,96.29l1.46,1.57c0.29,0.31,0.49,0.55,0.61,0.73
	c0.12,0.18,0.19,0.36,0.22,0.56c0.03,0.2,0.01,0.4-0.05,0.61c-0.06,0.21-0.18,0.39-0.35,0.55c-0.18,0.17-0.4,0.28-0.64,0.32
	c-0.25,0.04-0.49,0.02-0.72-0.08c0.15,0.3,0.21,0.6,0.16,0.88c-0.05,0.29-0.19,0.53-0.41,0.74c-0.18,0.17-0.39,0.29-0.64,0.36
	c-0.25,0.07-0.49,0.09-0.72,0.04c-0.23-0.05-0.46-0.17-0.68-0.36c-0.14-0.12-0.44-0.43-0.92-0.93l-1.25-1.34L30.33,96.29z
	 M25.89,94.35l0.49,0.63c0.32,0.41,0.54,0.65,0.65,0.73c0.11,0.07,0.24,0.11,0.37,0.1c0.13-0.01,0.26-0.06,0.38-0.16
	c0.14-0.11,0.23-0.24,0.26-0.38c0.03-0.14,0-0.29-0.09-0.45c-0.04-0.08-0.2-0.29-0.47-0.63l-0.52-0.67L25.89,94.35z M22.78,95.4
	l4.23-3.3l1.4,1.8c0.35,0.45,0.57,0.81,0.65,1.07c0.08,0.26,0.08,0.53-0.02,0.81c-0.1,0.28-0.27,0.51-0.52,0.7
	c-0.32,0.25-0.65,0.36-1.01,0.33c-0.35-0.03-0.7-0.2-1.04-0.53c0.04,0.27,0.04,0.51,0,0.74c-0.04,0.22-0.14,0.56-0.31,1.02
	l-0.42,1.16l-0.8-1.02l0.44-1.34c0.16-0.48,0.25-0.79,0.27-0.94c0.02-0.15,0.01-0.28-0.02-0.39c-0.04-0.12-0.14-0.27-0.29-0.47
	l-0.13-0.17l-1.77,1.38L22.78,95.4z M19.87,90.86l4.55-2.84l2.11,3.37l-0.77,0.48l-1.53-2.45l-1.01,0.63l1.43,2.28l-0.77,0.48
	l-1.43-2.28l-1.24,0.77l1.59,2.54l-0.77,0.48L19.87,90.86z M17.47,85.97l0.88-0.43l4.36,1.01l-1.1-2.25l0.82-0.4l1.72,3.53
	l-0.76,0.37l-4.54-1.06l1.34,2.74l-0.81,0.4L17.47,85.97z M18.54,82.87l1.64-1.35l-2.12-0.04L18.54,82.87z M76.64,74.39
	c-2.54-0.56-6.05-0.9-9.93-0.9c-3.88,0-7.39,0.34-9.93,0.9c-2.47,0.54-4,1.26-4,2.03c0,0.77,1.53,1.49,4,2.03
	c2.54,0.56,6.05,0.9,9.93,0.9c3.88,0,7.39-0.34,9.93-0.9c2.47-0.54,4-1.26,4-2.03C80.64,75.65,79.11,74.93,76.64,74.39z
	 M80.64,75.72l-0.04-6.85c-0.16-0.72-1.65-1.39-3.98-1.9c-2.54-0.56-6.04-0.9-9.92-0.9c-3.87,0-7.38,0.34-9.92,0.9
	c-2.47,0.54-4,1.26-4,2.03l0,6.73c0.59-0.65,1.99-1.21,3.94-1.64c2.56-0.56,6.09-0.91,9.99-0.91s7.43,0.35,9.99,0.91
	C78.65,74.51,80.04,75.07,80.64,75.72z M77.24,63.95l2.63,2.63l2.63-2.63l-2.63-2.63L77.24,63.95z M77.24,58.68l2.63,2.63l2.63-2.63
	l-2.63-2.63L77.24,58.68z M77.24,53.41l2.63,2.63l2.63-2.63l-2.63-2.63L77.24,53.41z M71.97,58.68l2.63,2.63l2.63-2.63l-2.63-2.63
	L71.97,58.68z M71.97,53.41l2.63,2.63l2.63-2.63l-2.63-2.63L71.97,53.41z M66.7,58.68l2.63,2.63l2.63-2.63l-2.63-2.63L66.7,58.68z
	 M66.7,53.41l2.63,2.63l2.63-2.63l-2.63-2.63L66.7,53.41z M61.43,58.68l2.63,2.63l2.63-2.63l-2.63-2.63L61.43,58.68z M61.43,53.41
	l2.63,2.63l2.63-2.63l-2.63-2.63L61.43,53.41z M56.16,58.68l2.63,2.63l2.63-2.63l-2.63-2.63L56.16,58.68z M56.16,53.41l2.63,2.63
	l2.63-2.63l-2.63-2.63L56.16,53.41z M50.89,63.95l2.63,2.63l2.63-2.63l-2.63-2.63L50.89,63.95z M50.89,58.68l2.63,2.63l2.63-2.63
	l-2.63-2.63L50.89,58.68z M50.89,53.41l2.63,2.63l2.63-2.63l-2.63-2.63L50.89,53.41z M70.11,50.01c-0.68-0.53-1.58-1-2.69-1.15
	l1.92,1.92L70.11,50.01L70.11,50.01z M75.84,49.53c-0.12,0.05-0.25,0.11-0.37,0.17c-0.43,0.2-0.85,0.44-1.26,0.7l0.38,0.38
	L75.84,49.53z M81.31,49.4c-0.78-0.4-1.54-0.57-2.15-0.59c-0.38-0.02-0.78,0.01-1.2,0.09l0.03-0.01l1.89,1.89l1.4-1.4L81.31,49.4z
	 M85.1,56.07c-0.16-1.72-0.59-3.05-1.17-4.09l-1.43,1.43l2.59,2.59L85.1,56.07z M84.86,61.04c0.18-0.95,0.29-2.02,0.31-3.23
	c0.01-0.62-0.01-1.19-0.06-1.73l-2.6,2.6L84.86,61.04z M83.5,64.95c0.47-0.87,0.9-1.92,1.21-3.2l-2.21,2.21L83.5,64.95z M83.36,65.2
	c0.05-0.08,0.09-0.16,0.14-0.24C83.45,65.04,83.41,65.12,83.36,65.2z M83.1,65.63c0.02-0.03,0.04-0.07,0.07-0.1
	C83.14,65.56,83.12,65.6,83.1,65.63z M79.08,67.37c0.78,0.31,1.33,0.66,1.62,1.04c0.09-0.09,0.19-0.18,0.29-0.29
	c0.07-0.06,0.14-0.13,0.21-0.2l-1.33-1.33L79.08,67.37z M74.25,66.24c0.21,0.03,0.41,0.06,0.61,0.09l2.38-2.38l-2.63-2.63
	l-2.63,2.63L74.25,66.24z M68.53,65.78c0.52,0.01,1.04,0.04,1.54,0.06l1.89-1.89l-2.63-2.63l-2.63,2.63L68.53,65.78z M59.14,66.24
	l0.06-0.01l0.06-0.01l0.06-0.01l0.06-0.01l0,0l0.06-0.01l0.06-0.01l0.02,0l0.04-0.01l0.06-0.01l0.05-0.01l0.01,0l0.06-0.01
	l0.06-0.01l0.01,0l0,0l0.11-0.01l0.04,0l0.03,0l0.06-0.01l0.06-0.01l0,0l0.06-0.01l0.06-0.01l0.03,0l0.04,0l0.06-0.01l0.05-0.01
	l0.01,0l0.06-0.01l0.06-0.01l0.02,0l0,0l0.11-0.01l0.04,0l0.02,0l0.13-0.01l0,0l0.06-0.01l0.07-0.01l0.03,0l0.03,0l0.07-0.01
	L61.2,66l0.01,0l0.07-0.01l0.07-0.01l0.02,0l0.05,0l0.07-0.01l0.05,0l0.02,0l0.07-0.01l0.07-0.01l0.01,0l0.12-0.01l0.01,0l0.04,0
	l0.03,0l0.13-0.01l0,0l0.14-0.01l0.02,0l0.04,0l0.07,0l0.05,0l0.02,0l0.07,0l0.07,0l0.01,0l0.06,0l0.07,0l0.04,0l0.03,0l0.14-0.01h0
	l0.07,0l0.07,0l0.03,0l0.04,0l0.13-0.01l0.01,0c0.55-0.03,1.11-0.05,1.68-0.07l1.83-1.83l-2.63-2.63l-2.63,2.63l1.89,1.89
	 M58.53,66.33c0.2-0.03,0.4-0.06,0.61-0.09l2.29-2.29l-2.63-2.63l-2.63,2.63L58.53,66.33z M52.12,67.99l0.14,0.13
	c0.14,0.14,0.27,0.26,0.37,0.37c0.26-0.41,0.84-0.78,1.68-1.12l-0.79-0.79L52.12,67.99z M48.5,61.56c0.32,1.41,0.79,2.56,1.3,3.48
	l0-0.01l1.09-1.09L48.5,61.56z M49.37,51.9c-0.79,1.36-1.32,3.27-1.29,5.92c0.02,1.25,0.14,2.36,0.33,3.34l2.47-2.47l-2.63-2.63
	l2.63-2.63L49.37,51.9z M51.56,49.62c-0.04,0.02-0.08,0.05-0.12,0.08C51.48,49.67,51.52,49.65,51.56,49.62z M51.76,49.5
	c-0.07,0.04-0.13,0.08-0.2,0.12C51.63,49.58,51.69,49.54,51.76,49.5z M52,49.38c-0.07,0.03-0.13,0.07-0.2,0.1
	C51.87,49.44,51.93,49.41,52,49.38z M55.39,48.91c-0.45-0.08-0.89-0.12-1.29-0.1c-0.59,0.03-1.32,0.18-2.06,0.55l0.04-0.02
	l1.44,1.44L55.39,48.91z M59.12,50.45c-0.43-0.28-0.88-0.53-1.34-0.75l-0.12-0.05l1.13,1.13L59.12,50.45z M61.87,51.32
	c-0.02,0.03-0.05,0.07-0.07,0.1C61.82,51.39,61.84,51.35,61.87,51.32z M63.24,45.64l3.44-6.32l3.44,6.32l-1.71,3.13
	c2.14,0.68,3.3,2.42,3.64,3c0.9-0.97,2.07-1.78,3.28-2.36c1.32-0.63,2.69-0.97,3.82-0.92c1.32,0.06,3.33,0.75,4.72,2.82
	c0.96,1.43,1.63,3.51,1.6,6.5c-0.09,6.47-2.9,9.2-4.27,10.53c-0.12,0.12-0.23,0.22-0.32,0.31l0.01,0c0.02,2.59,0.05,5.17,0.05,7.76
	c0,0.94-1.62,1.76-4.25,2.33c-2.56,0.56-6.09,0.91-9.99,0.91s-7.43-0.35-9.99-0.91c-2.63-0.58-4.25-1.4-4.25-2.33l-0.05-7.7
	c-0.11-0.11-0.24-0.24-0.38-0.38c-1.36-1.32-4.18-4.06-4.27-10.53c-0.04-2.99,0.63-5.07,1.6-6.5c1.4-2.07,3.4-2.76,4.72-2.82
	c1.13-0.05,2.5,0.3,3.82,0.92c1.21,0.58,2.38,1.39,3.28,2.36c0.35-0.59,1.54-2.38,3.74-3.03L63.24,45.64z M66,48.84
	c-1.14,0.13-2.06,0.58-2.77,1.1l0.83,0.83L66,48.84z M113.4,63.04l5.36-0.19l0.04,1.08l-5.36,0.19L113.4,63.04z M114.66,57.38
	l0.25,1.03c-0.34,0.11-0.58,0.27-0.72,0.49c-0.14,0.21-0.18,0.48-0.14,0.81c0.05,0.35,0.16,0.6,0.33,0.75
	c0.17,0.16,0.35,0.22,0.55,0.19c0.13-0.02,0.23-0.07,0.3-0.16c0.08-0.09,0.14-0.22,0.18-0.42c0.03-0.13,0.06-0.43,0.11-0.89
	c0.06-0.6,0.18-1.02,0.36-1.28c0.25-0.37,0.58-0.58,1-0.64c0.27-0.04,0.53,0,0.79,0.12c0.26,0.12,0.47,0.32,0.63,0.59
	c0.16,0.27,0.27,0.61,0.33,1.02c0.09,0.67,0.02,1.19-0.23,1.57c-0.25,0.38-0.61,0.61-1.1,0.7l-0.2-1.07
	c0.27-0.08,0.45-0.21,0.55-0.38c0.1-0.17,0.13-0.4,0.08-0.7c-0.04-0.31-0.14-0.55-0.29-0.71c-0.1-0.1-0.22-0.14-0.35-0.12
	c-0.13,0.02-0.23,0.09-0.3,0.21c-0.09,0.15-0.17,0.5-0.22,1.04c-0.05,0.54-0.12,0.94-0.22,1.21c-0.1,0.27-0.25,0.49-0.46,0.66
	c-0.21,0.17-0.48,0.28-0.82,0.33c-0.3,0.04-0.6,0-0.89-0.13c-0.29-0.13-0.52-0.34-0.69-0.63c-0.17-0.29-0.29-0.67-0.36-1.13
	c-0.09-0.67-0.01-1.21,0.25-1.61C113.65,57.81,114.07,57.53,114.66,57.38z M114.52,54.63l1.77-1.17l-2.1-0.26L114.52,54.63z
	 M112.9,57.05l-0.27-1.15l1.08-0.73l-0.48-2.09l-1.29-0.16l-0.26-1.12l5.7,0.83l0.26,1.12L112.9,57.05z M110.88,49.38l2.14-0.74
	l2.3-2.87l0.41,1.2l-1.6,1.89l2.41,0.48l0.41,1.18l-3.59-0.85l-2.13,0.73L110.88,49.38z M114.68,43.54l0.88-0.41l0.43,0.91
	l-0.88,0.41L114.68,43.54z M109.52,45.9l4.86-2.27l0.46,0.98l-4.86,2.27L109.52,45.9z M108.61,40.21l0.59,0.88
	c-0.28,0.22-0.45,0.46-0.51,0.71c-0.05,0.25-0.01,0.52,0.15,0.81c0.16,0.31,0.35,0.51,0.57,0.59c0.21,0.09,0.41,0.08,0.58-0.01
	c0.11-0.06,0.19-0.14,0.23-0.25c0.04-0.11,0.05-0.26,0.02-0.45c-0.02-0.13-0.09-0.42-0.2-0.88c-0.15-0.58-0.18-1.02-0.1-1.33
	c0.11-0.43,0.35-0.74,0.72-0.94c0.24-0.13,0.5-0.18,0.79-0.15c0.28,0.03,0.55,0.14,0.79,0.34c0.25,0.2,0.47,0.48,0.66,0.84
	c0.32,0.6,0.42,1.11,0.32,1.55c-0.1,0.44-0.37,0.78-0.79,1.03l-0.55-0.93c0.22-0.17,0.35-0.35,0.38-0.54
	c0.04-0.19-0.02-0.42-0.16-0.69c-0.15-0.28-0.32-0.47-0.52-0.56c-0.13-0.06-0.25-0.06-0.37,0c-0.11,0.06-0.18,0.16-0.21,0.3
	c-0.04,0.17,0.01,0.52,0.15,1.05c0.14,0.52,0.21,0.93,0.21,1.21c0,0.29-0.07,0.54-0.2,0.78c-0.14,0.23-0.36,0.43-0.65,0.59
	c-0.27,0.14-0.57,0.2-0.88,0.18c-0.32-0.03-0.61-0.14-0.87-0.36c-0.26-0.21-0.5-0.53-0.72-0.94c-0.32-0.6-0.43-1.13-0.32-1.6
	C107.82,40.96,108.12,40.55,108.61,40.21z M107.57,37.75l1.27-1.7l-2.06,0.48L107.57,37.75z M106.88,40.58l-0.64-0.99l0.77-1.06
	l-1.17-1.8l-1.26,0.29l-0.63-0.96l5.64-1.17l0.62,0.96L106.88,40.58z M103.61,31.07l0.53,0.6c0.34,0.39,0.57,0.62,0.69,0.69
	c0.12,0.07,0.24,0.09,0.37,0.08c0.13-0.02,0.25-0.08,0.38-0.18c0.14-0.12,0.21-0.25,0.23-0.4c0.02-0.15-0.02-0.29-0.11-0.45
	c-0.05-0.07-0.22-0.28-0.51-0.61l-0.55-0.64L103.61,31.07z M100.56,32.28l4.05-3.52l1.5,1.72c0.38,0.43,0.61,0.78,0.71,1.04
	c0.1,0.26,0.11,0.53,0.02,0.81c-0.08,0.28-0.25,0.52-0.48,0.73c-0.3,0.26-0.63,0.39-0.99,0.39c-0.35-0.01-0.71-0.17-1.07-0.48
	c0.05,0.27,0.06,0.51,0.04,0.73c-0.02,0.22-0.11,0.57-0.25,1.04l-0.36,1.18l-0.85-0.98l0.37-1.36c0.13-0.48,0.21-0.8,0.22-0.95
	c0.01-0.15,0-0.28-0.05-0.39c-0.05-0.11-0.15-0.26-0.31-0.45l-0.14-0.17l-1.69,1.47L100.56,32.28z M96.82,28.72l3.66-3.92l2.91,2.71
	l-0.62,0.66l-2.12-1.97l-0.81,0.87l1.97,1.84l-0.62,0.66l-1.97-1.84l-1,1.07l2.19,2.04L99.8,31.5L96.82,28.72z M95.73,22.33
	l-2.04,2.91l0.66,0.46c0.25,0.17,0.44,0.29,0.57,0.33c0.17,0.06,0.33,0.09,0.49,0.07c0.16-0.02,0.33-0.11,0.53-0.26
	c0.2-0.15,0.42-0.4,0.65-0.74c0.24-0.34,0.39-0.62,0.46-0.84c0.07-0.22,0.08-0.43,0.05-0.6c-0.04-0.18-0.13-0.34-0.27-0.49
	c-0.1-0.12-0.34-0.3-0.7-0.55L95.73,22.33z M95.37,20.96l1.62,1.14c0.37,0.26,0.62,0.48,0.78,0.67c0.2,0.26,0.33,0.55,0.38,0.87
	c0.05,0.32,0.02,0.66-0.08,1.01c-0.1,0.35-0.3,0.73-0.58,1.14c-0.25,0.36-0.52,0.64-0.79,0.84c-0.33,0.24-0.67,0.39-1.01,0.45
	c-0.26,0.04-0.55,0.01-0.87-0.09c-0.24-0.07-0.52-0.23-0.85-0.46l-1.67-1.17L95.37,20.96z M87.79,22.69l2.6-4.69l3.48,1.93
	l-0.44,0.79l-2.53-1.4l-0.58,1.04l2.36,1.31l-0.44,0.79l-2.36-1.31l-0.71,1.28l2.62,1.45l-0.44,0.79L87.79,22.69z M83.4,20.7
	l2.18-4.9l3.36,1.5l-0.37,0.83l-2.37-1.06l-0.52,1.16l2.05,0.91l-0.37,0.83l-2.05-0.91l-0.93,2.08L83.4,20.7z M77.81,18.91
	l1.15-4.31l-1.54-0.41l0.24-0.88l4.12,1.1l-0.24,0.88l-1.53-0.41l-1.15,4.31L77.81,18.91z M74.84,16.13l-0.38-2.09l-1.06,1.84
	L74.84,16.13z M76.43,18.56l-1.16-0.2l-0.25-1.28l-2.11-0.37l-0.65,1.12l-1.13-0.2l2.99-4.92l1.13,0.2L76.43,18.56z M65.21,17.49
	l0.09-5.36l1.62,0.03l0.91,3.68l1.03-3.64l1.63,0.03l-0.09,5.36l-1.01-0.02l0.07-4.22l-1.14,4.2l-1.04-0.02l-0.99-4.24l-0.07,4.22
	L65.21,17.49z M59.6,17.81l-0.37-5.35l1.08-0.08l0.15,2.11l2.12-0.15l-0.15-2.11l1.08-0.08l0.37,5.35l-1.08,0.08l-0.16-2.34
	l-2.12,0.15l0.16,2.34L59.6,17.81z M56.46,16.27l-1.14-1.79l-0.29,2.1L56.46,16.27z M58.85,17.93l-1.15,0.25l-0.71-1.1l-2.1,0.45
	l-0.18,1.28l-1.12,0.24l0.93-5.68l1.12-0.24L58.85,17.93z M50.49,21.64l-0.13-0.41c0.25-0.05,0.47-0.11,0.67-0.18
	c0.21-0.07,0.35-0.15,0.42-0.26c0.06-0.08,0.07-0.16,0.04-0.25c-0.03-0.08-0.08-0.14-0.17-0.17c-0.09-0.03-0.21-0.03-0.36,0.02
	c-0.15,0.05-0.29,0.12-0.43,0.22l-0.02-0.37c0.16-0.12,0.34-0.22,0.55-0.28c0.29-0.09,0.53-0.1,0.72-0.02
	c0.19,0.08,0.32,0.21,0.38,0.39c0.07,0.2,0.04,0.4-0.09,0.58c-0.17,0.25-0.46,0.44-0.88,0.58C50.89,21.57,50.65,21.63,50.49,21.64z
	 M48.32,18.96l0.97-0.42c0.17,0.32,0.37,0.53,0.61,0.62c0.24,0.1,0.51,0.1,0.82-0.01c0.33-0.11,0.56-0.26,0.68-0.46
	c0.12-0.2,0.15-0.39,0.09-0.57c-0.04-0.12-0.11-0.21-0.21-0.27c-0.1-0.06-0.25-0.1-0.44-0.1c-0.13,0-0.43,0.01-0.9,0.04
	c-0.6,0.04-1.04,0-1.33-0.13c-0.4-0.18-0.67-0.47-0.8-0.87c-0.08-0.26-0.09-0.53-0.02-0.8c0.07-0.27,0.23-0.52,0.47-0.72
	c0.24-0.21,0.55-0.38,0.95-0.5c0.64-0.21,1.17-0.22,1.58-0.05c0.41,0.18,0.71,0.5,0.88,0.96l-1.02,0.38
	c-0.13-0.25-0.29-0.41-0.47-0.47c-0.18-0.07-0.42-0.05-0.71,0.04c-0.3,0.1-0.51,0.23-0.64,0.41c-0.08,0.11-0.1,0.24-0.06,0.37
	c0.04,0.12,0.12,0.21,0.25,0.26c0.17,0.07,0.52,0.08,1.06,0.03c0.54-0.04,0.95-0.04,1.23,0.01c0.28,0.05,0.53,0.16,0.73,0.34
	c0.21,0.18,0.36,0.42,0.47,0.75c0.1,0.29,0.1,0.59,0.02,0.9c-0.08,0.31-0.25,0.57-0.5,0.79c-0.26,0.22-0.61,0.4-1.05,0.55
	c-0.65,0.21-1.19,0.22-1.63,0.04C48.92,19.87,48.57,19.51,48.32,18.96z M42.01,23.97l-2.44-4.78l0.94-0.48l3.58,2.2l-1.63-3.19
	l0.9-0.46l2.44,4.78l-0.97,0.49l-3.52-2.14l1.59,3.12L42.01,23.97z M38.5,23.76l-1.75-1.21l0.55,2.05L38.5,23.76z M41.35,24.36
	l-0.97,0.68L39.3,24.3l-1.76,1.23l0.34,1.25l-0.94,0.66l-1.37-5.59l0.94-0.66L41.35,24.36z M34.45,27.05l1.02-0.42
	c0.25,0.55,0.33,1.06,0.22,1.52c-0.1,0.46-0.38,0.87-0.82,1.24c-0.55,0.46-1.15,0.65-1.81,0.57c-0.66-0.08-1.27-0.44-1.81-1.09
	c-0.57-0.68-0.84-1.36-0.81-2.04c0.04-0.67,0.34-1.25,0.92-1.74c0.5-0.42,1.04-0.62,1.6-0.58c0.33,0.02,0.69,0.15,1.06,0.4
	l-0.66,0.89c-0.23-0.17-0.47-0.26-0.73-0.25c-0.26,0.01-0.5,0.1-0.72,0.29c-0.3,0.26-0.46,0.57-0.47,0.95
	c-0.01,0.38,0.2,0.81,0.61,1.3c0.44,0.52,0.84,0.81,1.21,0.87c0.37,0.06,0.71-0.03,1.01-0.28c0.22-0.19,0.35-0.41,0.39-0.69
	C34.71,27.73,34.63,27.41,34.45,27.05z M30.54,33.62l-1.7-1.48l-3.63-0.56l0.83-0.96l2.43,0.44l-0.79-2.33l0.82-0.94l1.06,3.53
	l1.7,1.48L30.54,33.62z M26.55,35.08l-2.05-0.57l1.19,1.76L26.55,35.08z M29.44,34.71l-0.69,0.95l-1.26-0.34l-1.26,1.74l0.73,1.07
	l-0.68,0.93l-3.11-4.84l0.67-0.93L29.44,34.71z M22.3,41.35l1.24,0.72l0.5-0.87c0.2-0.34,0.31-0.56,0.34-0.66
	c0.06-0.15,0.06-0.3,0.01-0.45c-0.05-0.14-0.15-0.27-0.32-0.36c-0.14-0.08-0.28-0.11-0.41-0.1c-0.14,0.01-0.26,0.07-0.38,0.17
	c-0.12,0.1-0.3,0.37-0.55,0.79L22.3,41.35z M20.45,40.29l1.07,0.62l0.35-0.61c0.21-0.37,0.34-0.6,0.38-0.69
	c0.07-0.17,0.09-0.33,0.05-0.47c-0.04-0.14-0.13-0.26-0.28-0.35c-0.14-0.08-0.28-0.11-0.42-0.08c-0.14,0.03-0.26,0.11-0.37,0.26
	c-0.06,0.09-0.22,0.35-0.48,0.79L20.45,40.29z M19.13,40.78l1.07-1.86c0.21-0.37,0.39-0.63,0.52-0.8c0.13-0.16,0.29-0.29,0.47-0.37
	c0.18-0.09,0.38-0.13,0.59-0.13c0.22,0,0.43,0.06,0.63,0.17c0.22,0.13,0.38,0.3,0.5,0.52c0.11,0.22,0.16,0.46,0.13,0.71
	c0.25-0.23,0.51-0.37,0.8-0.41c0.29-0.04,0.56,0.02,0.83,0.18c0.21,0.12,0.39,0.29,0.53,0.5c0.14,0.21,0.22,0.44,0.25,0.68
	c0.02,0.24-0.03,0.49-0.14,0.76c-0.07,0.17-0.28,0.55-0.62,1.15l-0.91,1.58L19.13,40.78z M19.07,46.44l0.3-0.74
	c0.19-0.48,0.3-0.79,0.3-0.93c0.01-0.14-0.03-0.26-0.1-0.37c-0.07-0.11-0.18-0.19-0.33-0.25c-0.17-0.07-0.32-0.08-0.46-0.03
	c-0.14,0.05-0.25,0.15-0.35,0.3c-0.04,0.08-0.15,0.32-0.31,0.73l-0.32,0.78L19.07,46.44z M21.54,48.6l-4.98-2.01l0.85-2.12
	c0.21-0.53,0.42-0.9,0.6-1.1c0.19-0.2,0.42-0.33,0.71-0.39c0.29-0.05,0.58-0.02,0.87,0.1c0.37,0.15,0.64,0.39,0.79,0.7
	c0.15,0.32,0.17,0.71,0.06,1.17c0.22-0.17,0.43-0.29,0.64-0.37c0.21-0.08,0.55-0.16,1.04-0.24l1.22-0.22l-0.49,1.2l-1.38,0.29
	c-0.49,0.1-0.81,0.18-0.94,0.23c-0.14,0.05-0.25,0.13-0.33,0.22c-0.08,0.09-0.17,0.25-0.26,0.48l-0.08,0.2l2.08,0.84L21.54,48.6z
	 M18.77,50.13l-0.7,2.43c0.48,0.07,0.86,0.03,1.13-0.12c0.28-0.16,0.46-0.38,0.55-0.68c0.09-0.33,0.07-0.63-0.08-0.91
	C19.52,50.56,19.22,50.32,18.77,50.13z M18.67,48.91c1.08,0.31,1.75,0.9,2,1.77c0.12,0.4,0.11,0.85-0.03,1.33
	c-0.16,0.54-0.42,0.94-0.8,1.21c-0.71,0.49-1.54,0.6-2.49,0.33c-0.11-0.03-0.25-0.09-0.44-0.17l1-3.49
	c-0.4-0.07-0.75-0.04-1.04,0.09c-0.33,0.15-0.55,0.41-0.66,0.78c-0.16,0.56,0.01,1.01,0.53,1.35l-0.53,0.96
	c-0.47-0.26-0.78-0.62-0.93-1.09c-0.14-0.44-0.14-0.92,0.02-1.45c0.22-0.77,0.65-1.29,1.3-1.57C17.19,48.7,17.88,48.68,18.67,48.91z
	 M19.01,59.23l-0.96-0.19l-2.88-3.43l-0.48,2.45l-0.89-0.17l0.75-3.86l0.83,0.16l2.99,3.58l0.58-3l0.89,0.17L19.01,59.23z
	 M16.8,61.36l-2.05,0.56l1.92,0.9L16.8,61.36z M19.08,59.56l-0.1,1.17l-1.26,0.36l-0.19,2.14l1.18,0.55l-0.1,1.14l-5.16-2.55
	l0.1-1.14L19.08,59.56z M76.85,38.44L66.57,28.1L56.28,38.44l-0.37,0.37l-0.52,0l-14.59-0.04l0.04,14.59l0,0.52l-0.37,0.37
	L30.14,64.53l10.34,10.29l0.37,0.37l0,0.52l-0.04,14.59l14.59-0.04l0.52,0l0.37,0.37l10.29,10.34l10.29-10.34l0.37-0.37l0.52,0
	l14.59,0.04L92.29,75.7l0-0.52l0.37-0.37L103,64.53L92.66,54.24l-0.37-0.37l0-0.52l0.04-14.59L77.74,38.8l-0.52,0L76.85,38.44z
	 M67.45,25.45l10.8,10.86l15.32-0.04l1.25,0l0,1.25l-0.04,15.32l10.86,10.8l0.89,0.88l-0.89,0.88l-10.86,10.8l0.04,15.32l0,1.25
	l-1.25,0l-15.32-0.04l-10.8,10.86l-0.88,0.89l-0.88-0.89l-10.8-10.86l-15.32,0.04l-1.25,0l0-1.25l0.04-15.32l-10.86-10.8l-0.89-0.88
	l0.89-0.88l10.86-10.8l-0.04-15.32l0-1.25l1.25,0l15.32,0.04l10.8-10.86l0.88-0.89L67.45,25.45z M17.18,85.45l-0.38-1.12l1-0.84
	l-0.7-2.03l-1.3-0.02l-0.37-1.09l5.75,0.23l0.37,1.08L17.18,85.45z"/>
<text transform="matrix(1 0 0 1 138.6473 61.3619)"><tspan x="0" y="0" class="st5 st6 st7">Шахматная Федерация</tspan><tspan x="0" y="20" class="st5 st6 st7">Азербайджана</tspan></text>
</svg>
