<?xml version="1.0" encoding="utf-8"?>
<!-- Generator: Adobe Illustrator 24.0.3, SVG Export Plug-In . SVG Version: 6.00 Build 0)  -->
<svg version="1.1" id="Layer_1" xmlns="http://www.w3.org/2000/svg" xmlns:xlink="http://www.w3.org/1999/xlink" x="0px" y="0px"
	 viewBox="0 0 340 130" style="enable-background:new 0 0 340 130;" xml:space="preserve">
<style type="text/css">
	.st0{fill:#0094D9;}
	.st1{fill-rule:evenodd;clip-rule:evenodd;fill:#EC1C24;}
	.st2{fill:#FFFFFF;}
	.st3{fill-rule:evenodd;clip-rule:evenodd;fill:#00A551;}
	.st4{fill:#43525A;}
	.st5{fill:#D1AA67;}
	.st6{font-family:'ProximaNova-SemiBold';}
	.st7{font-size:22.7212px;}
</style>
<polygon class="st0" points="65.08,40.75 54.8,30.41 44.51,40.75 44.15,41.12 43.63,41.12 29.04,41.08 29.07,54.83 80.52,54.83 
	80.56,41.08 65.97,41.12 65.45,41.12 "/>
<polygon class="st1" points="29.07,79.36 80.52,79.36 80.52,78.01 80.52,77.49 80.89,77.12 91.23,66.84 80.89,56.55 80.52,56.19 
	80.52,55.67 80.52,54.83 29.07,54.83 29.08,55.67 29.08,56.19 28.71,56.55 18.37,66.84 28.71,77.12 29.08,77.49 29.08,78.01 "/>
<path class="st2" d="M54.84,51.12c-3.64,0.02-5.24,3.29-5.24,3.3l-0.1,0.2l-0.15-0.17c-0.89-1-2.09-1.85-3.33-2.44
	c-1.27-0.61-2.59-0.94-3.67-0.89c-1.25,0.05-3.15,0.71-4.48,2.68c-0.93,1.38-1.58,3.41-1.54,6.32c0.08,6.34,2.84,9.01,4.18,10.31
	c0.14,0.14,0.27,0.26,0.37,0.37c0.47-0.72,1.94-1.36,4.08-1.83c2.56-0.56,6.09-0.91,9.98-0.91c3.9,0,7.42,0.35,9.98,0.91
	c2.06,0.45,3.5,1.05,4.02,1.74c0.09-0.09,0.19-0.18,0.29-0.29c1.33-1.29,4.09-3.97,4.18-10.31c0.04-2.91-0.61-4.94-1.54-6.32
	c-1.33-1.97-3.22-2.63-4.48-2.68c-1.08-0.05-2.4,0.29-3.67,0.89c-1.24,0.59-2.44,1.44-3.33,2.44l-0.15,0.17l-0.1-0.2
	c0-0.01-1.6-3.28-5.24-3.3H54.84z"/>
<polygon class="st3" points="29.07,79.36 80.52,79.36 80.56,92.6 65.97,92.56 65.45,92.56 65.08,92.93 54.8,103.27 44.51,92.93 
	44.15,92.56 43.63,92.56 29.04,92.6 "/>
<path class="st4" d="M64.87,76.7c-2.54-0.56-6.05-0.9-9.93-0.9c-3.88,0-7.39,0.34-9.93,0.9c-2.47,0.54-4,1.26-4,2.03
	c0,0.77,1.53,1.49,4,2.03c2.54,0.56,6.05,0.9,9.93,0.9c3.88,0,7.39-0.34,9.93-0.9c2.47-0.54,4-1.26,4-2.03
	C68.87,77.96,67.34,77.24,64.87,76.7 M68.87,78.03l-0.04-6.85c-0.16-0.72-1.65-1.39-3.98-1.9c-2.54-0.56-6.04-0.9-9.92-0.9
	c-3.87,0-7.38,0.34-9.92,0.9c-2.47,0.54-4,1.26-4,2.03l0,6.73c0.59-0.65,1.99-1.21,3.94-1.64c2.56-0.56,6.09-0.91,9.99-0.91
	s7.43,0.35,9.99,0.91C66.88,76.82,68.27,77.39,68.87,78.03z"/>
<path class="st5" d="M104.23,85.14l-5.1-1.66l0.33-1l4.09-0.98l-3.41-1.11l0.31-0.96l5.1,1.66l-0.34,1.03l-4,0.98l3.33,1.08
	L104.23,85.14z M99.69,88.95c0.55,0.25,1.03,0.31,1.43,0.18c0.4-0.13,0.69-0.39,0.86-0.79c0.18-0.39,0.18-0.78,0.01-1.16
	c-0.17-0.38-0.54-0.69-1.11-0.95c-0.56-0.25-1.04-0.31-1.42-0.19c-0.39,0.12-0.67,0.39-0.85,0.8c-0.18,0.41-0.19,0.8-0.02,1.17
	C98.76,88.39,99.12,88.7,99.69,88.95z M99.27,89.99c-0.5-0.22-0.89-0.48-1.16-0.78c-0.2-0.22-0.36-0.47-0.47-0.76
	c-0.11-0.28-0.16-0.56-0.16-0.83c0.01-0.36,0.1-0.74,0.28-1.14c0.32-0.72,0.8-1.2,1.44-1.43c0.64-0.23,1.36-0.17,2.16,0.18
	c0.79,0.35,1.31,0.84,1.57,1.47c0.25,0.63,0.22,1.3-0.1,2.02c-0.32,0.73-0.81,1.21-1.44,1.44C100.76,90.39,100.05,90.33,99.27,89.99
	z M100.58,93.09l-4.69-2.6l0.53-0.95l4.69,2.6L100.58,93.09z M98.59,96.32l-3.78-2.36l-0.84,1.35l-0.77-0.48l2.26-3.62l0.77,0.48
	l-0.84,1.35l3.78,2.36L98.59,96.32z M94.82,97.95l-2.02-0.64l1.12,1.8L94.82,97.95z M97.73,97.69L97,98.62l-1.25-0.38l-1.32,1.69
	l0.69,1.1l-0.71,0.91l-2.94-4.95l0.71-0.9L97.73,97.69z M89.23,102.82l0.55-0.59c0.35-0.38,0.56-0.63,0.62-0.76
	c0.06-0.12,0.07-0.25,0.04-0.38c-0.03-0.13-0.1-0.24-0.22-0.35c-0.13-0.12-0.27-0.19-0.42-0.19c-0.15-0.01-0.29,0.05-0.43,0.15
	c-0.07,0.06-0.25,0.24-0.55,0.57l-0.58,0.62L89.23,102.82z M90.75,105.73l-3.92-3.66l1.56-1.67c0.39-0.42,0.71-0.69,0.96-0.81
	c0.25-0.12,0.52-0.16,0.8-0.11c0.29,0.05,0.55,0.19,0.78,0.41c0.29,0.27,0.46,0.59,0.49,0.94c0.03,0.35-0.09,0.72-0.36,1.11
	c0.26-0.08,0.5-0.12,0.73-0.12c0.22,0,0.58,0.05,1.06,0.14l1.21,0.23l-0.88,0.95l-1.39-0.22c-0.5-0.08-0.82-0.12-0.97-0.12
	c-0.15,0-0.28,0.03-0.39,0.09c-0.11,0.06-0.25,0.18-0.42,0.36l-0.15,0.16l1.64,1.53L90.75,105.73z M86.64,109.29l-3.59-3.99
	l2.96-2.66l0.61,0.67l-2.15,1.94l0.8,0.88l2-1.8l0.6,0.67l-2,1.8l0.98,1.09l2.23-2.01l0.61,0.67L86.64,109.29z M80.32,108.18
	l1.94,2.98l0.68-0.44c0.25-0.16,0.43-0.3,0.52-0.4c0.12-0.13,0.21-0.27,0.25-0.42c0.04-0.15,0.02-0.35-0.04-0.59
	c-0.07-0.24-0.22-0.54-0.44-0.88c-0.23-0.35-0.43-0.59-0.61-0.74c-0.18-0.15-0.36-0.24-0.54-0.27c-0.18-0.03-0.37-0.01-0.56,0.06
	c-0.15,0.05-0.4,0.2-0.77,0.44L80.32,108.18z M78.92,108l1.66-1.08c0.37-0.24,0.68-0.4,0.91-0.47c0.31-0.09,0.63-0.1,0.95-0.03
	c0.32,0.08,0.62,0.23,0.9,0.45c0.28,0.22,0.56,0.55,0.84,0.97c0.24,0.37,0.4,0.72,0.48,1.05c0.1,0.4,0.11,0.77,0.03,1.11
	c-0.06,0.26-0.19,0.51-0.4,0.77c-0.16,0.19-0.41,0.4-0.74,0.62l-1.71,1.11L78.92,108z M77.05,115.1l-2.44-4.78l3.54-1.81l0.41,0.81
	l-2.58,1.31l0.54,1.06l2.4-1.22l0.41,0.8l-2.4,1.22l0.66,1.3l2.67-1.36l0.41,0.81L77.05,115.1z M72.46,117.01l-2.01-4.98l3.41-1.38
	l0.34,0.84l-2.41,0.97l0.48,1.18l2.08-0.84l0.34,0.84l-2.08,0.84l0.85,2.11L72.46,117.01z M64.13,117.48l1-0.34
	c0.14,0.33,0.32,0.56,0.55,0.67c0.23,0.12,0.5,0.14,0.82,0.07c0.34-0.08,0.58-0.21,0.72-0.39c0.14-0.18,0.19-0.37,0.14-0.56
	c-0.03-0.12-0.09-0.22-0.18-0.29c-0.09-0.07-0.24-0.12-0.43-0.14c-0.13-0.02-0.43-0.03-0.9-0.03c-0.6-0.01-1.04-0.09-1.31-0.24
	c-0.39-0.21-0.63-0.53-0.72-0.94c-0.06-0.27-0.04-0.53,0.05-0.8c0.1-0.27,0.27-0.49,0.53-0.68c0.26-0.19,0.59-0.33,0.99-0.42
	c0.66-0.15,1.18-0.12,1.58,0.09c0.4,0.21,0.66,0.56,0.79,1.03l-1.04,0.29c-0.11-0.26-0.25-0.43-0.42-0.51
	c-0.18-0.08-0.41-0.09-0.71-0.02c-0.31,0.07-0.53,0.19-0.68,0.36c-0.09,0.11-0.12,0.23-0.09,0.36c0.03,0.12,0.11,0.22,0.23,0.28
	c0.16,0.08,0.51,0.12,1.05,0.13c0.54,0,0.95,0.04,1.23,0.11c0.28,0.07,0.51,0.21,0.7,0.4c0.19,0.19,0.32,0.45,0.4,0.78
	c0.07,0.3,0.05,0.6-0.06,0.9c-0.11,0.3-0.3,0.55-0.57,0.75c-0.27,0.2-0.64,0.35-1.09,0.45c-0.66,0.15-1.2,0.12-1.63-0.11
	C64.64,118.45,64.33,118.05,64.13,117.48z M58.97,118.23L60,118c0.11,0.34,0.26,0.59,0.48,0.73c0.21,0.14,0.48,0.19,0.81,0.15
	c0.35-0.04,0.6-0.15,0.76-0.32c0.16-0.17,0.23-0.35,0.2-0.55c-0.02-0.13-0.07-0.23-0.15-0.31c-0.08-0.08-0.22-0.14-0.42-0.18
	c-0.13-0.03-0.43-0.07-0.89-0.13c-0.59-0.07-1.02-0.2-1.28-0.38c-0.36-0.25-0.57-0.59-0.62-1.01c-0.03-0.27,0.01-0.53,0.14-0.79
	c0.12-0.25,0.32-0.46,0.6-0.62c0.28-0.16,0.62-0.26,1.03-0.31c0.67-0.08,1.19,0,1.56,0.25c0.37,0.25,0.6,0.62,0.68,1.11l-1.07,0.18
	c-0.08-0.27-0.2-0.45-0.37-0.55c-0.17-0.1-0.4-0.13-0.7-0.1c-0.31,0.04-0.55,0.13-0.71,0.28c-0.1,0.1-0.15,0.21-0.13,0.35
	c0.02,0.13,0.08,0.23,0.2,0.3c0.15,0.1,0.49,0.18,1.03,0.23c0.54,0.06,0.94,0.14,1.21,0.24c0.27,0.1,0.48,0.26,0.66,0.47
	c0.17,0.21,0.27,0.49,0.32,0.82c0.04,0.3-0.01,0.6-0.15,0.89c-0.14,0.29-0.35,0.52-0.65,0.68c-0.29,0.17-0.67,0.28-1.14,0.34
	c-0.67,0.08-1.21-0.01-1.61-0.28C59.38,119.24,59.11,118.82,58.97,118.23z M54.04,120.2l-0.19-5.36l3.98-0.14l0.03,0.91l-2.89,0.1
	l0.04,1.19l2.69-0.09l0.03,0.9l-2.69,0.09l0.05,1.46l3-0.1l0.03,0.9L54.04,120.2z M48.21,119.82l0.47-5.35l1.08,0.09l-0.18,2.1
	l2.11,0.19l0.18-2.1l1.08,0.09l-0.47,5.35l-1.08-0.09l0.2-2.34l-2.11-0.19l-0.2,2.34L48.21,119.82z M46.2,117.54l0.97,0.53
	c-0.27,0.54-0.62,0.92-1.04,1.13c-0.42,0.21-0.92,0.26-1.48,0.15c-0.7-0.14-1.23-0.49-1.59-1.05c-0.36-0.57-0.46-1.26-0.29-2.09
	c0.17-0.88,0.53-1.51,1.08-1.91c0.55-0.4,1.19-0.52,1.93-0.38c0.64,0.13,1.13,0.42,1.46,0.88c0.2,0.27,0.31,0.63,0.35,1.07
	l-1.1,0.05c-0.01-0.29-0.1-0.53-0.26-0.72c-0.17-0.2-0.39-0.32-0.67-0.38c-0.39-0.08-0.73,0-1.03,0.24
	c-0.3,0.23-0.51,0.66-0.63,1.29c-0.13,0.67-0.1,1.16,0.08,1.49c0.18,0.33,0.47,0.53,0.85,0.61c0.28,0.06,0.54,0.01,0.78-0.13
	C45.83,118.17,46.03,117.91,46.2,117.54z M34.56,116.43l1.75-5.07l1,0.34l0.91,4.1l1.17-3.39l0.95,0.33l-1.75,5.07l-1.03-0.35
	l-0.91-4.01l-1.14,3.31L34.56,116.43z M32.79,113.27l0.25-2.11l-1.55,1.45L32.79,113.27z M33.6,116.07l-1.05-0.54l0.14-1.3
	l-1.91-0.97l-0.95,0.89l-1.02-0.52l4.3-3.83l1.02,0.52L33.6,116.07z M29.9,108.08l0.91,0.59l-1.85,2.85
	c-0.24,0.37-0.46,0.64-0.66,0.8c-0.26,0.2-0.55,0.31-0.89,0.32c-0.34,0.01-0.69-0.11-1.07-0.36c-0.44-0.29-0.71-0.63-0.78-1.04
	c-0.08-0.4,0.04-0.85,0.35-1.33l0.92,0.46c-0.16,0.26-0.24,0.47-0.24,0.62c-0.01,0.23,0.09,0.4,0.29,0.53
	c0.2,0.13,0.38,0.17,0.54,0.11c0.16-0.06,0.36-0.27,0.59-0.64L29.9,108.08z M23.26,110.03l3.15-4.34l0.88,0.64l-3.15,4.34
	L23.26,110.03z M22.31,106.67l0.75-1.99l-1.85,1.03L22.31,106.67z M22.43,109.59l-0.89-0.77l0.45-1.23l-1.62-1.41l-1.13,0.63
	l-0.87-0.75l5.1-2.68l0.86,0.75L22.43,109.59z M17.08,101.45l-1.05,0.98l0.68,0.73c0.27,0.29,0.44,0.46,0.53,0.52
	c0.13,0.1,0.27,0.14,0.42,0.14c0.15,0,0.3-0.07,0.44-0.2c0.12-0.11,0.19-0.23,0.22-0.37c0.03-0.13,0.01-0.27-0.05-0.42
	c-0.06-0.14-0.26-0.39-0.6-0.75L17.08,101.45z M18.64,100l-0.91,0.85l0.48,0.52c0.29,0.31,0.47,0.5,0.55,0.56
	c0.14,0.12,0.29,0.18,0.44,0.19c0.15,0.01,0.29-0.05,0.42-0.17c0.12-0.11,0.19-0.24,0.2-0.38c0.01-0.14-0.03-0.28-0.14-0.43
	c-0.06-0.09-0.27-0.32-0.62-0.69L18.64,100z M18.56,98.6l1.46,1.57c0.29,0.31,0.49,0.55,0.61,0.73c0.12,0.18,0.19,0.36,0.22,0.56
	c0.03,0.2,0.01,0.4-0.05,0.61c-0.06,0.21-0.18,0.39-0.35,0.55c-0.18,0.17-0.4,0.28-0.64,0.32c-0.25,0.04-0.49,0.02-0.72-0.08
	c0.15,0.3,0.21,0.6,0.16,0.88c-0.05,0.29-0.19,0.53-0.41,0.74c-0.18,0.17-0.39,0.29-0.64,0.36c-0.25,0.07-0.49,0.09-0.72,0.04
	c-0.23-0.05-0.46-0.17-0.68-0.36c-0.14-0.12-0.44-0.43-0.92-0.93l-1.25-1.34L18.56,98.6z M14.12,96.66l0.49,0.63
	c0.32,0.41,0.54,0.65,0.65,0.73c0.11,0.07,0.24,0.11,0.37,0.1c0.13-0.01,0.26-0.06,0.38-0.16c0.14-0.11,0.23-0.24,0.26-0.38
	c0.03-0.14,0-0.29-0.09-0.45c-0.04-0.08-0.2-0.29-0.47-0.63l-0.52-0.67L14.12,96.66z M11.01,97.72l4.23-3.3l1.4,1.8
	c0.35,0.45,0.57,0.81,0.65,1.07c0.08,0.26,0.08,0.53-0.02,0.81c-0.1,0.28-0.27,0.51-0.52,0.7c-0.32,0.25-0.65,0.36-1.01,0.33
	c-0.35-0.03-0.7-0.2-1.04-0.53c0.04,0.27,0.04,0.51,0,0.74c-0.04,0.22-0.14,0.56-0.31,1.02l-0.42,1.16l-0.8-1.02l0.44-1.34
	c0.16-0.48,0.25-0.79,0.27-0.94c0.02-0.15,0.01-0.28-0.02-0.39c-0.04-0.12-0.14-0.27-0.29-0.47l-0.13-0.17l-1.77,1.38L11.01,97.72z
	 M8.1,93.17l4.55-2.84l2.11,3.37l-0.77,0.48l-1.53-2.45l-1.01,0.63l1.43,2.28l-0.77,0.48l-1.43-2.28l-1.24,0.77l1.59,2.54
	l-0.77,0.48L8.1,93.17z M5.7,88.29l0.88-0.43l4.36,1.01l-1.1-2.25l0.82-0.4l1.72,3.53l-0.76,0.37l-4.54-1.06l1.34,2.74l-0.81,0.4
	L5.7,88.29z M6.77,85.18l1.64-1.35L6.29,83.8L6.77,85.18z M64.87,76.7c-2.54-0.56-6.05-0.9-9.93-0.9c-3.88,0-7.39,0.34-9.93,0.9
	c-2.47,0.54-4,1.26-4,2.03c0,0.77,1.53,1.49,4,2.03c2.54,0.56,6.05,0.9,9.93,0.9c3.88,0,7.39-0.34,9.93-0.9c2.47-0.54,4-1.26,4-2.03
	C68.87,77.96,67.34,77.24,64.87,76.7z M68.87,78.03l-0.04-6.85c-0.16-0.72-1.65-1.39-3.98-1.9c-2.54-0.56-6.04-0.9-9.92-0.9
	c-3.87,0-7.38,0.34-9.92,0.9c-2.47,0.54-4,1.26-4,2.03l0,6.73c0.59-0.65,1.99-1.21,3.94-1.64c2.56-0.56,6.09-0.91,9.99-0.91
	s7.43,0.35,9.99,0.91C66.88,76.82,68.27,77.39,68.87,78.03z M65.47,66.26l2.63,2.63l2.63-2.63l-2.63-2.63L65.47,66.26z M65.47,60.99
	l2.63,2.63l2.63-2.63l-2.63-2.63L65.47,60.99z M65.47,55.72l2.63,2.63l2.63-2.63l-2.63-2.63L65.47,55.72z M60.2,60.99l2.63,2.63
	l2.63-2.63l-2.63-2.63L60.2,60.99z M60.2,55.72l2.63,2.63l2.63-2.63l-2.63-2.63L60.2,55.72z M54.93,60.99l2.63,2.63l2.63-2.63
	l-2.63-2.63L54.93,60.99z M54.93,55.72l2.63,2.63l2.63-2.63l-2.63-2.63L54.93,55.72z M49.66,60.99l2.63,2.63l2.63-2.63l-2.63-2.63
	L49.66,60.99z M49.66,55.72l2.63,2.63l2.63-2.63l-2.63-2.63L49.66,55.72z M44.39,60.99l2.63,2.63l2.63-2.63l-2.63-2.63L44.39,60.99z
	 M44.39,55.72l2.63,2.63l2.63-2.63l-2.63-2.63L44.39,55.72z M39.12,66.26l2.63,2.63l2.63-2.63l-2.63-2.63L39.12,66.26z M39.12,60.99
	l2.63,2.63l2.63-2.63l-2.63-2.63L39.12,60.99z M39.12,55.72l2.63,2.63l2.63-2.63l-2.63-2.63L39.12,55.72z M58.34,52.33
	c-0.68-0.53-1.58-1-2.69-1.15l1.92,1.92L58.34,52.33L58.34,52.33z M64.08,51.85c-0.12,0.05-0.25,0.11-0.37,0.17
	c-0.43,0.2-0.85,0.44-1.26,0.7l0.38,0.38L64.08,51.85z M69.54,51.71c-0.78-0.4-1.54-0.57-2.15-0.59c-0.38-0.02-0.78,0.01-1.2,0.09
	l0.03-0.01l1.89,1.89l1.4-1.4L69.54,51.71z M73.34,58.38c-0.16-1.72-0.59-3.05-1.17-4.09l-1.43,1.43l2.59,2.59L73.34,58.38z
	 M73.09,63.35c0.18-0.95,0.29-2.02,0.31-3.23c0.01-0.62-0.01-1.19-0.06-1.73l-2.6,2.6L73.09,63.35z M71.73,67.26
	c0.47-0.87,0.9-1.92,1.21-3.2l-2.21,2.21L71.73,67.26z M71.59,67.51c0.05-0.08,0.09-0.16,0.14-0.24
	C71.68,67.35,71.64,67.43,71.59,67.51z M71.33,67.94c0.02-0.03,0.04-0.07,0.07-0.1C71.37,67.87,71.35,67.91,71.33,67.94z
	 M67.31,69.68c0.78,0.31,1.33,0.66,1.62,1.04c0.09-0.09,0.19-0.18,0.29-0.29c0.07-0.06,0.14-0.13,0.21-0.2L68.1,68.9L67.31,69.68z
	 M62.48,68.55c0.21,0.03,0.41,0.06,0.61,0.09l2.38-2.38l-2.63-2.63l-2.63,2.63L62.48,68.55z M56.76,68.09
	c0.52,0.01,1.04,0.04,1.54,0.06l1.89-1.89l-2.63-2.63l-2.63,2.63L56.76,68.09z M47.37,68.55l0.06-0.01l0.06-0.01l0.06-0.01
	l0.06-0.01l0,0l0.06-0.01l0.06-0.01l0.02,0l0.04-0.01l0.06-0.01l0.05-0.01l0.01,0l0.06-0.01l0.06-0.01l0.01,0l0,0l0.11-0.01l0.04,0
	l0.03,0l0.06-0.01l0.06-0.01l0,0l0.06-0.01l0.06-0.01l0.03,0l0.04,0l0.06-0.01l0.05-0.01l0.01,0l0.06-0.01l0.06-0.01l0.02,0l0,0
	l0.11-0.01l0.04,0l0.02,0l0.13-0.01l0,0l0.06-0.01l0.07-0.01l0.03,0l0.03,0l0.07-0.01l0.06-0.01l0.01,0l0.07-0.01l0.07-0.01l0.02,0
	l0.05,0l0.07-0.01l0.05,0l0.02,0l0.07-0.01l0.07-0.01l0.01,0l0.12-0.01l0.01,0l0.04,0l0.03,0l0.13-0.01l0,0l0.14-0.01l0.02,0l0.04,0
	l0.07,0l0.05,0l0.02,0l0.07,0l0.07,0l0.01,0l0.06,0l0.07,0l0.04,0l0.03,0l0.14-0.01h0l0.07,0l0.07,0l0.03,0l0.04,0l0.13-0.01l0.01,0
	c0.55-0.03,1.11-0.05,1.68-0.07l1.83-1.83l-2.63-2.63l-2.63,2.63l1.89,1.89 M46.76,68.64c0.2-0.03,0.4-0.06,0.61-0.09l2.29-2.29
	l-2.63-2.63l-2.63,2.63L46.76,68.64z M40.35,70.3l0.14,0.13c0.14,0.14,0.27,0.26,0.37,0.37c0.26-0.41,0.84-0.78,1.68-1.12
	l-0.79-0.79L40.35,70.3z M36.73,63.88c0.32,1.41,0.79,2.56,1.3,3.48l0-0.01l1.09-1.09L36.73,63.88z M37.6,54.21
	c-0.79,1.36-1.32,3.27-1.29,5.92c0.02,1.25,0.14,2.36,0.33,3.34l2.47-2.47l-2.63-2.63l2.63-2.63L37.6,54.21z M39.79,51.93
	c-0.04,0.02-0.08,0.05-0.12,0.08C39.71,51.98,39.75,51.96,39.79,51.93z M39.99,51.81c-0.07,0.04-0.13,0.08-0.2,0.12
	C39.86,51.89,39.92,51.85,39.99,51.81z M40.23,51.69c-0.07,0.03-0.13,0.07-0.2,0.1C40.1,51.76,40.16,51.72,40.23,51.69z
	 M43.62,51.22c-0.45-0.08-0.89-0.12-1.29-0.1c-0.59,0.03-1.32,0.18-2.06,0.55l0.04-0.02l1.44,1.44L43.62,51.22z M47.35,52.76
	c-0.43-0.28-0.88-0.53-1.34-0.75l-0.12-0.05l1.13,1.13L47.35,52.76z M50.1,53.63c-0.02,0.03-0.05,0.07-0.07,0.1
	C50.05,53.7,50.08,53.67,50.1,53.63z M51.47,47.95l3.44-6.32l3.44,6.32l-1.71,3.13c2.14,0.68,3.3,2.42,3.64,3
	c0.9-0.97,2.07-1.78,3.28-2.36c1.32-0.63,2.69-0.97,3.82-0.92c1.32,0.06,3.33,0.75,4.72,2.82c0.96,1.43,1.63,3.51,1.6,6.5
	c-0.09,6.47-2.9,9.2-4.27,10.53c-0.12,0.12-0.23,0.22-0.32,0.31l0.01,0c0.02,2.59,0.05,5.17,0.05,7.76c0,0.94-1.62,1.76-4.25,2.33
	c-2.56,0.56-6.09,0.91-9.99,0.91s-7.43-0.35-9.99-0.91c-2.63-0.58-4.25-1.4-4.25-2.33l-0.05-7.7c-0.11-0.11-0.24-0.24-0.38-0.38
	c-1.36-1.32-4.18-4.06-4.27-10.53c-0.04-2.99,0.63-5.07,1.6-6.5c1.4-2.07,3.4-2.76,4.72-2.82c1.13-0.05,2.5,0.3,3.82,0.92
	c1.21,0.58,2.38,1.39,3.28,2.36c0.35-0.59,1.54-2.38,3.74-3.03L51.47,47.95z M54.23,51.16c-1.14,0.13-2.06,0.58-2.77,1.1l0.83,0.83
	L54.23,51.16z M101.63,65.35l5.36-0.19l0.04,1.08l-5.36,0.19L101.63,65.35z M102.89,59.69l0.25,1.03c-0.34,0.11-0.58,0.27-0.72,0.49
	c-0.14,0.21-0.18,0.48-0.14,0.81c0.05,0.35,0.16,0.6,0.33,0.75c0.17,0.16,0.35,0.22,0.55,0.19c0.13-0.02,0.23-0.07,0.3-0.16
	c0.08-0.09,0.14-0.22,0.18-0.42c0.03-0.13,0.06-0.43,0.11-0.89c0.06-0.6,0.18-1.02,0.36-1.28c0.25-0.37,0.58-0.58,1-0.64
	c0.27-0.04,0.53,0,0.79,0.12c0.26,0.12,0.47,0.32,0.63,0.59c0.16,0.27,0.27,0.61,0.33,1.02c0.09,0.67,0.02,1.19-0.23,1.57
	c-0.25,0.38-0.61,0.61-1.1,0.7l-0.2-1.07c0.27-0.08,0.45-0.21,0.55-0.38c0.1-0.17,0.13-0.4,0.08-0.7c-0.04-0.31-0.14-0.55-0.29-0.71
	c-0.1-0.1-0.22-0.14-0.35-0.12c-0.13,0.02-0.23,0.09-0.3,0.21c-0.09,0.15-0.17,0.5-0.22,1.04c-0.05,0.54-0.12,0.94-0.22,1.21
	c-0.1,0.27-0.25,0.49-0.46,0.66c-0.21,0.17-0.48,0.28-0.82,0.33c-0.3,0.04-0.6,0-0.89-0.13c-0.29-0.13-0.52-0.34-0.69-0.63
	c-0.17-0.29-0.29-0.67-0.36-1.13c-0.09-0.67-0.01-1.21,0.25-1.61C101.88,60.12,102.3,59.84,102.89,59.69z M102.75,56.94l1.77-1.17
	l-2.1-0.26L102.75,56.94z M101.14,59.37l-0.27-1.15l1.08-0.73l-0.48-2.09l-1.29-0.16l-0.26-1.12l5.7,0.83l0.26,1.12L101.14,59.37z
	 M99.11,51.69l2.14-0.74l2.3-2.87l0.41,1.2l-1.6,1.89l2.41,0.48l0.41,1.18l-3.59-0.85l-2.13,0.73L99.11,51.69z M102.91,45.85
	l0.88-0.41l0.43,0.91l-0.88,0.41L102.91,45.85z M97.75,48.21l4.86-2.27l0.46,0.98l-4.86,2.27L97.75,48.21z M96.84,42.52l0.59,0.88
	c-0.28,0.22-0.45,0.46-0.51,0.71c-0.05,0.25-0.01,0.52,0.15,0.81c0.16,0.31,0.35,0.51,0.57,0.59c0.21,0.09,0.41,0.08,0.58-0.01
	c0.11-0.06,0.19-0.14,0.23-0.25c0.04-0.11,0.05-0.26,0.02-0.45c-0.02-0.13-0.09-0.42-0.2-0.88c-0.15-0.58-0.18-1.02-0.1-1.33
	c0.11-0.43,0.35-0.74,0.72-0.94c0.24-0.13,0.5-0.18,0.79-0.15c0.28,0.03,0.55,0.14,0.79,0.34c0.25,0.2,0.47,0.48,0.66,0.84
	c0.32,0.6,0.42,1.11,0.32,1.55c-0.1,0.44-0.37,0.78-0.79,1.03l-0.55-0.93c0.22-0.17,0.35-0.35,0.38-0.54
	c0.04-0.19-0.02-0.42-0.16-0.69c-0.15-0.28-0.32-0.47-0.52-0.56c-0.13-0.06-0.25-0.06-0.37,0c-0.11,0.06-0.18,0.16-0.21,0.3
	c-0.04,0.17,0.01,0.52,0.15,1.05c0.14,0.52,0.21,0.93,0.21,1.21c0,0.29-0.07,0.54-0.2,0.78c-0.14,0.23-0.36,0.43-0.65,0.59
	c-0.27,0.14-0.57,0.2-0.88,0.18c-0.32-0.03-0.61-0.14-0.87-0.36c-0.26-0.21-0.5-0.53-0.72-0.94c-0.32-0.6-0.43-1.13-0.32-1.6
	C96.05,43.27,96.35,42.86,96.84,42.52z M95.8,40.07l1.27-1.7l-2.06,0.48L95.8,40.07z M95.11,42.89l-0.64-0.99l0.77-1.06l-1.17-1.8
	l-1.26,0.29l-0.63-0.96l5.64-1.17l0.62,0.96L95.11,42.89z M91.84,33.38l0.53,0.6c0.34,0.39,0.57,0.62,0.69,0.69
	c0.12,0.07,0.24,0.09,0.37,0.08c0.13-0.02,0.25-0.08,0.38-0.18c0.14-0.12,0.21-0.25,0.23-0.4c0.02-0.15-0.02-0.29-0.11-0.45
	c-0.05-0.07-0.22-0.28-0.51-0.61l-0.55-0.64L91.84,33.38z M88.79,34.6l4.05-3.52l1.5,1.72c0.38,0.43,0.61,0.78,0.71,1.04
	c0.1,0.26,0.11,0.53,0.02,0.81c-0.08,0.28-0.25,0.52-0.48,0.73c-0.3,0.26-0.63,0.39-0.99,0.39c-0.35-0.01-0.71-0.17-1.07-0.48
	c0.05,0.27,0.06,0.51,0.04,0.73c-0.02,0.22-0.11,0.57-0.25,1.04l-0.36,1.18l-0.85-0.98l0.37-1.36c0.13-0.48,0.21-0.8,0.22-0.95
	c0.01-0.15,0-0.28-0.05-0.39c-0.05-0.11-0.15-0.26-0.31-0.45l-0.14-0.17l-1.69,1.47L88.79,34.6z M85.05,31.03l3.66-3.92l2.91,2.71
	L91,30.48l-2.12-1.97l-0.81,0.87l1.97,1.84l-0.62,0.66l-1.97-1.84l-1,1.07l2.19,2.04l-0.62,0.66L85.05,31.03z M83.96,24.64
	l-2.04,2.91l0.66,0.46c0.25,0.17,0.44,0.29,0.57,0.33c0.17,0.06,0.33,0.09,0.49,0.07c0.16-0.02,0.33-0.11,0.53-0.26
	c0.2-0.15,0.42-0.4,0.65-0.74c0.24-0.34,0.39-0.62,0.46-0.84c0.07-0.22,0.08-0.43,0.05-0.6c-0.04-0.18-0.13-0.34-0.27-0.49
	c-0.1-0.12-0.34-0.3-0.7-0.55L83.96,24.64z M83.6,23.28l1.62,1.14c0.37,0.26,0.62,0.48,0.78,0.67c0.2,0.26,0.33,0.55,0.38,0.87
	c0.05,0.32,0.02,0.66-0.08,1.01c-0.1,0.35-0.3,0.73-0.58,1.14c-0.25,0.36-0.52,0.64-0.79,0.84c-0.33,0.24-0.67,0.39-1.01,0.45
	c-0.26,0.04-0.55,0.01-0.87-0.09c-0.24-0.07-0.52-0.23-0.85-0.46l-1.67-1.17L83.6,23.28z M76.02,25l2.6-4.69l3.48,1.93l-0.44,0.79
	l-2.53-1.4l-0.58,1.04l2.36,1.31l-0.44,0.79l-2.36-1.31l-0.71,1.28l2.62,1.45l-0.44,0.79L76.02,25z M71.63,23.01l2.18-4.9l3.36,1.5
	l-0.37,0.83l-2.37-1.06l-0.52,1.16l2.05,0.91l-0.37,0.83l-2.05-0.91l-0.93,2.08L71.63,23.01z M66.05,21.22l1.15-4.31l-1.54-0.41
	l0.24-0.88l4.12,1.1l-0.24,0.88l-1.53-0.41l-1.15,4.31L66.05,21.22z M63.07,18.44l-0.38-2.09l-1.06,1.84L63.07,18.44z M64.66,20.87
	l-1.16-0.2l-0.25-1.28l-2.11-0.37l-0.65,1.12l-1.13-0.2l2.99-4.92l1.13,0.2L64.66,20.87z M53.44,19.8l0.09-5.36l1.62,0.03l0.91,3.68
	l1.03-3.64l1.63,0.03l-0.09,5.36l-1.01-0.02l0.07-4.22l-1.14,4.2l-1.04-0.02l-0.99-4.24l-0.07,4.22L53.44,19.8z M47.84,20.13
	l-0.37-5.35l1.08-0.08l0.15,2.11l2.12-0.15l-0.15-2.11l1.08-0.08l0.37,5.35l-1.08,0.08l-0.16-2.34l-2.12,0.15l0.16,2.34L47.84,20.13
	z M44.69,18.58l-1.14-1.79l-0.29,2.1L44.69,18.58z M47.08,20.24l-1.15,0.25l-0.71-1.1l-2.1,0.45l-0.18,1.28l-1.12,0.24l0.93-5.68
	l1.12-0.24L47.08,20.24z M38.72,23.95l-0.13-0.41c0.25-0.05,0.47-0.11,0.67-0.18c0.21-0.07,0.35-0.15,0.42-0.26
	c0.06-0.08,0.07-0.16,0.04-0.25c-0.03-0.08-0.08-0.14-0.17-0.17c-0.09-0.03-0.21-0.03-0.36,0.02c-0.15,0.05-0.29,0.12-0.43,0.22
	l-0.02-0.37c0.16-0.12,0.34-0.22,0.55-0.28c0.29-0.09,0.53-0.1,0.72-0.02c0.19,0.08,0.32,0.21,0.38,0.39
	c0.07,0.2,0.04,0.4-0.09,0.58c-0.17,0.25-0.46,0.44-0.88,0.58C39.12,23.88,38.89,23.94,38.72,23.95z M36.55,21.27l0.97-0.42
	c0.17,0.32,0.37,0.53,0.61,0.62c0.24,0.1,0.51,0.1,0.82-0.01c0.33-0.11,0.56-0.26,0.68-0.46c0.12-0.2,0.15-0.39,0.09-0.57
	c-0.04-0.12-0.11-0.21-0.21-0.27c-0.1-0.06-0.25-0.1-0.44-0.1c-0.13,0-0.43,0.01-0.9,0.04c-0.6,0.04-1.04,0-1.33-0.13
	c-0.4-0.18-0.67-0.47-0.8-0.87c-0.08-0.26-0.09-0.53-0.02-0.8c0.07-0.27,0.23-0.52,0.47-0.72c0.24-0.21,0.55-0.38,0.95-0.5
	c0.64-0.21,1.17-0.22,1.58-0.05c0.41,0.18,0.71,0.5,0.88,0.96l-1.02,0.38c-0.13-0.25-0.29-0.41-0.47-0.47
	c-0.18-0.07-0.42-0.05-0.71,0.04c-0.3,0.1-0.51,0.23-0.64,0.41c-0.08,0.11-0.1,0.24-0.06,0.37c0.04,0.12,0.12,0.21,0.25,0.26
	c0.17,0.07,0.52,0.08,1.06,0.03c0.54-0.04,0.95-0.04,1.23,0.01c0.28,0.05,0.53,0.16,0.73,0.34c0.21,0.18,0.36,0.42,0.47,0.75
	c0.1,0.29,0.1,0.59,0.02,0.9c-0.08,0.31-0.25,0.57-0.5,0.79c-0.26,0.22-0.61,0.4-1.05,0.55c-0.65,0.21-1.19,0.22-1.63,0.04
	C37.15,22.19,36.8,21.82,36.55,21.27z M30.24,26.28l-2.44-4.78l0.94-0.48l3.58,2.2l-1.63-3.19l0.9-0.46l2.44,4.78l-0.97,0.49
	l-3.52-2.14l1.59,3.12L30.24,26.28z M26.73,26.08l-1.75-1.21l0.55,2.05L26.73,26.08z M29.58,26.67l-0.97,0.68l-1.08-0.73l-1.76,1.23
	l0.34,1.25l-0.94,0.66l-1.37-5.59l0.94-0.66L29.58,26.67z M22.68,29.36l1.02-0.42c0.25,0.55,0.33,1.06,0.22,1.52
	c-0.1,0.46-0.38,0.87-0.82,1.24c-0.55,0.46-1.15,0.65-1.81,0.57c-0.66-0.08-1.27-0.44-1.81-1.09c-0.57-0.68-0.84-1.36-0.81-2.04
	c0.04-0.67,0.34-1.25,0.92-1.74c0.5-0.42,1.04-0.62,1.6-0.58c0.33,0.02,0.69,0.15,1.06,0.4l-0.66,0.89
	c-0.23-0.17-0.47-0.26-0.73-0.25c-0.26,0.01-0.5,0.1-0.72,0.29c-0.3,0.26-0.46,0.57-0.47,0.95c-0.01,0.38,0.2,0.81,0.61,1.3
	c0.44,0.52,0.84,0.81,1.21,0.87c0.37,0.06,0.71-0.03,1.01-0.28c0.22-0.19,0.35-0.41,0.39-0.69C22.94,30.04,22.86,29.72,22.68,29.36z
	 M18.77,35.93l-1.7-1.48l-3.63-0.56l0.83-0.96l2.43,0.44l-0.79-2.33l0.82-0.94l1.06,3.53l1.7,1.48L18.77,35.93z M14.78,37.39
	l-2.05-0.57l1.19,1.76L14.78,37.39z M17.67,37.02l-0.69,0.95l-1.26-0.34l-1.26,1.74l0.73,1.07l-0.68,0.93l-3.11-4.84l0.67-0.93
	L17.67,37.02z M10.53,43.67l1.24,0.72l0.5-0.87c0.2-0.34,0.31-0.56,0.34-0.66c0.06-0.15,0.06-0.3,0.01-0.45
	c-0.05-0.14-0.15-0.27-0.32-0.36c-0.14-0.08-0.28-0.11-0.41-0.1c-0.14,0.01-0.26,0.07-0.38,0.17c-0.12,0.1-0.3,0.37-0.55,0.79
	L10.53,43.67z M8.68,42.6l1.07,0.62l0.35-0.61c0.21-0.37,0.34-0.6,0.38-0.69c0.07-0.17,0.09-0.33,0.05-0.47
	c-0.04-0.14-0.13-0.26-0.28-0.35c-0.14-0.08-0.28-0.11-0.42-0.08c-0.14,0.03-0.26,0.11-0.37,0.26c-0.06,0.09-0.22,0.35-0.48,0.79
	L8.68,42.6z M7.36,43.09l1.07-1.86c0.21-0.37,0.39-0.63,0.52-0.8c0.13-0.16,0.29-0.29,0.47-0.37c0.18-0.09,0.38-0.13,0.59-0.13
	c0.22,0,0.43,0.06,0.63,0.17c0.22,0.13,0.38,0.3,0.5,0.52c0.11,0.22,0.16,0.46,0.13,0.71c0.25-0.23,0.51-0.37,0.8-0.41
	c0.29-0.04,0.56,0.02,0.83,0.18c0.21,0.12,0.39,0.29,0.53,0.5c0.14,0.21,0.22,0.44,0.25,0.68c0.02,0.24-0.03,0.49-0.14,0.76
	c-0.07,0.17-0.28,0.55-0.62,1.15l-0.91,1.58L7.36,43.09z M7.3,48.75L7.6,48c0.19-0.48,0.3-0.79,0.3-0.93
	c0.01-0.14-0.03-0.26-0.1-0.37c-0.07-0.11-0.18-0.19-0.33-0.25c-0.17-0.07-0.32-0.08-0.46-0.03c-0.14,0.05-0.25,0.15-0.35,0.3
	c-0.04,0.08-0.15,0.32-0.31,0.73l-0.32,0.78L7.3,48.75z M9.77,50.91L4.79,48.9l0.85-2.12c0.21-0.53,0.42-0.9,0.6-1.1
	c0.19-0.2,0.42-0.33,0.71-0.39c0.29-0.05,0.58-0.02,0.87,0.1c0.37,0.15,0.64,0.39,0.79,0.7c0.15,0.32,0.17,0.71,0.06,1.17
	c0.22-0.17,0.43-0.29,0.64-0.37c0.21-0.08,0.55-0.16,1.04-0.24l1.22-0.22l-0.49,1.2l-1.38,0.29c-0.49,0.1-0.81,0.18-0.94,0.23
	c-0.14,0.05-0.25,0.13-0.33,0.22c-0.08,0.09-0.17,0.25-0.26,0.48l-0.08,0.2l2.08,0.84L9.77,50.91z M7,52.44l-0.7,2.43
	c0.48,0.07,0.86,0.03,1.13-0.12c0.28-0.16,0.46-0.38,0.55-0.68c0.09-0.33,0.07-0.63-0.08-0.91C7.75,52.87,7.45,52.64,7,52.44z
	 M6.9,51.22c1.08,0.31,1.75,0.9,2,1.77c0.12,0.4,0.11,0.85-0.03,1.33c-0.16,0.54-0.42,0.94-0.8,1.21c-0.71,0.49-1.54,0.6-2.49,0.33
	c-0.11-0.03-0.25-0.09-0.44-0.17l1-3.49c-0.4-0.07-0.75-0.04-1.04,0.09c-0.33,0.15-0.55,0.41-0.66,0.78
	c-0.16,0.56,0.01,1.01,0.53,1.35l-0.53,0.96c-0.47-0.26-0.78-0.62-0.93-1.09c-0.14-0.44-0.14-0.92,0.02-1.45
	c0.22-0.77,0.65-1.29,1.3-1.57C5.42,51.01,6.11,50.99,6.9,51.22z M7.24,61.54l-0.96-0.19L3.4,57.92l-0.48,2.45L2.03,60.2l0.75-3.86
	l0.83,0.16l2.99,3.58l0.58-3l0.89,0.17L7.24,61.54z M5.03,63.68l-2.05,0.56l1.92,0.9L5.03,63.68z M7.32,61.87l-0.1,1.17l-1.26,0.36
	l-0.19,2.14l1.18,0.55l-0.1,1.14l-5.16-2.55l0.1-1.14L7.32,61.87z M65.08,40.75L54.8,30.41L44.51,40.75l-0.37,0.37l-0.52,0
	l-14.59-0.04l0.04,14.59l0,0.52l-0.37,0.37L18.37,66.84l10.34,10.29l0.37,0.37l0,0.52L29.04,92.6l14.59-0.04l0.52,0l0.37,0.37
	l10.29,10.34l10.29-10.34l0.37-0.37l0.52,0l14.59,0.04l-0.04-14.59l0-0.52l0.37-0.37l10.34-10.29L80.89,56.55l-0.37-0.37l0-0.52
	l0.04-14.59l-14.59,0.04l-0.52,0L65.08,40.75z M55.68,27.76l10.8,10.86l15.32-0.04l1.25,0l0,1.25l-0.04,15.32l10.86,10.8l0.89,0.88
	l-0.89,0.88l-10.86,10.8l0.04,15.32l0,1.25l-1.25,0l-15.32-0.04l-10.8,10.86l-0.88,0.89l-0.88-0.89l-10.8-10.86l-15.32,0.04l-1.25,0
	l0-1.25l0.04-15.32l-10.86-10.8l-0.89-0.88l0.89-0.88l10.86-10.8l-0.04-15.32l0-1.25l1.25,0l15.32,0.04l10.8-10.86l0.88-0.89
	L55.68,27.76z M5.41,87.76l-0.38-1.12l1-0.84l-0.7-2.03l-1.3-0.02l-0.37-1.09l5.75,0.23l0.37,1.08L5.41,87.76z"/>
<text transform="matrix(1 0 0 1 126.8779 63.6738)"><tspan x="0" y="0" class="st5 st6 st7">Azərbaycan</tspan><tspan x="0" y="23.98" class="st5 st6 st7">Şahmat Federasiyası</tspan></text>
</svg>
