<?xml version="1.0" encoding="utf-8"?>
<!-- Generator: Adobe Illustrator 24.0.3, SVG Export Plug-In . SVG Version: 6.00 Build 0)  -->
<svg version="1.1" id="Layer_1" xmlns="http://www.w3.org/2000/svg" xmlns:xlink="http://www.w3.org/1999/xlink" x="0px" y="0px"
	 viewBox="0 0 640 640" style="enable-background:new 0 0 640 640;" xml:space="preserve">
<style type="text/css">
	.st0{fill:#0094D9;}
	.st1{fill-rule:evenodd;clip-rule:evenodd;fill:#EC1C24;}
	.st2{fill:#FFFFFF;}
	.st3{fill-rule:evenodd;clip-rule:evenodd;fill:#00A551;}
	.st4{fill:#43525A;}
	.st5{fill:#D1AA67;}
</style>
<polygon class="st0" points="380.2,170.1 322.5,112.1 264.7,170.1 262.7,172.2 259.8,172.2 177.9,172 178.1,249.1 466.8,249.1 
	467,172 385.2,172.2 382.2,172.2 "/>
<polygon class="st1" points="178.1,386.8 466.8,386.8 466.8,379.2 466.8,376.3 468.9,374.2 526.9,316.5 468.9,258.8 466.8,256.8 
	466.8,253.8 466.8,249.1 178.1,249.1 178.1,253.8 178.1,256.8 176,258.8 118,316.5 176,374.2 178.1,376.3 178.1,379.2 "/>
<path class="st2" d="M322.7,228.3c-20.4,0.1-29.4,18.5-29.4,18.5l-0.6,1.1l-0.8-1c-5-5.6-11.7-10.4-18.7-13.7
	c-7.1-3.4-14.5-5.3-20.6-5c-7,0.3-17.7,4-25.1,15c-5.2,7.7-8.9,19.1-8.6,35.5c0.4,35.6,15.9,50.6,23.5,57.9c0.8,0.8,1.5,1.5,2.1,2.1
	c2.6-4,10.9-7.6,22.9-10.3c14.4-3.1,34.2-5.1,56-5.1c21.9,0,41.6,2,56,5.1c11.6,2.5,19.6,5.9,22.6,9.8c0.5-0.5,1.1-1,1.6-1.6
	c7.5-7.2,23-22.3,23.5-57.9c0.2-16.3-3.4-27.7-8.6-35.5c-7.5-11.1-18.1-14.8-25.1-15c-6.1-0.3-13.5,1.6-20.6,5
	c-7,3.3-13.7,8.1-18.7,13.7l-0.8,1l-0.6-1.1c0-0.1-9-18.4-29.4-18.5L322.7,228.3L322.7,228.3z"/>
<polygon class="st3" points="178.1,386.8 466.8,386.8 467,461.1 385.2,460.9 382.2,460.9 380.2,463 322.5,521 264.7,463 
	262.7,460.9 259.8,460.9 177.9,461.1 "/>
<path class="st4" d="M379,371.9c-14.3-3.1-34-5.1-55.7-5.1c-21.8,0-41.5,1.9-55.7,5.1c-13.9,3-22.4,7.1-22.4,11.4s8.6,8.4,22.4,11.4
	c14.3,3.1,34,5.1,55.7,5.1c21.8,0,41.5-1.9,55.7-5.1c13.9-3,22.4-7.1,22.4-11.4S392.8,374.9,379,371.9 M401.4,379.3l-0.2-38.4
	c-0.9-4-9.3-7.8-22.3-10.7c-14.3-3.1-33.9-5.1-55.7-5.1c-21.7,0-41.4,1.9-55.7,5.1c-13.9,3-22.4,7.1-22.4,11.4v37.8
	c3.3-3.6,11.2-6.8,22.1-9.2c14.4-3.1,34.2-5.1,56.1-5.1c21.9,0,41.7,2,56.1,5.1C390.3,372.5,398.1,375.7,401.4,379.3z"/>
<path class="st5" d="M599.9,419.2l-28.6-9.3l1.9-5.6l23-5.5l-19.1-6.2l1.7-5.4l28.6,9.3l-1.9,5.8l-22.4,5.5l18.7,6.1L599.9,419.2z
	 M574.4,440.6c3.1,1.4,5.8,1.7,8,1c2.2-0.7,3.9-2.2,4.8-4.4c1-2.2,1-4.4,0.1-6.5c-1-2.1-3-3.9-6.2-5.3c-3.1-1.4-5.8-1.7-8-1.1
	c-2.2,0.7-3.8,2.2-4.8,4.5c-1,2.3-1.1,4.5-0.1,6.6C569.2,437.5,571.2,439.2,574.4,440.6z M572,446.5c-2.8-1.2-5-2.7-6.5-4.4
	c-1.1-1.2-2-2.6-2.6-4.3c-0.6-1.6-0.9-3.1-0.9-4.7c0.1-2,0.6-4.2,1.6-6.4c1.8-4,4.5-6.7,8.1-8c3.6-1.3,7.6-1,12.1,1
	c4.4,2,7.4,4.7,8.8,8.2c1.4,3.5,1.2,7.3-0.6,11.3c-1.8,4.1-4.5,6.8-8.1,8.1C580.4,448.7,576.4,448.4,572,446.5z M579.4,463.9
	l-26.3-14.6l3-5.3l26.3,14.6L579.4,463.9z M568.2,482L547,468.7l-4.7,7.6l-4.3-2.7l12.7-20.3l4.3,2.7l-4.7,7.6l21.2,13.2L568.2,482z
	 M547.1,491.1l-11.3-3.6l6.3,10.1L547.1,491.1z M563.4,489.7l-4.1,5.2l-7-2.1l-7.4,9.5l3.9,6.2l-4,5.1l-16.5-27.8l4-5.1L563.4,489.7
	z M515.7,518.5l3.1-3.3c2-2.1,3.1-3.5,3.5-4.3c0.3-0.7,0.4-1.4,0.2-2.1s-0.6-1.3-1.2-2c-0.7-0.7-1.5-1.1-2.4-1.1
	c-0.8-0.1-1.6,0.3-2.4,0.8c-0.4,0.3-1.4,1.3-3.1,3.2l-3.3,3.5L515.7,518.5z M524.2,534.8l-22-20.5l8.8-9.4c2.2-2.4,4-3.9,5.4-4.5
	c1.4-0.7,2.9-0.9,4.5-0.6c1.6,0.3,3.1,1.1,4.4,2.3c1.6,1.5,2.6,3.3,2.8,5.3c0.2,2-0.5,4-2,6.2c1.5-0.4,2.8-0.7,4.1-0.7
	c1.2,0,3.3,0.3,5.9,0.8l6.8,1.3l-4.9,5.3l-7.8-1.2c-2.8-0.4-4.6-0.7-5.4-0.7c-0.8,0-1.6,0.2-2.2,0.5c-0.6,0.3-1.4,1-2.4,2l-0.8,0.9
	l9.2,8.6L524.2,534.8z M501.2,554.8L481,532.4l16.6-14.9l3.4,3.8L489,532.1l4.5,4.9l11.2-10.1l3.4,3.8l-11.2,10.1l5.5,6.1l12.5-11.3
	l3.4,3.8L501.2,554.8z M465.7,548.5l10.9,16.7l3.8-2.5c1.4-0.9,2.4-1.7,2.9-2.2c0.7-0.7,1.2-1.5,1.4-2.4c0.2-0.8,0.1-2-0.2-3.3
	c-0.4-1.3-1.2-3-2.5-4.9c-1.3-2-2.4-3.3-3.4-4.2c-1-0.8-2-1.3-3-1.5c-1-0.2-2.1-0.1-3.1,0.3c-0.8,0.3-2.2,1.1-4.3,2.5L465.7,548.5z
	 M457.8,547.5l9.3-6.1c2.1-1.3,3.8-2.2,5.1-2.6c1.7-0.5,3.5-0.6,5.3-0.2c1.8,0.4,3.5,1.3,5.1,2.5c1.6,1.2,3.1,3.1,4.7,5.4
	c1.3,2.1,2.2,4,2.7,5.9c0.6,2.2,0.6,4.3,0.2,6.2c-0.3,1.5-1.1,2.9-2.2,4.3c-0.9,1.1-2.3,2.2-4.2,3.5l-9.6,6.2L457.8,547.5z
	 M447.3,587.4l-13.7-26.8l19.9-10.2l2.3,4.5l-14.5,7.4l3,5.9l13.5-6.8l2.3,4.5l-13.5,6.8l3.7,7.3l15-7.6l2.3,4.5L447.3,587.4z
	 M421.6,598.1l-11.3-27.9l19.1-7.7l1.9,4.7l-13.5,5.4l2.7,6.6l11.7-4.7l1.9,4.7l-11.7,4.7l4.8,11.8L421.6,598.1z M374.8,600.7
	l5.6-1.9c0.8,1.9,1.8,3.1,3.1,3.8c1.3,0.7,2.8,0.8,4.6,0.4c1.9-0.4,3.3-1.2,4-2.2c0.8-1,1.1-2.1,0.8-3.1c-0.2-0.7-0.5-1.2-1-1.6
	c-0.5-0.4-1.3-0.7-2.4-0.8c-0.7-0.1-2.4-0.2-5.1-0.2c-3.4-0.1-5.8-0.5-7.4-1.3c-2.2-1.2-3.5-3-4-5.3c-0.3-1.5-0.2-3,0.3-4.5
	c0.6-1.5,1.5-2.8,3-3.8c1.5-1.1,3.3-1.9,5.6-2.4c3.7-0.8,6.6-0.7,8.9,0.5c2.2,1.2,3.7,3.1,4.4,5.8l-5.8,1.6
	c-0.6-1.5-1.4-2.4-2.4-2.9c-1-0.4-2.3-0.5-4-0.1c-1.7,0.4-3,1.1-3.8,2c-0.5,0.6-0.7,1.3-0.5,2c0.2,0.7,0.6,1.2,1.3,1.6
	c0.9,0.4,2.9,0.7,5.9,0.7c3,0,5.3,0.2,6.9,0.6s2.9,1.2,3.9,2.2c1.1,1.1,1.8,2.5,2.2,4.4c0.4,1.7,0.3,3.4-0.3,5.1
	c-0.6,1.7-1.7,3.1-3.2,4.2s-3.6,2-6.1,2.5c-3.7,0.8-6.7,0.7-9.1-0.6C377.7,606.2,375.9,603.9,374.8,600.7z M345.9,604.9l5.8-1.3
	c0.6,1.9,1.5,3.3,2.7,4.1c1.2,0.8,2.7,1.1,4.5,0.8c2-0.2,3.4-0.8,4.3-1.8c0.9-1,1.3-2,1.1-3.1c-0.1-0.7-0.4-1.3-0.8-1.7
	c-0.4-0.4-1.2-0.8-2.4-1c-0.7-0.2-2.4-0.4-5-0.7c-3.3-0.4-5.7-1.1-7.2-2.1c-2-1.4-3.2-3.3-3.5-5.7c-0.2-1.5,0.1-3,0.8-4.4
	c0.7-1.4,1.8-2.6,3.4-3.5c1.6-0.9,3.5-1.5,5.8-1.7c3.8-0.4,6.7,0,8.8,1.4c2.1,1.4,3.4,3.5,3.8,6.2l-6,1c-0.4-1.5-1.1-2.5-2.1-3.1
	c-1-0.6-2.2-0.7-3.9-0.6c-1.7,0.2-3.1,0.7-4,1.6c-0.6,0.6-0.8,1.2-0.7,2c0.1,0.7,0.4,1.3,1.1,1.7c0.8,0.6,2.8,1,5.8,1.3
	c3,0.3,5.3,0.8,6.8,1.3s2.7,1.5,3.7,2.6c1,1.2,1.5,2.8,1.8,4.6c0.2,1.7-0.1,3.4-0.8,5c-0.8,1.6-2,2.9-3.6,3.8
	c-1.6,1-3.8,1.6-6.4,1.9c-3.8,0.4-6.8-0.1-9-1.6C348.2,610.6,346.7,608.3,345.9,604.9z M318.2,616l-1.1-30.1l22.3-0.8l0.2,5.1
	l-16.2,0.6l0.2,6.7l15.1-0.5l0.2,5.1l-15.1,0.5l0.3,8.2l16.8-0.6l0.2,5.1L318.2,616z M285.5,613.9l2.6-30l6.1,0.5l-1,11.8l11.8,1.1
	l1-11.8l6.1,0.5l-2.6,30l-6.1-0.5l1.1-13.1l-11.8-1.1l-1.1,13.1L285.5,613.9z M274.2,601.1l5.4,3c-1.5,3-3.5,5.2-5.8,6.3
	s-5.2,1.5-8.3,0.8c-3.9-0.8-6.9-2.8-8.9-5.9c-2-3.2-2.6-7.1-1.6-11.7c1-4.9,3-8.5,6.1-10.7c3.1-2.2,6.7-2.9,10.8-2.1
	c3.6,0.7,6.3,2.4,8.2,4.9c1.1,1.5,1.7,3.5,2,6l-6.2,0.3c-0.1-1.6-0.6-3-1.5-4c-1-1.1-2.2-1.8-3.8-2.1c-2.2-0.4-4.1,0-5.8,1.3
	c-1.7,1.3-2.9,3.7-3.5,7.2c-0.7,3.8-0.6,6.5,0.4,8.4c1,1.9,2.6,3,4.8,3.4c1.6,0.3,3,0.1,4.4-0.7
	C272.1,604.6,273.2,603.1,274.2,601.1z M208.9,594.8l9.8-28.5l5.6,1.9l5.1,23l6.6-19l5.3,1.9l-9.8,28.5l-5.8-2l-5.1-22.5l-6.4,18.6
	L208.9,594.8z M198.9,577.1l1.4-11.8l-8.7,8.1L198.9,577.1z M203.5,592.8l-5.9-3l0.8-7.3l-10.7-5.4l-5.3,5l-5.7-2.9l24.1-21.5
	l5.7,2.9L203.5,592.8z M182.7,548l5.1,3.3l-10.4,16c-1.3,2.1-2.6,3.6-3.7,4.5c-1.5,1.1-3.1,1.7-5,1.8c-1.9,0.1-3.9-0.6-6-2
	c-2.5-1.6-4-3.5-4.4-5.8c-0.4-2.2,0.2-4.8,2-7.5l5.2,2.6c-0.9,1.5-1.3,2.6-1.3,3.5c-0.1,1.3,0.5,2.2,1.6,3c1.1,0.7,2.1,1,3,0.6
	c0.9-0.3,2-1.5,3.3-3.6L182.7,548z M145.5,558.9l17.7-24.4l4.9,3.6l-17.7,24.4L145.5,558.9z M140.1,540.1l4.2-11.2l-10.4,5.8
	L140.1,540.1z M140.8,556.5l-5-4.3l2.5-6.9l-9.1-7.9l-6.3,3.5l-4.9-4.2l28.6-15l4.8,4.2L140.8,556.5z M110.8,510.8l-5.9,5.5l3.8,4.1
	c1.5,1.6,2.5,2.6,3,2.9c0.7,0.6,1.5,0.8,2.4,0.8s1.7-0.4,2.5-1.1c0.7-0.6,1.1-1.3,1.2-2.1c0.2-0.7,0.1-1.5-0.3-2.4
	c-0.3-0.8-1.5-2.2-3.4-4.2L110.8,510.8z M119.5,502.6l-5.1,4.8l2.7,2.9c1.6,1.7,2.6,2.8,3.1,3.1c0.8,0.7,1.6,1,2.5,1.1
	c0.8,0.1,1.6-0.3,2.4-1c0.7-0.6,1.1-1.3,1.1-2.1s-0.2-1.6-0.8-2.4c-0.3-0.5-1.5-1.8-3.5-3.9L119.5,502.6z M119.1,494.8l8.2,8.8
	c1.6,1.7,2.8,3.1,3.4,4.1c0.7,1,1.1,2,1.2,3.1s0.1,2.2-0.3,3.4c-0.3,1.2-1,2.2-2,3.1c-1,1-2.2,1.6-3.6,1.8c-1.4,0.2-2.8,0.1-4-0.4
	c0.8,1.7,1.2,3.4,0.9,4.9c-0.3,1.6-1.1,3-2.3,4.2c-1,1-2.2,1.6-3.6,2c-1.4,0.4-2.8,0.5-4,0.2c-1.3-0.3-2.6-1-3.8-2
	c-0.8-0.7-2.5-2.4-5.2-5.2l-7-7.5L119.1,494.8z M94.2,483.9l2.8,3.5c1.8,2.3,3,3.6,3.6,4.1c0.6,0.4,1.3,0.6,2.1,0.6
	c0.7-0.1,1.5-0.3,2.1-0.9c0.8-0.6,1.3-1.3,1.5-2.1c0.2-0.8,0-1.6-0.5-2.5c-0.2-0.4-1.1-1.6-2.6-3.5l-2.9-3.8L94.2,483.9z
	 M76.7,489.8l23.7-18.5l7.9,10.1c2,2.5,3.2,4.5,3.6,6c0.4,1.5,0.4,3-0.1,4.5c-0.6,1.6-1.5,2.9-2.9,3.9c-1.8,1.4-3.6,2-5.7,1.9
	c-2-0.2-3.9-1.1-5.8-3c0.2,1.5,0.2,2.9,0,4.2c-0.2,1.2-0.8,3.1-1.7,5.7l-2.4,6.5l-4.5-5.7l2.5-7.5c0.9-2.7,1.4-4.4,1.5-5.3
	c0.1-0.8,0.1-1.6-0.1-2.2c-0.2-0.7-0.8-1.5-1.6-2.6l-0.7-1l-9.9,7.7L76.7,489.8z M60.4,464.3l25.5-15.9l11.8,18.9l-4.3,2.7
	l-8.6-13.7l-5.7,3.5l8,12.8l-4.3,2.7l-8-12.8l-7,4.3l8.9,14.3l-4.3,2.7L60.4,464.3z M46.9,436.9l4.9-2.4l24.5,5.7l-6.2-12.6l4.6-2.2
	l9.7,19.8l-4.3,2.1l-25.5-5.9l7.5,15.4l-4.5,2.2L46.9,436.9z M52.9,419.5l9.2-7.6l-11.9-0.2L52.9,419.5z M379,371.9
	c-14.3-3.1-34-5.1-55.7-5.1c-21.8,0-41.5,1.9-55.7,5.1c-13.9,3-22.4,7.1-22.4,11.4s8.6,8.4,22.4,11.4c14.3,3.1,34,5.1,55.7,5.1
	c21.8,0,41.5-1.9,55.7-5.1c13.9-3,22.4-7.1,22.4-11.4S392.8,374.9,379,371.9z M401.4,379.3l-0.2-38.4c-0.9-4-9.3-7.8-22.3-10.7
	c-14.3-3.1-33.9-5.1-55.7-5.1c-21.7,0-41.4,1.9-55.7,5.1c-13.9,3-22.4,7.1-22.4,11.4v37.8c3.3-3.6,11.2-6.8,22.1-9.2
	c14.4-3.1,34.2-5.1,56.1-5.1c21.9,0,41.7,2,56.1,5.1C390.3,372.5,398.1,375.7,401.4,379.3z M382.3,313.3l14.8,14.8l14.8-14.8
	l-14.8-14.8L382.3,313.3z M382.3,283.7l14.8,14.8l14.8-14.8l-14.8-14.8L382.3,283.7z M382.3,254.1l14.8,14.8l14.8-14.8l-14.8-14.8
	L382.3,254.1z M352.8,283.7l14.8,14.8l14.8-14.8l-14.8-14.8L352.8,283.7z M352.8,254.1l14.8,14.8l14.8-14.8l-14.8-14.8L352.8,254.1z
	 M323.2,283.7l14.8,14.8l14.8-14.8L338,268.9L323.2,283.7z M323.2,254.1l14.8,14.8l14.8-14.8L338,239.4L323.2,254.1z M293.6,283.7
	l14.8,14.8l14.8-14.8l-14.8-14.8L293.6,283.7z M293.6,254.1l14.8,14.8l14.8-14.8l-14.8-14.8L293.6,254.1z M264,283.7l14.8,14.8
	l14.8-14.8l-14.8-14.8L264,283.7z M264,254.1l14.8,14.8l14.8-14.8l-14.8-14.8L264,254.1z M234.5,313.3l14.8,14.8l14.8-14.8
	l-14.8-14.8L234.5,313.3z M234.5,283.7l14.8,14.8l14.8-14.8l-14.8-14.8L234.5,283.7z M234.5,254.1l14.8,14.8l14.8-14.8l-14.8-14.8
	L234.5,254.1z M342.3,235.1c-3.8-3-8.9-5.6-15.1-6.5l10.8,10.8L342.3,235.1L342.3,235.1z M374.5,232.4c-0.7,0.3-1.4,0.6-2.1,1
	c-2.4,1.1-4.8,2.5-7.1,3.9l2.1,2.1L374.5,232.4z M405.2,231.6c-4.4-2.2-8.6-3.2-12.1-3.3c-2.1-0.1-4.4,0.1-6.7,0.5l0.2-0.1
	l10.6,10.6l7.9-7.9L405.2,231.6z M426.5,269.1c-0.9-9.7-3.3-17.1-6.6-23l-8,8l14.5,14.5L426.5,269.1z M425.1,296.9
	c1-5.3,1.6-11.3,1.7-18.1c0.1-3.5-0.1-6.7-0.3-9.7l-14.6,14.6L425.1,296.9z M417.5,318.9c2.6-4.9,5.1-10.8,6.8-18l-12.4,12.4
	L417.5,318.9z M416.7,320.3c0.3-0.4,0.5-0.9,0.8-1.3C417.2,319.4,417,319.8,416.7,320.3z M415.2,322.7c0.1-0.2,0.2-0.4,0.4-0.6
	C415.5,322.3,415.3,322.5,415.2,322.7z M392.7,332.5c4.4,1.7,7.5,3.7,9.1,5.8c0.5-0.5,1.1-1,1.6-1.6c0.4-0.3,0.8-0.7,1.2-1.1
	l-7.5-7.5L392.7,332.5z M365.6,326.1c1.2,0.2,2.3,0.3,3.4,0.5l13.4-13.4l-14.8-14.8l-14.8,14.8L365.6,326.1z M333.5,323.5
	c2.9,0.1,5.8,0.2,8.6,0.3l10.6-10.6L338,298.5l-14.8,14.8L333.5,323.5z M280.8,326.1l0.3-0.1l0.3-0.1l0.3-0.1l0.3-0.1l0,0l0.3-0.1
	l0.3-0.1h0.1l0.2-0.1l0.3-0.1l0.3-0.1h0.1l0.3-0.1l0.3-0.1h0.1l0,0l0.6-0.1h0.2h0.2l0.3-0.1l0.3-0.1l0,0l0.3-0.1l0.3-0.1h0.2h0.2
	l0.3-0.1l0.3-0.1h0.1l0.3-0.1l0.3-0.1h0.1l0,0l0.6-0.1h0.2h0.1l0.7-0.1l0,0l0.3-0.1l0.4-0.1h0.2h0.2l0.4-0.1l0.3-0.1h0.1l0.4-0.1
	l0.4-0.1h0.1h0.3l0.4-0.1h0.3h0.1l0.4-0.1l0.4-0.1h0.1l0.7-0.1h0.1h0.2h0.2l0.7-0.1l0,0l0.8-0.1h0.1h0.2h0.4h0.3h0.1h0.4h0.4h0.1
	h0.3h0.4h0.2h0.2l0.8-0.1l0,0h0.4h0.4h0.2h0.2l0.7-0.1h0.1c3.1-0.2,6.2-0.3,9.4-0.4l10.3-10.3l-14.8-14.8l-14.8,14.8l10.6,10.6
	 M277.3,326.6c1.1-0.2,2.2-0.3,3.4-0.5l12.9-12.9l-14.8-14.8l-14.8,14.8L277.3,326.6z M241.4,335.9l0.8,0.7c0.8,0.8,1.5,1.5,2.1,2.1
	c1.5-2.3,4.7-4.4,9.4-6.3l-4.4-4.4L241.4,335.9z M221.1,299.9c1.8,7.9,4.4,14.4,7.3,19.5v-0.1l6.1-6.1L221.1,299.9z M225.9,245.6
	c-4.4,7.6-7.4,18.4-7.2,33.2c0.1,7,0.8,13.2,1.9,18.7l13.9-13.9L219.6,269l14.8-14.8L225.9,245.6z M238.2,232.9
	c-0.2,0.1-0.4,0.3-0.7,0.4C237.8,233.1,238,233,238.2,232.9z M239.3,232.2c-0.4,0.2-0.7,0.4-1.1,0.7
	C238.6,232.6,239,232.4,239.3,232.2z M240.7,231.5c-0.4,0.2-0.7,0.4-1.1,0.6C240,231.9,240.3,231.7,240.7,231.5z M259.7,228.9
	c-2.5-0.4-5-0.7-7.2-0.6c-3.3,0.2-7.4,1-11.6,3.1l0.2-0.1l8.1,8.1L259.7,228.9z M280.7,237.5c-2.4-1.6-4.9-3-7.5-4.2l-0.7-0.3
	l6.3,6.3L280.7,237.5z M296.1,242.4c-0.1,0.2-0.3,0.4-0.4,0.6C295.8,242.8,296,242.6,296.1,242.4z M303.8,210.5l19.3-35.5l19.3,35.5
	l-9.6,17.6c12,3.8,18.5,13.6,20.4,16.8c5.1-5.4,11.6-10,18.4-13.2c7.4-3.5,15.1-5.4,21.4-5.2c7.4,0.3,18.7,4.2,26.5,15.8
	c5.4,8,9.1,19.7,9,36.5c-0.5,36.3-16.3,51.6-24,59.1c-0.7,0.7-1.3,1.2-1.8,1.7h0.1c0.1,14.5,0.3,29,0.3,43.6
	c0,5.3-9.1,9.9-23.9,13.1c-14.4,3.1-34.2,5.1-56.1,5.1c-21.9,0-41.7-2-56.1-5.1c-14.8-3.3-23.9-7.9-23.9-13.1L243,340
	c-0.6-0.6-1.3-1.3-2.1-2.1c-7.6-7.4-23.5-22.8-24-59.1c-0.2-16.8,3.5-28.5,9-36.5c7.9-11.6,19.1-15.5,26.5-15.8
	c6.3-0.3,14,1.7,21.4,5.2c6.8,3.3,13.4,7.8,18.4,13.2c2-3.3,8.6-13.4,21-17L303.8,210.5z M319.3,228.5c-6.4,0.7-11.6,3.3-15.5,6.2
	l4.7,4.7L319.3,228.5z M585.3,308.2l30.1-1.1l0.2,6.1l-30.1,1.1L585.3,308.2z M592.4,276.4l1.4,5.8c-1.9,0.6-3.3,1.5-4,2.8
	c-0.8,1.2-1,2.7-0.8,4.5c0.3,2,0.9,3.4,1.9,4.2c1,0.9,2,1.2,3.1,1.1c0.7-0.1,1.3-0.4,1.7-0.9c0.4-0.5,0.8-1.2,1-2.4
	c0.2-0.7,0.3-2.4,0.6-5c0.3-3.4,1-5.7,2-7.2c1.4-2.1,3.3-3.3,5.6-3.6c1.5-0.2,3,0,4.4,0.7c1.5,0.7,2.6,1.8,3.5,3.3
	c0.9,1.5,1.5,3.4,1.9,5.7c0.5,3.8,0.1,6.7-1.3,8.8s-3.4,3.4-6.2,3.9l-1.1-6c1.5-0.4,2.5-1.2,3.1-2.1s0.7-2.2,0.4-3.9
	c-0.2-1.7-0.8-3.1-1.6-4c-0.6-0.6-1.2-0.8-2-0.7c-0.7,0.1-1.3,0.5-1.7,1.2c-0.5,0.8-1,2.8-1.2,5.8s-0.7,5.3-1.2,6.8
	c-0.6,1.5-1.4,2.8-2.6,3.7c-1.2,1-2.7,1.6-4.6,1.9c-1.7,0.2-3.4,0-5-0.7c-1.6-0.7-2.9-1.9-3.9-3.5s-1.6-3.8-2-6.3
	c-0.5-3.8-0.1-6.8,1.4-9C586.7,278.8,589,277.2,592.4,276.4z M591.6,261l9.9-6.6l-11.8-1.5L591.6,261z M582.5,274.6l-1.5-6.5
	l6.1-4.1l-2.7-11.7l-7.2-0.9l-1.5-6.3l32,4.7l1.5,6.3L582.5,274.6z M571.1,231.5l12-4.2l12.9-16.1l2.3,6.7l-9,10.6l13.5,2.7l2.3,6.6
	l-20.1-4.8l-12,4.1L571.1,231.5z M592.5,198.7l4.9-2.3l2.4,5.1l-4.9,2.3L592.5,198.7z M563.5,212l27.3-12.7l2.6,5.5l-27.3,12.7
	L563.5,212z M558.4,180l3.3,4.9c-1.6,1.2-2.5,2.6-2.9,4c-0.3,1.4-0.1,2.9,0.8,4.5c0.9,1.7,2,2.9,3.2,3.3c1.2,0.5,2.3,0.4,3.3-0.1
	c0.6-0.3,1.1-0.8,1.3-1.4c0.2-0.6,0.3-1.5,0.1-2.5c-0.1-0.7-0.5-2.4-1.1-4.9c-0.8-3.3-1-5.7-0.6-7.5c0.6-2.4,2-4.2,4-5.3
	c1.3-0.7,2.8-1,4.4-0.8c1.6,0.2,3.1,0.8,4.4,1.9c1.4,1.1,2.6,2.7,3.7,4.7c1.8,3.4,2.4,6.2,1.8,8.7c-0.6,2.5-2.1,4.4-4.4,5.8
	l-3.1-5.2c1.2-1,2-2,2.1-3c0.2-1.1-0.1-2.4-0.9-3.9c-0.8-1.6-1.8-2.6-2.9-3.1c-0.7-0.3-1.4-0.3-2.1,0c-0.6,0.3-1,0.9-1.2,1.7
	c-0.2,1,0.1,2.9,0.8,5.9c0.8,2.9,1.2,5.2,1.2,6.8c0,1.6-0.4,3-1.1,4.4c-0.8,1.3-2,2.4-3.6,3.3c-1.5,0.8-3.2,1.1-4.9,1
	c-1.8-0.2-3.4-0.8-4.9-2c-1.5-1.2-2.8-3-4-5.3c-1.8-3.4-2.4-6.3-1.8-9C554,184.2,555.7,181.9,558.4,180z M552.6,166.3l7.1-9.5
	l-11.6,2.7L552.6,166.3z M548.7,182.1l-3.6-5.6l4.3-5.9l-6.6-10.1l-7.1,1.6l-3.5-5.4l31.7-6.6l3.5,5.4L548.7,182.1z M530.3,128.7
	l3,3.4c1.9,2.2,3.2,3.5,3.9,3.9c0.7,0.4,1.3,0.5,2.1,0.4c0.7-0.1,1.4-0.4,2.1-1c0.8-0.7,1.2-1.4,1.3-2.2c0.1-0.8-0.1-1.6-0.6-2.5
	c-0.3-0.4-1.2-1.6-2.9-3.4l-3.1-3.6L530.3,128.7z M513.2,135.6l22.7-19.8l8.4,9.7c2.1,2.4,3.4,4.4,4,5.8c0.6,1.5,0.6,3,0.1,4.5
	c-0.4,1.6-1.4,2.9-2.7,4.1c-1.7,1.5-3.5,2.2-5.6,2.2c-2-0.1-4-1-6-2.7c0.3,1.5,0.3,2.9,0.2,4.1c-0.1,1.2-0.6,3.2-1.4,5.8l-2,6.6
	l-4.8-5.5l2.1-7.6c0.7-2.7,1.2-4.5,1.2-5.3c0.1-0.8,0-1.6-0.3-2.2c-0.3-0.6-0.8-1.5-1.7-2.5l-0.8-1l-9.5,8.3L513.2,135.6z
	 M492.2,115.6l20.5-22l16.3,15.2l-3.5,3.7l-11.9-11.1l-4.5,4.9l11.1,10.3l-3.5,3.7L505.7,110l-5.6,6l12.3,11.4l-3.5,3.7L492.2,115.6
	z M486.1,79.7L474.7,96l3.7,2.6c1.4,1,2.5,1.6,3.2,1.9c1,0.3,1.9,0.5,2.8,0.4c0.9-0.1,1.9-0.6,3-1.5c1.1-0.8,2.4-2.2,3.6-4.2
	c1.3-1.9,2.2-3.5,2.6-4.7c0.4-1.2,0.4-2.4,0.3-3.4c-0.2-1-0.7-1.9-1.5-2.8c-0.6-0.7-1.9-1.7-3.9-3.1L486.1,79.7z M484.1,72.1
	l9.1,6.4c2.1,1.5,3.5,2.7,4.4,3.8c1.1,1.5,1.9,3.1,2.1,4.9c0.3,1.8,0.1,3.7-0.4,5.7c-0.6,2-1.7,4.1-3.3,6.4c-1.4,2-2.9,3.6-4.4,4.7
	c-1.9,1.3-3.8,2.2-5.7,2.5c-1.5,0.2-3.1,0.1-4.9-0.5c-1.3-0.4-2.9-1.3-4.8-2.6l-9.4-6.6L484.1,72.1z M441.6,81.7l14.6-26.3
	l19.5,10.8l-2.5,4.4L459,62.8l-3.3,5.8L469,76l-2.5,4.4l-13.2-7.4l-4,7.2l14.7,8.1l-2.5,4.4L441.6,81.7z M416.9,70.5L429.2,43
	l18.9,8.4l-2.1,4.7l-13.3-5.9l-2.9,6.5l11.5,5.1l-2.1,4.7l-11.5-5.1L422.4,73L416.9,70.5z M385.6,60.5l6.5-24.2l-8.6-2.3l1.3-4.9
	l23.1,6.2l-1.3,4.9l-8.6-2.3l-6.5,24.2L385.6,60.5z M368.9,44.9l-2.1-11.7l-5.9,10.3L368.9,44.9z M377.8,58.5l-6.5-1.1l-1.4-7.2
	L358,48.2l-3.6,6.3l-6.3-1.1l16.8-27.6l6.3,1.1L377.8,58.5z M314.8,52.5l0.5-30.1l9.1,0.2l5.1,20.7l5.8-20.4l9.1,0.2L344,53.1
	l-5.7-0.1l0.4-23.7l-6.4,23.6l-5.8-0.1L320.9,29l-0.4,23.7L314.8,52.5z M283.4,54.4l-2.1-30l6.1-0.4l0.8,11.8l11.9-0.8l-0.8-11.8
	l6.1-0.4l2.1,30l-6.1,0.4L300.5,40l-11.9,0.8l0.9,13.1L283.4,54.4z M265.7,45.7l-6.4-10l-1.6,11.8L265.7,45.7z M279.1,55l-6.5,1.4
	l-4-6.2l-11.8,2.5l-1,7.2l-6.3,1.3l5.2-31.9l6.3-1.3L279.1,55z M232.2,75.8l-0.7-2.3c1.4-0.3,2.6-0.6,3.8-1c1.2-0.4,2-0.8,2.4-1.5
	c0.3-0.4,0.4-0.9,0.2-1.4c-0.2-0.4-0.4-0.8-1-1c-0.5-0.2-1.2-0.2-2,0.1c-0.8,0.3-1.6,0.7-2.4,1.2l-0.1-2.1c0.9-0.7,1.9-1.2,3.1-1.6
	c1.6-0.5,3-0.6,4-0.1c1.1,0.4,1.8,1.2,2.1,2.2c0.4,1.1,0.2,2.2-0.5,3.3c-1,1.4-2.6,2.5-4.9,3.3C234.5,75.4,233.2,75.8,232.2,75.8z
	 M220,60.8l5.4-2.4c1,1.8,2.1,3,3.4,3.5c1.3,0.6,2.9,0.6,4.6-0.1c1.9-0.6,3.1-1.5,3.8-2.6c0.7-1.1,0.8-2.2,0.5-3.2
	c-0.2-0.7-0.6-1.2-1.2-1.5c-0.6-0.3-1.4-0.6-2.5-0.6c-0.7,0-2.4,0.1-5.1,0.2c-3.4,0.2-5.8,0-7.5-0.7c-2.2-1-3.8-2.6-4.5-4.9
	c-0.4-1.5-0.5-3-0.1-4.5c0.4-1.5,1.3-2.9,2.6-4c1.3-1.2,3.1-2.1,5.3-2.8c3.6-1.2,6.6-1.2,8.9-0.3c2.3,1,4,2.8,4.9,5.4l-5.7,2.1
	c-0.7-1.4-1.6-2.3-2.6-2.6c-1-0.4-2.4-0.3-4,0.2c-1.7,0.6-2.9,1.3-3.6,2.3c-0.4,0.6-0.6,1.3-0.3,2.1c0.2,0.7,0.7,1.2,1.4,1.5
	c1,0.4,2.9,0.4,5.9,0.2c3-0.2,5.3-0.2,6.9,0.1c1.6,0.3,3,0.9,4.1,1.9c1.2,1,2,2.4,2.6,4.2c0.6,1.6,0.6,3.3,0.1,5.1
	c-0.4,1.7-1.4,3.2-2.8,4.4c-1.5,1.2-3.4,2.2-5.9,3.1c-3.6,1.2-6.7,1.2-9.1,0.2C223.4,65.9,221.4,63.9,220,60.8z M184.6,88.9
	l-13.7-26.8l5.3-2.7l20.1,12.3l-9.1-17.9l5.1-2.6l13.7,26.8l-5.4,2.8l-19.8-12l8.9,17.5L184.6,88.9z M164.9,87.8l-9.8-6.8l3.1,11.5
	L164.9,87.8z M180.9,91.1l-5.4,3.8l-6.1-4.1l-9.9,6.9l1.9,7l-5.3,3.7l-7.7-31.4l5.3-3.7L180.9,91.1z M142.2,106.2l5.7-2.4
	c1.4,3.1,1.9,5.9,1.2,8.5c-0.6,2.6-2.1,4.9-4.6,7c-3.1,2.6-6.5,3.6-10.2,3.2c-3.7-0.4-7.1-2.5-10.2-6.1c-3.2-3.8-4.7-7.6-4.5-11.4
	c0.2-3.8,1.9-7,5.2-9.8c2.8-2.4,5.8-3.5,9-3.3c1.9,0.1,3.9,0.8,5.9,2.2l-3.7,5c-1.3-1-2.6-1.5-4.1-1.4c-1.5,0.1-2.8,0.6-4,1.6
	c-1.7,1.5-2.6,3.2-2.6,5.3c-0.1,2.1,1.1,4.5,3.4,7.3c2.5,2.9,4.7,4.5,6.8,4.9c2.1,0.3,4-0.2,5.7-1.6c1.2-1.1,2-2.3,2.2-3.9
	C143.7,110,143.2,108.2,142.2,106.2z M120.3,143.1l-9.5-8.3l-20.4-3.1l4.7-5.4l13.6,2.5l-4.4-13.1l4.6-5.3l5.9,19.8l9.5,8.3
	L120.3,143.1z M97.9,151.2l-11.5-3.2l6.7,9.9L97.9,151.2z M114.1,149.2l-3.9,5.3l-7.1-1.9l-7.1,9.8l4.1,6l-3.8,5.2l-17.5-27.2
	l3.8-5.2L114.1,149.2z M74,186.5l7,4l2.8-4.9c1.1-1.9,1.7-3.1,1.9-3.7c0.3-0.8,0.3-1.7,0.1-2.5c-0.3-0.8-0.8-1.5-1.8-2
	c-0.8-0.4-1.6-0.6-2.3-0.6c-0.8,0.1-1.5,0.4-2.1,1s-1.7,2.1-3.1,4.4L74,186.5z M63.6,180.5l6,3.5l2-3.4c1.2-2.1,1.9-3.4,2.1-3.9
	c0.4-1,0.5-1.9,0.3-2.6c-0.2-0.8-0.7-1.5-1.6-2c-0.8-0.4-1.6-0.6-2.4-0.4c-0.8,0.2-1.5,0.6-2.1,1.5c-0.3,0.5-1.2,2-2.7,4.4
	L63.6,180.5z M56.2,183.2l6-10.4c1.2-2.1,2.2-3.5,2.9-4.5c0.7-0.9,1.6-1.6,2.6-2.1c1-0.5,2.1-0.7,3.3-0.7c1.2,0,2.4,0.3,3.5,1
	c1.2,0.7,2.1,1.7,2.8,2.9c0.6,1.2,0.9,2.6,0.7,4c1.4-1.3,2.9-2.1,4.5-2.3c1.6-0.2,3.1,0.1,4.7,1c1.2,0.7,2.2,1.6,3,2.8
	c0.8,1.2,1.2,2.5,1.4,3.8c0.1,1.3-0.2,2.8-0.8,4.3c-0.4,1-1.6,3.1-3.5,6.5l-5.1,8.9L56.2,183.2z M55.9,215l1.7-4.2
	c1.1-2.7,1.7-4.4,1.7-5.2c0.1-0.8-0.2-1.5-0.6-2.1c-0.4-0.6-1-1.1-1.9-1.4c-1-0.4-1.8-0.4-2.6-0.2c-0.8,0.3-1.4,0.8-2,1.7
	c-0.2,0.4-0.8,1.8-1.7,4.1l-1.8,4.4L55.9,215z M69.7,227.1l-27.9-11.3l4.8-11.9c1.2-3,2.4-5.1,3.4-6.2c1.1-1.1,2.4-1.9,4-2.2
	c1.6-0.3,3.3-0.1,4.9,0.6c2.1,0.8,3.6,2.2,4.4,3.9c0.8,1.8,1,4,0.3,6.6c1.2-1,2.4-1.6,3.6-2.1c1.2-0.4,3.1-0.9,5.8-1.3l6.8-1.2
	l-2.8,6.7l-7.7,1.6c-2.7,0.6-4.5,1-5.3,1.3c-0.8,0.3-1.4,0.7-1.9,1.2c-0.4,0.5-1,1.4-1.5,2.7l-0.4,1.1l11.7,4.7L69.7,227.1z
	 M54.2,235.7l-3.9,13.6c2.7,0.4,4.8,0.2,6.3-0.7c1.6-0.9,2.6-2.1,3.1-3.8c0.5-1.9,0.4-3.5-0.4-5.1C58.4,238.1,56.7,236.8,54.2,235.7
	z M53.6,228.9c6.1,1.7,9.8,5.1,11.2,9.9c0.7,2.2,0.6,4.8-0.2,7.5c-0.9,3-2.4,5.3-4.5,6.8c-4,2.8-8.6,3.4-14,1.9
	c-0.6-0.2-1.4-0.5-2.5-1l5.6-19.6c-2.2-0.4-4.2-0.2-5.8,0.5c-1.9,0.8-3.1,2.3-3.7,4.4c-0.9,3.1,0.1,5.7,3,7.6l-3,5.4
	c-2.6-1.5-4.4-3.5-5.2-6.1c-0.8-2.5-0.8-5.2,0.1-8.1c1.2-4.3,3.6-7.2,7.3-8.8C45.3,227.7,49.2,227.6,53.6,228.9z M55.5,286.8
	l-5.4-1.1L34,266.5l-2.7,13.8l-5-1l4.2-21.7l4.7,0.9L52,278.6l3.3-16.8l5,1L55.5,286.8z M43.1,298.8l-11.5,3.1l10.8,5.1L43.1,298.8z
	 M56,288.6l-0.6,6.6l-7.1,2l-1.1,12l6.6,3.1l-0.6,6.4l-29-14.3L25,298L56,288.6z M380.2,170.1l-57.7-58l-57.8,58l-2.1,2.1h-2.9
	l-81.9-0.2l0.2,81.9v2.9l-2.1,2.1l-58,57.7l58,57.8l2.1,2.1v2.9l-0.2,81.8l81.9-0.2h2.9l2.1,2.1l57.8,58l57.8-58l2.1-2.1h2.9
	l81.9,0.2l-0.2-81.9v-2.9l2.1-2.1l58-57.8l-58.1-57.7l-2.1-2.1v-2.9l0.2-81.9l-81.9,0.2h-2.9L380.2,170.1z M327.4,97.2l60.6,60.9
	l86-0.2h7v7l-0.2,86l60.9,60.6l5,4.9l-5,4.9L480.8,382l0.2,86v7h-7l-86-0.2l-60.6,60.9l-4.9,5l-4.9-5l-60.6-60.9l-86,0.2h-7v-7
	l0.2-86l-60.9-60.6l-5-4.9l5-4.9l60.9-60.6l-0.2-86v-7h7l86,0.2l60.6-60.9l4.9-5L327.4,97.2z M45.3,433.9l-2.1-6.3l5.6-4.7
	l-3.9-11.4l-7.3-0.1l-2.1-6.1l32.3,1.3l2.1,6.1L45.3,433.9z"/>
</svg>
