<?xml version="1.0" encoding="utf-8"?>
<!-- Generator: Adobe Illustrator 24.0.3, SVG Export Plug-In . SVG Version: 6.00 Build 0)  -->
<svg version="1.1" id="Layer_1" xmlns="http://www.w3.org/2000/svg" xmlns:xlink="http://www.w3.org/1999/xlink" x="0px" y="0px"
	 viewBox="0 0 512 512" style="enable-background:new 0 0 512 512;" xml:space="preserve">
<style type="text/css">
	.st0{fill:#CBA453;}
</style>
<g>
	<g>
		<polygon class="st0" points="98.9,333.5 110.1,340.6 100.7,355.4 220.4,431.1 229.8,416.3 241.5,423.7 359,237.9 216.5,147.8 		
			"/>
	</g>
</g>
<g>
	<g>
		
			<rect x="108" y="354.7" transform="matrix(0.5346 -0.8451 0.8451 0.5346 -309.6267 315.8546)" class="st0" width="48" height="168.6"/>
	</g>
</g>
<g>
	<g>
		<path class="st0" d="M382,27.4c-18.7,1.2-37.6,5.8-56.2,13.7c-37.3,15.7-68.7,42.6-90.9,77.7l-2.3,3.7L375,212.6l2.3-3.7
			c11.1-17.5,19.4-36.3,24.6-55.7c5.3-19.4,7.5-39.5,6.7-59.7c-0.9-20.2-4.8-39.3-11.7-56.7l-4-10.2L382,27.4z"/>
	</g>
</g>
</svg>
