<?xml version="1.0" encoding="utf-8"?>
<!-- Generator: Adobe Illustrator 24.0.3, SVG Export Plug-In . SVG Version: 6.00 Build 0)  -->
<svg version="1.1" id="Capa_1" xmlns="http://www.w3.org/2000/svg" xmlns:xlink="http://www.w3.org/1999/xlink" x="0px" y="0px"
	 viewBox="0 0 30 30" style="enable-background:new 0 0 30 30;" xml:space="preserve">
<style type="text/css">
	.st0{fill:#7A7A7A;}
</style>
<g>
	<path class="st0" d="M28.5,4.9h-5V2.4c0-1.1-0.9-2-2-2s-2,0.9-2,2v2.5h-9V2.4c0-1.1-0.9-2-2-2s-2,0.9-2,2v2.5h-5
		C0.7,4.9,0,5.5,0,6.4v21.8c0,0.8,0.7,1.5,1.5,1.5h27c0.8,0,1.5-0.7,1.5-1.5V6.4C30,5.5,29.3,4.9,28.5,4.9z M14,11.6v4H9.2v-4H14z
		 M16,11.6h4.8v4H16V11.6z M7.2,11.6v4H3v-4H7.2z M7.2,17.6v3H3v-3H7.2z M9.2,17.6H14v3H9.2V17.6z M14,22.6v4H9.2v-4H14z M16,22.6
		h4.8v4H16V22.6z M16,20.6v-3h4.8v3H16z M22.8,17.6H27v3h-4.2V17.6z M22.8,15.6v-4H27v4H22.8z M3,22.6h4.2v4H3V22.6z M22.8,26.6v-4
		H27v4H22.8z"/>
</g>
</svg>
