<?xml version="1.0" encoding="utf-8"?>
<!-- Generator: Adobe Illustrator 24.0.3, SVG Export Plug-In . SVG Version: 6.00 Build 0)  -->
<svg version="1.1" id="Capa_1" xmlns="http://www.w3.org/2000/svg" xmlns:xlink="http://www.w3.org/1999/xlink" x="0px" y="0px"
	 viewBox="0 0 512 512" style="enable-background:new 0 0 512 512;" xml:space="preserve">
<style type="text/css">
	.st0{fill:#3F3E3E;}
	.st1{fill:#5E5E5E;}
</style>
<g>
	<path class="st0" d="M269.5,97.5c1,4.8,1.5,9.9,1.5,15v15h241v-30H269.5z"/>
	<path class="st0" d="M241,112.5c0-24.8-20.2-45-45-45H0v377h512v-287H241V112.5z"/>
</g>
<path class="st1" d="M329.4,276.2l-1-4.3c-1-4.2-4-7.8-7.9-9.6l-57.4-25.7l8-22.7c0.6-1.8,0.1-3.8-1.4-5c-1.5-1.2-3.6-1.4-5.2-0.4
	l-27.9,16.8c-13.9,8.3-24.6,20.5-31,35.2c-6.2,14.2-9.4,28.6-9.6,42.9c-0.3,24.7,5.2,42.7,9.3,52.8h-8.1c-2.5,0-4.5,2-4.5,4.5v13.9
	h-5.9c-2.5,0-4.5,2-4.5,4.5v18.4c0,2.5,2,4.5,4.5,4.5h127.6c2.5,0,4.5-2,4.5-4.5v-18.4c0-2.5-2-4.5-4.5-4.5h-5.9v-13.9
	c0-2.5-2-4.5-4.5-4.5h-13.8l0.5-1.6c2.5-7.5,1.7-15.8-2.2-22.8l-19.1-33.9l2.6,0.8c1.1,0.4,2.2,0.5,3.4,0.5c3.2,0,6.2-1.4,8.2-3.8
	c1.7-2,4.1-3.1,6.7-3.1c1,0,1.9,0.2,2.9,0.5l13.7,4.7c1.5,0.5,3,0.8,4.6,0.8c3.9,0,7.7-1.7,10.4-4.6l4.5-4.9
	C329.2,285.5,330.5,280.7,329.4,276.2z"/>
</svg>
