<?xml version="1.0" encoding="utf-8"?>
<!-- Generator: Adobe Illustrator 24.0.3, SVG Export Plug-In . SVG Version: 6.00 Build 0)  -->
<svg version="1.1" id="Capa_1" xmlns="http://www.w3.org/2000/svg" xmlns:xlink="http://www.w3.org/1999/xlink" x="0px" y="0px"
	 viewBox="0 0 142.4 142.4" style="enable-background:new 0 0 142.4 142.4;" xml:space="preserve">
<style type="text/css">
	.st0{fill:#FFFFFF;}
</style>
<g>
	<path class="st0" d="M142.4,68.9C141.2,31.5,111,1.2,73.5,0C53.2-0.6,34.1,7.1,20.1,21.7C6.5,35.7-0.6,54.1,0,73.5
		c1.2,37.4,31.4,67.7,68.9,68.9c0.8,0,1.6,0,2.3,0c19.5,0,37.6-7.7,51.2-21.7C135.9,106.8,143,88.4,142.4,68.9z M111.6,110.3
		c-10.7,11-25,17.1-40.4,17.1c-0.6,0-1.2,0-1.8,0C39.8,126.5,16,102.6,15,73.1c-0.5-15.4,5.1-29.9,15.8-41
		c10.7-11,25-17.1,40.4-17.1c0.6,0,1.2,0,1.8,0c29.5,0.9,53.4,24.8,54.3,54.3C127.9,84.8,122.3,99.3,111.6,110.3z"/>
	<path class="st0" d="M94.6,67.1L63,44.4c-3.4-2.4-8.1,0-8.1,4.1v45.3c0,4.1,4.7,6.6,8.1,4.1l31.6-22.6
		C97.4,73.3,97.4,69.1,94.6,67.1z"/>
</g>
</svg>
